M48
;DRILL file {KiCad 4.0.6} date Monday, 03 July 2017 'AMt' 09:45:34
;FORMAT={2:4/ absolute / inch / suppress trailing zeros}
FMAT,2
INCH,LZ
T1C0.012
T2C0.016
T3C0.039
T4C0.040
T5C0.059
T6C0.067
%
G90
G05
M72
T1
X073199Y-04624
X073199Y-046673
X073199Y-047106
X073632Y-04624
X073632Y-046673
X073632Y-047106
X074065Y-04624
X074065Y-046673
X074065Y-047106
T2
X051173Y-03663
X051894Y-043984
X052516Y-035815
X052909Y-03726
X05328Y-036945
X053283Y-021713
X053402Y-037744
X053504Y-041252
X053669Y-026783
X053669Y-036551
X053783Y-037445
X054142Y-037031
X054197Y-036106
X05461Y-03652
X054976Y-041031
X055114Y-036165
X05576Y-034783
X055791Y-037602
X056006Y-038388
X056043Y-043228
X056362Y-028689
X056649Y-035781
X05722Y-042768
X05742Y-027534
X057626Y-040975
X05765Y-025063
X057665Y-035681
X057685Y-043461
X057874Y-040185
X058132Y-036411
X058142Y-035406
X05828Y-034224
X058519Y-041966
X058591Y-035051
X058862Y-043937
X059213Y-039799
X059237Y-041815
X059412Y-040512
X059462Y-0452
X059602Y-041493
X059843Y-025331
X059854Y-02578
X059868Y-044551
X0599Y-039006
X06Y-040024
X060043Y-036553
X060173Y-048953
X060228Y-037644
X06046Y-038286
X060483Y-041846
X060553Y-035754
X060622Y-03937
X060728Y-025752
X060965Y-048362
X061022Y-037793
X061074Y-042159
X061205Y-025303
X061236Y-040572
X061504Y-04798
X061677Y-041004
X061693Y-05022
X061764Y-039209
X061916Y-047676
X061998Y-03752
X062031Y-055555
X062087Y-044578
X062193Y-049602
X062347Y-034671
X062659Y-037986
X062815Y-048575
X062877Y-049173
X063046Y-034655
X063094Y-035815
X063299Y-037413
X063449Y-039362
X063876Y-037959
X064372Y-052672
X064409Y-022512
X064544Y-047065
X064654Y-047894
X065614Y-03772
X066161Y-040457
X066421Y-039189
X067169Y-047378
X067169Y-047894
X067224Y-020913
X067394Y-021984
X068386Y-020504
X068565Y-021672
X068575Y-022547
X068666Y-043066
X069102Y-037618
X069102Y-051567
X069154Y-020409
X069189Y-0385
X069555Y-045197
X069764Y-048752
X069776Y-046945
X069858Y-039693
X070528Y-04961
X070642Y-05313
X071039Y-046858
X071043Y-048181
X071087Y-048724
X071417Y-049988
X071697Y-04072
X071807Y-045563
X072118Y-050024
X072217Y-047941
X072469Y-040941
X072488Y-052118
X072535Y-048815
X072756Y-049567
X073201Y-019543
X073228Y-049114
X073256Y-041791
X073547Y-042472
X073768Y-051169
X074142Y-04072
X074579Y-048575
X07476Y-043492
X074945Y-053417
X075Y-044177
X075063Y-054386
X075331Y-050161
X076319Y-04487
X076406Y-042768
X077413Y-048283
X077882Y-022024
X078343Y-043913
X078583Y-04178
X07861Y-054311
X07898Y-022031
X08028Y-041799
X080575Y-05278
X083808Y-029288
X083811Y-028012
X086744Y-029181
X086756Y-025071
T3
X053307Y-02061
X053681Y-053163
X053681Y-054163
X054307Y-02061
X054681Y-053163
X054681Y-054163
X055307Y-02061
X055681Y-053163
X055681Y-054163
X056307Y-02061
X056681Y-053163
X056681Y-054163
X057307Y-02061
X057681Y-053163
X057681Y-054163
X058681Y-053163
X058681Y-054163
X059681Y-053163
X059681Y-054163
X060266Y-02061
X060681Y-053163
X060681Y-054163
X064563Y-053681
X065325Y-020207
X065325Y-021207
X065563Y-053681
X066325Y-020207
X066325Y-021207
X066563Y-053681
X067563Y-053681
X068563Y-053681
X07798Y-02072
X07898Y-02072
T4
X086083Y-026083
X086083Y-027083
X086083Y-028083
X087083Y-026083
X087083Y-027083
X087083Y-028083
T5
X086421Y-054165
T6
X085421Y-053165
X085421Y-055165
X087421Y-053165
X087421Y-055165
T0
M30
