G04 #@! TF.FileFunction,Soldermask,Top*
%FSLAX46Y46*%
G04 Gerber Fmt 4.6, Leading zero omitted, Abs format (unit mm)*
G04 Created by KiCad (PCBNEW 4.0.6) date Monday, 03 July 2017 'AMt' 09:42:41*
%MOMM*%
%LPD*%
G01*
G04 APERTURE LIST*
%ADD10C,0.100000*%
%ADD11C,2.600000*%
%ADD12C,2.400000*%
%ADD13R,0.900000X1.000000*%
%ADD14R,1.000000X0.900000*%
%ADD15R,2.127200X2.127200*%
%ADD16O,2.127200X2.127200*%
%ADD17R,2.100000X2.100000*%
%ADD18O,2.100000X2.100000*%
%ADD19R,1.000000X0.800000*%
%ADD20R,0.800000X1.000000*%
%ADD21R,1.765000X1.765000*%
%ADD22R,1.950000X1.000000*%
%ADD23R,0.990000X0.420000*%
%ADD24R,0.420000X0.990000*%
%ADD25C,0.740000*%
%ADD26R,3.650000X3.650000*%
%ADD27R,1.400000X1.550000*%
%ADD28R,2.200860X1.799540*%
%ADD29R,1.799540X2.200860*%
%ADD30R,1.950000X1.700000*%
G04 APERTURE END LIST*
D10*
D11*
X216970000Y-140120000D03*
X216970000Y-135040000D03*
X222050000Y-135040000D03*
X222050000Y-140120000D03*
D12*
X219510000Y-137580000D03*
D13*
X135020000Y-106595000D03*
X135020000Y-107695000D03*
X146620000Y-107490000D03*
X146620000Y-106390000D03*
D14*
X172150000Y-53320000D03*
X173250000Y-53320000D03*
X165687500Y-109512500D03*
X166787500Y-109512500D03*
X179475000Y-115225000D03*
X178375000Y-115225000D03*
X179450000Y-120150000D03*
X178350000Y-120150000D03*
D13*
X165287500Y-101437500D03*
X165287500Y-100337500D03*
D14*
X179475000Y-124875000D03*
X178375000Y-124875000D03*
X175062500Y-110912500D03*
X176162500Y-110912500D03*
X176237500Y-99187500D03*
X175137500Y-99187500D03*
D13*
X183225000Y-101250000D03*
X183225000Y-100150000D03*
D14*
X176262500Y-93787500D03*
X175162500Y-93787500D03*
D13*
X183050000Y-126000000D03*
X183050000Y-124900000D03*
X183075000Y-105850000D03*
X183075000Y-106950000D03*
X188325000Y-105850000D03*
X188325000Y-106950000D03*
X183075000Y-130175000D03*
X183075000Y-129075000D03*
X188275000Y-111175000D03*
X188275000Y-112275000D03*
X190675000Y-125700000D03*
X190675000Y-124600000D03*
X193250000Y-111150000D03*
X193250000Y-112250000D03*
X193375000Y-116825000D03*
X193375000Y-115725000D03*
X192600000Y-137850000D03*
X192600000Y-138950000D03*
X198300000Y-108225000D03*
X198300000Y-109325000D03*
X203125000Y-109350000D03*
X203125000Y-108250000D03*
D14*
X196475000Y-127400000D03*
X197575000Y-127400000D03*
D13*
X197700000Y-133950000D03*
X197700000Y-135050000D03*
X197325000Y-137850000D03*
X197325000Y-138950000D03*
D14*
X201500000Y-131475000D03*
X202600000Y-131475000D03*
D13*
X198100000Y-113775000D03*
X198100000Y-114875000D03*
D14*
X203650000Y-121550000D03*
X202550000Y-121550000D03*
D13*
X206875000Y-124450000D03*
X206875000Y-125550000D03*
X206700000Y-133525000D03*
X206700000Y-134625000D03*
D14*
X211400000Y-125200000D03*
X212500000Y-125200000D03*
D13*
X140430000Y-93390000D03*
X140430000Y-94490000D03*
X154840000Y-97360000D03*
X154840000Y-98460000D03*
D15*
X218650000Y-66250000D03*
D16*
X221190000Y-66250000D03*
X218650000Y-68790000D03*
X221190000Y-68790000D03*
X218650000Y-71330000D03*
X221190000Y-71330000D03*
D17*
X153075000Y-52350000D03*
X136350000Y-137575000D03*
D18*
X136350000Y-135035000D03*
X138890000Y-137575000D03*
X138890000Y-135035000D03*
X141430000Y-137575000D03*
X141430000Y-135035000D03*
X143970000Y-137575000D03*
X143970000Y-135035000D03*
X146510000Y-137575000D03*
X146510000Y-135035000D03*
X149050000Y-137575000D03*
X149050000Y-135035000D03*
X151590000Y-137575000D03*
X151590000Y-135035000D03*
X154130000Y-137575000D03*
X154130000Y-135035000D03*
D19*
X192775000Y-130925000D03*
X192775000Y-130025000D03*
D20*
X201550000Y-126450000D03*
X202450000Y-126450000D03*
D19*
X198275000Y-118375000D03*
X198275000Y-119275000D03*
D20*
X203375000Y-116950000D03*
X202475000Y-116950000D03*
D19*
X198300000Y-122600000D03*
X198300000Y-123500000D03*
D20*
X205475000Y-129575000D03*
X206375000Y-129575000D03*
X206000000Y-119125000D03*
X206900000Y-119125000D03*
X211500000Y-130175000D03*
X212400000Y-130175000D03*
D17*
X165925000Y-51325000D03*
D18*
X168465000Y-51325000D03*
X165925000Y-53865000D03*
X168465000Y-53865000D03*
D17*
X135400000Y-52350000D03*
D18*
X137940000Y-52350000D03*
X140480000Y-52350000D03*
X143020000Y-52350000D03*
X145560000Y-52350000D03*
D17*
X174150000Y-136350000D03*
D18*
X171610000Y-136350000D03*
X169070000Y-136350000D03*
X166530000Y-136350000D03*
X163990000Y-136350000D03*
D19*
X188930000Y-53090000D03*
X188930000Y-52190000D03*
X164987500Y-96812500D03*
X164987500Y-95912500D03*
D20*
X168312500Y-98112500D03*
X169212500Y-98112500D03*
D19*
X164987500Y-93137500D03*
X164987500Y-92237500D03*
X188075000Y-127525000D03*
X188075000Y-128425000D03*
X192775000Y-133725000D03*
X192775000Y-134625000D03*
D20*
X143280000Y-88700000D03*
X144180000Y-88700000D03*
D19*
X143955000Y-94640000D03*
X143955000Y-95290000D03*
X143955000Y-95940000D03*
X143955000Y-96590000D03*
X143955000Y-97240000D03*
X143955000Y-97890000D03*
X143955000Y-98540000D03*
X143955000Y-99190000D03*
D20*
X145030000Y-100265000D03*
X145680000Y-100265000D03*
X146330000Y-100265000D03*
X146980000Y-100265000D03*
X147630000Y-100265000D03*
X148280000Y-100265000D03*
X148930000Y-100265000D03*
X149580000Y-100265000D03*
D19*
X150655000Y-99190000D03*
X150655000Y-98540000D03*
X150655000Y-97890000D03*
X150655000Y-97240000D03*
X150655000Y-96590000D03*
X150655000Y-95940000D03*
X150655000Y-95290000D03*
X150655000Y-94640000D03*
D20*
X149580000Y-93565000D03*
X148930000Y-93565000D03*
X148280000Y-93565000D03*
X147630000Y-93565000D03*
X146980000Y-93565000D03*
X146330000Y-93565000D03*
X145680000Y-93565000D03*
X145030000Y-93565000D03*
D21*
X149352500Y-98962500D03*
X149352500Y-97597500D03*
X149352500Y-96232500D03*
X149352500Y-94867500D03*
X147987500Y-98962500D03*
X147987500Y-97597500D03*
X147987500Y-96232500D03*
X147987500Y-94867500D03*
X146622500Y-98962500D03*
X146622500Y-97597500D03*
X146622500Y-96232500D03*
X146622500Y-94867500D03*
X145257500Y-98962500D03*
X145257500Y-97597500D03*
X145257500Y-96232500D03*
X145257500Y-94867500D03*
D22*
X177350000Y-50595000D03*
X177350000Y-51865000D03*
X177350000Y-53135000D03*
X177350000Y-54405000D03*
X182750000Y-54405000D03*
X182750000Y-53135000D03*
X182750000Y-51865000D03*
X182750000Y-50595000D03*
D23*
X184525000Y-116800000D03*
X184525000Y-117300000D03*
X184525000Y-117800000D03*
X184525000Y-118300000D03*
X184525000Y-118800000D03*
X184525000Y-119300000D03*
X184525000Y-119800000D03*
X184525000Y-120300000D03*
D24*
X185275000Y-121050000D03*
X185775000Y-121050000D03*
X186275000Y-121050000D03*
X186775000Y-121050000D03*
X187275000Y-121050000D03*
X187775000Y-121050000D03*
X188275000Y-121050000D03*
X188775000Y-121050000D03*
D23*
X189525000Y-120300000D03*
X189525000Y-119800000D03*
X189525000Y-119300000D03*
X189525000Y-118800000D03*
X189525000Y-118300000D03*
X189525000Y-117800000D03*
X189525000Y-117300000D03*
X189525000Y-116800000D03*
D24*
X188775000Y-116050000D03*
X188275000Y-116050000D03*
X187775000Y-116050000D03*
X187275000Y-116050000D03*
X186775000Y-116050000D03*
X186275000Y-116050000D03*
X185775000Y-116050000D03*
X185275000Y-116050000D03*
D25*
X185925000Y-117450000D03*
X185925000Y-118550000D03*
X185925000Y-119650000D03*
X187025000Y-117450000D03*
X187025000Y-118550000D03*
X187025000Y-119650000D03*
X188125000Y-117450000D03*
X188125000Y-118550000D03*
X188125000Y-119650000D03*
D26*
X187025000Y-118550000D03*
D27*
X167287500Y-105862500D03*
X167287500Y-104112500D03*
X165887500Y-104112500D03*
X165887500Y-105862500D03*
D28*
X143024640Y-105926120D03*
X138625360Y-105926120D03*
X138625360Y-108323880D03*
X143024640Y-108323880D03*
D29*
X176761380Y-107337140D03*
X176761380Y-102937860D03*
X174363620Y-102937860D03*
X174363620Y-107337140D03*
D17*
X198070000Y-52630000D03*
D18*
X200610000Y-52630000D03*
D30*
X135335000Y-70390000D03*
X143285000Y-70390000D03*
X135335000Y-74890000D03*
X143285000Y-74890000D03*
M02*
