G04 #@! TF.FileFunction,Copper,L4,Bot,Signal*
%FSLAX46Y46*%
G04 Gerber Fmt 4.6, Leading zero omitted, Abs format (unit mm)*
G04 Created by KiCad (PCBNEW 4.0.6) date Monday, 03 July 2017 'AMt' 09:42:41*
%MOMM*%
%LPD*%
G01*
G04 APERTURE LIST*
%ADD10C,0.100000*%
%ADD11C,2.200000*%
%ADD12C,2.000000*%
%ADD13R,1.727200X1.727200*%
%ADD14O,1.727200X1.727200*%
%ADD15R,1.700000X1.700000*%
%ADD16O,1.700000X1.700000*%
%ADD17C,0.600000*%
%ADD18C,0.800000*%
%ADD19C,0.250000*%
G04 APERTURE END LIST*
D10*
D11*
X216970000Y-140120000D03*
X216970000Y-135040000D03*
X222050000Y-135040000D03*
X222050000Y-140120000D03*
D12*
X219510000Y-137580000D03*
D13*
X218650000Y-66250000D03*
D14*
X221190000Y-66250000D03*
X218650000Y-68790000D03*
X221190000Y-68790000D03*
X218650000Y-71330000D03*
X221190000Y-71330000D03*
D15*
X153075000Y-52350000D03*
X136350000Y-137575000D03*
D16*
X136350000Y-135035000D03*
X138890000Y-137575000D03*
X138890000Y-135035000D03*
X141430000Y-137575000D03*
X141430000Y-135035000D03*
X143970000Y-137575000D03*
X143970000Y-135035000D03*
X146510000Y-137575000D03*
X146510000Y-135035000D03*
X149050000Y-137575000D03*
X149050000Y-135035000D03*
X151590000Y-137575000D03*
X151590000Y-135035000D03*
X154130000Y-137575000D03*
X154130000Y-135035000D03*
D15*
X165925000Y-51325000D03*
D16*
X168465000Y-51325000D03*
X165925000Y-53865000D03*
X168465000Y-53865000D03*
D15*
X135400000Y-52350000D03*
D16*
X137940000Y-52350000D03*
X140480000Y-52350000D03*
X143020000Y-52350000D03*
X145560000Y-52350000D03*
D15*
X174150000Y-136350000D03*
D16*
X171610000Y-136350000D03*
X169070000Y-136350000D03*
X166530000Y-136350000D03*
X163990000Y-136350000D03*
D17*
X185925000Y-117450000D03*
X185925000Y-118550000D03*
X185925000Y-119650000D03*
X187025000Y-117450000D03*
X187025000Y-118550000D03*
X187025000Y-119650000D03*
X188125000Y-117450000D03*
X188125000Y-118550000D03*
X188125000Y-119650000D03*
D15*
X198070000Y-52630000D03*
D16*
X200610000Y-52630000D03*
D18*
X142255240Y-97505520D03*
X153568400Y-97246440D03*
X154996656Y-95994288D03*
X220330000Y-74120000D03*
X135340000Y-55150000D03*
X177230000Y-119240000D03*
X145340000Y-108630000D03*
X135900000Y-104780000D03*
X139640000Y-104220000D03*
X142350000Y-109800000D03*
X139990000Y-91860000D03*
X143160000Y-72870000D03*
X136320000Y-68030000D03*
X183180000Y-127060000D03*
X177200000Y-123830000D03*
X176670000Y-114800000D03*
X189890000Y-110470000D03*
X175520000Y-95550000D03*
X175740000Y-97790000D03*
X177440000Y-100820000D03*
X168050000Y-102760000D03*
X168710000Y-99540000D03*
X175650000Y-51840000D03*
X170750000Y-53120000D03*
X185930000Y-49640000D03*
X200610000Y-55960000D03*
X204660000Y-134060000D03*
X199670000Y-137950000D03*
X190660000Y-138140000D03*
X191340000Y-127410000D03*
X196630000Y-122640000D03*
X187370000Y-129970000D03*
X184120000Y-132380000D03*
X182110000Y-103430000D03*
X184070000Y-103990000D03*
X188320000Y-103430000D03*
X198990000Y-111540000D03*
X194070000Y-108630000D03*
X199600000Y-106120000D03*
X203910000Y-106170000D03*
X174412500Y-109387500D03*
X152978721Y-95616366D03*
X220360000Y-63680000D03*
X141710000Y-95510000D03*
X141630000Y-88350000D03*
X190360000Y-135680000D03*
X180440000Y-119020000D03*
X184800000Y-125900000D03*
X186000000Y-124750000D03*
X189430000Y-123380000D03*
X182390000Y-115730000D03*
X186810000Y-107880000D03*
X193850000Y-113970000D03*
X190500000Y-112210000D03*
X186070000Y-106150000D03*
X166660000Y-95810000D03*
X153980000Y-100000000D03*
X173700000Y-52080000D03*
X197820000Y-55940000D03*
X212872320Y-74391520D03*
X212880000Y-71150000D03*
X148820000Y-89030000D03*
X147000000Y-102070000D03*
X146520000Y-110390000D03*
X150400000Y-101090000D03*
X152144730Y-99075240D03*
X146369588Y-104077601D03*
X152510490Y-92845889D03*
X148638318Y-106594474D03*
X159152789Y-96484734D03*
X162245511Y-96416804D03*
X157701148Y-113228345D03*
X152064996Y-113159611D03*
X157473841Y-95300054D03*
X160780726Y-95029111D03*
X161159310Y-99980335D03*
X156880000Y-99590000D03*
X143889241Y-90884508D03*
X160136603Y-88023411D03*
X158360125Y-88063785D03*
X146470000Y-90630000D03*
X163504878Y-133786880D03*
X153804146Y-90814859D03*
X160257727Y-90970751D03*
X157560000Y-141110000D03*
X157266457Y-121096627D03*
X159550000Y-123380000D03*
X152400000Y-101660959D03*
X151390000Y-105391385D03*
X152840000Y-124340000D03*
X156700000Y-127560000D03*
X159707580Y-124899420D03*
X155127962Y-107083859D03*
X156659580Y-104150158D03*
X156220000Y-121870000D03*
X153627882Y-106287892D03*
X155539440Y-103052880D03*
X157970000Y-125990000D03*
X154850000Y-122840000D03*
X163600000Y-57180000D03*
X171180000Y-55840000D03*
X154250000Y-65410000D03*
X152030000Y-65480000D03*
X137660000Y-91710000D03*
X138710000Y-92760000D03*
X174155100Y-55046880D03*
X174180000Y-57270000D03*
X155460000Y-64270000D03*
X152000000Y-64340000D03*
X136320000Y-92840000D03*
X137520000Y-94060000D03*
X163941582Y-119545023D03*
X148030000Y-86930000D03*
X170610000Y-120340000D03*
X183430000Y-121770000D03*
X145846421Y-69935165D03*
X147655239Y-92483652D03*
X147680000Y-89930000D03*
X146430000Y-63660000D03*
X133390000Y-90970000D03*
X129980000Y-93040000D03*
X179430000Y-134950000D03*
X175520000Y-130980000D03*
X136610000Y-95110000D03*
X135330000Y-93840000D03*
X179140000Y-126010000D03*
X180560000Y-123760000D03*
X180450000Y-122380000D03*
X181400000Y-126970000D03*
X135640000Y-95870000D03*
X134390000Y-94640000D03*
X150906480Y-102900482D03*
X151033993Y-114809217D03*
X149510000Y-111600000D03*
X131810000Y-111720000D03*
X184240000Y-123990000D03*
X170610000Y-121650000D03*
X164220000Y-121650000D03*
X150460886Y-106209778D03*
D19*
X212880000Y-74383840D02*
X212872320Y-74391520D01*
X212880000Y-71150000D02*
X212880000Y-74383840D01*
X147000000Y-102070000D02*
X148820000Y-100250000D01*
X148820000Y-100250000D02*
X148820000Y-89030000D01*
X147689016Y-109220984D02*
X146520000Y-110390000D01*
X147689016Y-103800984D02*
X147689016Y-109220984D01*
X150400000Y-101090000D02*
X147689016Y-103800984D01*
X151371949Y-99075240D02*
X152144730Y-99075240D01*
X146369588Y-104077601D02*
X151371949Y-99075240D01*
X148638318Y-106594474D02*
X148638318Y-103856244D01*
X148638318Y-103856244D02*
X154888561Y-97606001D01*
X154888561Y-97606001D02*
X154888561Y-96993559D01*
X154314521Y-96419519D02*
X154314521Y-94649920D01*
X154888561Y-96993559D02*
X154314521Y-96419519D01*
X154314521Y-94649920D02*
X152910489Y-93245888D01*
X152910489Y-93245888D02*
X152510490Y-92845889D01*
X162245511Y-96416804D02*
X159220719Y-96416804D01*
X159220719Y-96416804D02*
X159152789Y-96484734D01*
X157632414Y-113159611D02*
X157701148Y-113228345D01*
X152064996Y-113159611D02*
X157632414Y-113159611D01*
X160780726Y-95029111D02*
X157744784Y-95029111D01*
X157744784Y-95029111D02*
X157473841Y-95300054D01*
X160768975Y-99590000D02*
X160859311Y-99680336D01*
X156880000Y-99590000D02*
X160768975Y-99590000D01*
X160859311Y-99680336D02*
X161159310Y-99980335D01*
X144143749Y-90630000D02*
X143889241Y-90884508D01*
X146470000Y-90630000D02*
X144143749Y-90630000D01*
X160096229Y-88063785D02*
X160136603Y-88023411D01*
X158360125Y-88063785D02*
X160096229Y-88063785D01*
X157560000Y-141110000D02*
X157560000Y-139731758D01*
X163204879Y-134086879D02*
X163504878Y-133786880D01*
X157560000Y-139731758D02*
X163204879Y-134086879D01*
X153960038Y-90970751D02*
X153804146Y-90814859D01*
X160257727Y-90970751D02*
X153960038Y-90970751D01*
X157266457Y-121096627D02*
X159549830Y-123380000D01*
X159549830Y-123380000D02*
X159550000Y-123380000D01*
X151390000Y-105391385D02*
X152400000Y-104381385D01*
X152400000Y-102085223D02*
X152400000Y-101660959D01*
X152400000Y-104381385D02*
X152400000Y-102085223D01*
X156700000Y-127560000D02*
X153480000Y-124340000D01*
X153480000Y-124340000D02*
X152840000Y-124340000D01*
X159283316Y-124899420D02*
X159707580Y-124899420D01*
X159249420Y-124899420D02*
X159283316Y-124899420D01*
X156220000Y-121870000D02*
X159249420Y-124899420D01*
X156659580Y-105552241D02*
X155427961Y-106783860D01*
X156659580Y-104150158D02*
X156659580Y-105552241D01*
X155427961Y-106783860D02*
X155127962Y-107083859D01*
X153627882Y-104964438D02*
X153627882Y-105863628D01*
X155539440Y-103052880D02*
X153627882Y-104964438D01*
X153627882Y-105863628D02*
X153627882Y-106287892D01*
X154850000Y-122840000D02*
X157970000Y-125960000D01*
X157970000Y-125960000D02*
X157970000Y-125990000D01*
X169840000Y-57180000D02*
X163600000Y-57180000D01*
X171180000Y-55840000D02*
X169840000Y-57180000D01*
X152030000Y-65480000D02*
X154180000Y-65480000D01*
X154180000Y-65480000D02*
X154250000Y-65410000D01*
X137660000Y-91710000D02*
X138710000Y-92760000D01*
X174180000Y-55071780D02*
X174155100Y-55046880D01*
X174180000Y-57270000D02*
X174180000Y-55071780D01*
X152000000Y-64340000D02*
X155390000Y-64340000D01*
X155390000Y-64340000D02*
X155460000Y-64270000D01*
X136320000Y-92840000D02*
X136320000Y-92860000D01*
X136320000Y-92860000D02*
X137520000Y-94060000D01*
X163941582Y-93480605D02*
X163941582Y-119545023D01*
X159685864Y-89224887D02*
X163941582Y-93480605D01*
X150324887Y-89224887D02*
X159685864Y-89224887D01*
X148030000Y-86930000D02*
X150324887Y-89224887D01*
X183430000Y-121770000D02*
X182000000Y-120340000D01*
X182000000Y-120340000D02*
X170610000Y-120340000D01*
X146430000Y-63660000D02*
X145846421Y-64243579D01*
X145846421Y-64243579D02*
X145846421Y-69935165D01*
X147680000Y-89930000D02*
X147680000Y-92458891D01*
X147680000Y-92458891D02*
X147655239Y-92483652D01*
X132050000Y-90970000D02*
X133390000Y-90970000D01*
X129980000Y-93040000D02*
X132050000Y-90970000D01*
X179430000Y-134890000D02*
X179430000Y-134950000D01*
X175520000Y-130980000D02*
X179430000Y-134890000D01*
X136600000Y-95110000D02*
X135330000Y-93840000D01*
X136610000Y-95110000D02*
X136600000Y-95110000D01*
X180560000Y-123760000D02*
X179140000Y-125180000D01*
X179140000Y-125180000D02*
X179140000Y-126010000D01*
X181400000Y-126970000D02*
X181400000Y-123330000D01*
X181400000Y-123330000D02*
X180450000Y-122380000D01*
X134390000Y-94640000D02*
X134410000Y-94640000D01*
X134410000Y-94640000D02*
X135640000Y-95870000D01*
X150606481Y-103200481D02*
X150906480Y-102900482D01*
X150460886Y-103346076D02*
X150606481Y-103200481D01*
X150460886Y-106209778D02*
X150460886Y-103346076D01*
X157379217Y-114809217D02*
X151033993Y-114809217D01*
X164220000Y-121650000D02*
X157379217Y-114809217D01*
X131810000Y-111720000D02*
X149390000Y-111720000D01*
X149390000Y-111720000D02*
X149510000Y-111600000D01*
X170610000Y-121650000D02*
X181900000Y-121650000D01*
X181900000Y-121650000D02*
X184240000Y-123990000D01*
M02*
