G04 #@! TF.FileFunction,Copper,L3,Inr,Plane*
%FSLAX46Y46*%
G04 Gerber Fmt 4.6, Leading zero omitted, Abs format (unit mm)*
G04 Created by KiCad (PCBNEW 4.0.6) date Monday, 03 July 2017 'AMt' 09:42:41*
%MOMM*%
%LPD*%
G01*
G04 APERTURE LIST*
%ADD10C,0.100000*%
%ADD11C,2.200000*%
%ADD12C,2.000000*%
%ADD13R,1.727200X1.727200*%
%ADD14O,1.727200X1.727200*%
%ADD15R,1.700000X1.700000*%
%ADD16O,1.700000X1.700000*%
%ADD17C,0.600000*%
%ADD18C,0.800000*%
%ADD19C,0.250000*%
%ADD20C,0.254000*%
G04 APERTURE END LIST*
D10*
D11*
X216970000Y-140120000D03*
X216970000Y-135040000D03*
X222050000Y-135040000D03*
X222050000Y-140120000D03*
D12*
X219510000Y-137580000D03*
D13*
X218650000Y-66250000D03*
D14*
X221190000Y-66250000D03*
X218650000Y-68790000D03*
X221190000Y-68790000D03*
X218650000Y-71330000D03*
X221190000Y-71330000D03*
D15*
X153075000Y-52350000D03*
X136350000Y-137575000D03*
D16*
X136350000Y-135035000D03*
X138890000Y-137575000D03*
X138890000Y-135035000D03*
X141430000Y-137575000D03*
X141430000Y-135035000D03*
X143970000Y-137575000D03*
X143970000Y-135035000D03*
X146510000Y-137575000D03*
X146510000Y-135035000D03*
X149050000Y-137575000D03*
X149050000Y-135035000D03*
X151590000Y-137575000D03*
X151590000Y-135035000D03*
X154130000Y-137575000D03*
X154130000Y-135035000D03*
D15*
X165925000Y-51325000D03*
D16*
X168465000Y-51325000D03*
X165925000Y-53865000D03*
X168465000Y-53865000D03*
D15*
X135400000Y-52350000D03*
D16*
X137940000Y-52350000D03*
X140480000Y-52350000D03*
X143020000Y-52350000D03*
X145560000Y-52350000D03*
D15*
X174150000Y-136350000D03*
D16*
X171610000Y-136350000D03*
X169070000Y-136350000D03*
X166530000Y-136350000D03*
X163990000Y-136350000D03*
D17*
X185925000Y-117450000D03*
X185925000Y-118550000D03*
X185925000Y-119650000D03*
X187025000Y-117450000D03*
X187025000Y-118550000D03*
X187025000Y-119650000D03*
X188125000Y-117450000D03*
X188125000Y-118550000D03*
X188125000Y-119650000D03*
D15*
X198070000Y-52630000D03*
D16*
X200610000Y-52630000D03*
D18*
X142255240Y-97505520D03*
X153568400Y-97246440D03*
X154996656Y-95994288D03*
X220330000Y-74120000D03*
X135340000Y-55150000D03*
X177230000Y-119240000D03*
X145340000Y-108630000D03*
X135900000Y-104780000D03*
X139640000Y-104220000D03*
X142350000Y-109800000D03*
X139990000Y-91860000D03*
X143160000Y-72870000D03*
X136320000Y-68030000D03*
X183180000Y-127060000D03*
X177200000Y-123830000D03*
X176670000Y-114800000D03*
X189890000Y-110470000D03*
X175520000Y-95550000D03*
X175740000Y-97790000D03*
X177440000Y-100820000D03*
X168050000Y-102760000D03*
X168710000Y-99540000D03*
X175650000Y-51840000D03*
X170750000Y-53120000D03*
X185930000Y-49640000D03*
X200610000Y-55960000D03*
X204660000Y-134060000D03*
X199670000Y-137950000D03*
X190660000Y-138140000D03*
X191340000Y-127410000D03*
X196630000Y-122640000D03*
X187370000Y-129970000D03*
X184120000Y-132380000D03*
X182110000Y-103430000D03*
X184070000Y-103990000D03*
X188320000Y-103430000D03*
X198990000Y-111540000D03*
X194070000Y-108630000D03*
X199600000Y-106120000D03*
X203910000Y-106170000D03*
X174412500Y-109387500D03*
X152978721Y-95616366D03*
X220360000Y-63680000D03*
X141710000Y-95510000D03*
X141630000Y-88350000D03*
X190360000Y-135680000D03*
X180440000Y-119020000D03*
X184800000Y-125900000D03*
X186000000Y-124750000D03*
X189430000Y-123380000D03*
X182390000Y-115730000D03*
X186810000Y-107880000D03*
X193850000Y-113970000D03*
X190500000Y-112210000D03*
X186070000Y-106150000D03*
X166660000Y-95810000D03*
X153980000Y-100000000D03*
X173700000Y-52080000D03*
X197820000Y-55940000D03*
X212872320Y-74391520D03*
X212880000Y-71150000D03*
X148820000Y-89030000D03*
X147000000Y-102070000D03*
X146520000Y-110390000D03*
X150400000Y-101090000D03*
X152144730Y-99075240D03*
X146369588Y-104077601D03*
X152510490Y-92845889D03*
X148638318Y-106594474D03*
X159152789Y-96484734D03*
X162245511Y-96416804D03*
X157701148Y-113228345D03*
X152064996Y-113159611D03*
X157473841Y-95300054D03*
X160780726Y-95029111D03*
X161159310Y-99980335D03*
X156880000Y-99590000D03*
X143889241Y-90884508D03*
X160136603Y-88023411D03*
X158360125Y-88063785D03*
X146470000Y-90630000D03*
X163504878Y-133786880D03*
X153804146Y-90814859D03*
X160257727Y-90970751D03*
X157560000Y-141110000D03*
X157266457Y-121096627D03*
X159550000Y-123380000D03*
X152400000Y-101660959D03*
X151390000Y-105391385D03*
X152840000Y-124340000D03*
X156700000Y-127560000D03*
X159707580Y-124899420D03*
X155127962Y-107083859D03*
X156659580Y-104150158D03*
X156220000Y-121870000D03*
X153627882Y-106287892D03*
X155539440Y-103052880D03*
X157970000Y-125990000D03*
X154850000Y-122840000D03*
X163600000Y-57180000D03*
X171180000Y-55840000D03*
X154250000Y-65410000D03*
X152030000Y-65480000D03*
X137660000Y-91710000D03*
X138710000Y-92760000D03*
X174155100Y-55046880D03*
X174180000Y-57270000D03*
X155460000Y-64270000D03*
X152000000Y-64340000D03*
X136320000Y-92840000D03*
X137520000Y-94060000D03*
X163941582Y-119545023D03*
X148030000Y-86930000D03*
X170610000Y-120340000D03*
X183430000Y-121770000D03*
X145846421Y-69935165D03*
X147655239Y-92483652D03*
X147680000Y-89930000D03*
X146430000Y-63660000D03*
X133390000Y-90970000D03*
X129980000Y-93040000D03*
X179430000Y-134950000D03*
X175520000Y-130980000D03*
X136610000Y-95110000D03*
X135330000Y-93840000D03*
X179140000Y-126010000D03*
X180560000Y-123760000D03*
X180450000Y-122380000D03*
X181400000Y-126970000D03*
X135640000Y-95870000D03*
X134390000Y-94640000D03*
X150906480Y-102900482D03*
X151033993Y-114809217D03*
X149510000Y-111600000D03*
X131810000Y-111720000D03*
X184240000Y-123990000D03*
X170610000Y-121650000D03*
X164220000Y-121650000D03*
X150460886Y-106209778D03*
D19*
X182390000Y-115730000D02*
X182390000Y-115780000D01*
D20*
G36*
X225813000Y-47876868D02*
X225813000Y-143883026D01*
X129786947Y-143902974D01*
X129785874Y-141314971D01*
X156524821Y-141314971D01*
X156682058Y-141695515D01*
X156972954Y-141986919D01*
X157353223Y-142144820D01*
X157764971Y-142145179D01*
X158145515Y-141987942D01*
X158436919Y-141697046D01*
X158594820Y-141316777D01*
X158595179Y-140905029D01*
X158437942Y-140524485D01*
X158377163Y-140463599D01*
X215234699Y-140463599D01*
X215498281Y-141101515D01*
X215985918Y-141590004D01*
X216623373Y-141854699D01*
X217313599Y-141855301D01*
X217951515Y-141591719D01*
X218440004Y-141104082D01*
X218704699Y-140466627D01*
X218704701Y-140463599D01*
X220314699Y-140463599D01*
X220578281Y-141101515D01*
X221065918Y-141590004D01*
X221703373Y-141854699D01*
X222393599Y-141855301D01*
X223031515Y-141591719D01*
X223520004Y-141104082D01*
X223784699Y-140466627D01*
X223785301Y-139776401D01*
X223521719Y-139138485D01*
X223034082Y-138649996D01*
X222396627Y-138385301D01*
X221706401Y-138384699D01*
X221068485Y-138648281D01*
X220579996Y-139135918D01*
X220315301Y-139773373D01*
X220314699Y-140463599D01*
X218704701Y-140463599D01*
X218705301Y-139776401D01*
X218441719Y-139138485D01*
X217954082Y-138649996D01*
X217316627Y-138385301D01*
X216626401Y-138384699D01*
X215988485Y-138648281D01*
X215499996Y-139135918D01*
X215235301Y-139773373D01*
X215234699Y-140463599D01*
X158377163Y-140463599D01*
X158147046Y-140233081D01*
X157766777Y-140075180D01*
X157355029Y-140074821D01*
X156974485Y-140232058D01*
X156683081Y-140522954D01*
X156525180Y-140903223D01*
X156524821Y-141314971D01*
X129785874Y-141314971D01*
X129783969Y-136725000D01*
X134852560Y-136725000D01*
X134852560Y-138425000D01*
X134896838Y-138660317D01*
X135035910Y-138876441D01*
X135248110Y-139021431D01*
X135500000Y-139072440D01*
X137200000Y-139072440D01*
X137435317Y-139028162D01*
X137651441Y-138889090D01*
X137796431Y-138676890D01*
X137810086Y-138609459D01*
X137839946Y-138654147D01*
X138321715Y-138976054D01*
X138890000Y-139089093D01*
X139458285Y-138976054D01*
X139940054Y-138654147D01*
X140160000Y-138324974D01*
X140379946Y-138654147D01*
X140861715Y-138976054D01*
X141430000Y-139089093D01*
X141998285Y-138976054D01*
X142480054Y-138654147D01*
X142700000Y-138324974D01*
X142919946Y-138654147D01*
X143401715Y-138976054D01*
X143970000Y-139089093D01*
X144538285Y-138976054D01*
X145020054Y-138654147D01*
X145240000Y-138324974D01*
X145459946Y-138654147D01*
X145941715Y-138976054D01*
X146510000Y-139089093D01*
X147078285Y-138976054D01*
X147560054Y-138654147D01*
X147780000Y-138324974D01*
X147999946Y-138654147D01*
X148481715Y-138976054D01*
X149050000Y-139089093D01*
X149618285Y-138976054D01*
X150100054Y-138654147D01*
X150320000Y-138324974D01*
X150539946Y-138654147D01*
X151021715Y-138976054D01*
X151590000Y-139089093D01*
X152158285Y-138976054D01*
X152640054Y-138654147D01*
X152860000Y-138324974D01*
X153079946Y-138654147D01*
X153561715Y-138976054D01*
X154130000Y-139089093D01*
X154698285Y-138976054D01*
X155180054Y-138654147D01*
X155386638Y-138344971D01*
X189624821Y-138344971D01*
X189782058Y-138725515D01*
X190072954Y-139016919D01*
X190453223Y-139174820D01*
X190864971Y-139175179D01*
X191245515Y-139017942D01*
X191536919Y-138727046D01*
X191694820Y-138346777D01*
X191694987Y-138154971D01*
X198634821Y-138154971D01*
X198792058Y-138535515D01*
X199082954Y-138826919D01*
X199463223Y-138984820D01*
X199874971Y-138985179D01*
X200255515Y-138827942D01*
X200546919Y-138537046D01*
X200704820Y-138156777D01*
X200705040Y-137903795D01*
X217874716Y-137903795D01*
X218123106Y-138504943D01*
X218582637Y-138965278D01*
X219183352Y-139214716D01*
X219833795Y-139215284D01*
X220434943Y-138966894D01*
X220895278Y-138507363D01*
X221144716Y-137906648D01*
X221145284Y-137256205D01*
X220896894Y-136655057D01*
X220437363Y-136194722D01*
X219836648Y-135945284D01*
X219186205Y-135944716D01*
X218585057Y-136193106D01*
X218124722Y-136652637D01*
X217875284Y-137253352D01*
X217874716Y-137903795D01*
X200705040Y-137903795D01*
X200705179Y-137745029D01*
X200547942Y-137364485D01*
X200257046Y-137073081D01*
X199876777Y-136915180D01*
X199465029Y-136914821D01*
X199084485Y-137072058D01*
X198793081Y-137362954D01*
X198635180Y-137743223D01*
X198634821Y-138154971D01*
X191694987Y-138154971D01*
X191695179Y-137935029D01*
X191537942Y-137554485D01*
X191247046Y-137263081D01*
X190866777Y-137105180D01*
X190455029Y-137104821D01*
X190074485Y-137262058D01*
X189783081Y-137552954D01*
X189625180Y-137933223D01*
X189624821Y-138344971D01*
X155386638Y-138344971D01*
X155501961Y-138172378D01*
X155615000Y-137604093D01*
X155615000Y-137545907D01*
X155501961Y-136977622D01*
X155180054Y-136495853D01*
X154918229Y-136320907D01*
X162505000Y-136320907D01*
X162505000Y-136379093D01*
X162618039Y-136947378D01*
X162939946Y-137429147D01*
X163421715Y-137751054D01*
X163990000Y-137864093D01*
X164558285Y-137751054D01*
X165040054Y-137429147D01*
X165260000Y-137099974D01*
X165479946Y-137429147D01*
X165961715Y-137751054D01*
X166530000Y-137864093D01*
X167098285Y-137751054D01*
X167580054Y-137429147D01*
X167800000Y-137099974D01*
X168019946Y-137429147D01*
X168501715Y-137751054D01*
X169070000Y-137864093D01*
X169638285Y-137751054D01*
X170120054Y-137429147D01*
X170340000Y-137099974D01*
X170559946Y-137429147D01*
X171041715Y-137751054D01*
X171610000Y-137864093D01*
X172178285Y-137751054D01*
X172660054Y-137429147D01*
X172687850Y-137387548D01*
X172696838Y-137435317D01*
X172835910Y-137651441D01*
X173048110Y-137796431D01*
X173300000Y-137847440D01*
X175000000Y-137847440D01*
X175235317Y-137803162D01*
X175451441Y-137664090D01*
X175596431Y-137451890D01*
X175647440Y-137200000D01*
X175647440Y-135500000D01*
X175603162Y-135264683D01*
X175532565Y-135154971D01*
X178394821Y-135154971D01*
X178552058Y-135535515D01*
X178842954Y-135826919D01*
X179223223Y-135984820D01*
X179634971Y-135985179D01*
X180015515Y-135827942D01*
X180306919Y-135537046D01*
X180370635Y-135383599D01*
X215234699Y-135383599D01*
X215498281Y-136021515D01*
X215985918Y-136510004D01*
X216623373Y-136774699D01*
X217313599Y-136775301D01*
X217951515Y-136511719D01*
X218440004Y-136024082D01*
X218704699Y-135386627D01*
X218704701Y-135383599D01*
X220314699Y-135383599D01*
X220578281Y-136021515D01*
X221065918Y-136510004D01*
X221703373Y-136774699D01*
X222393599Y-136775301D01*
X223031515Y-136511719D01*
X223520004Y-136024082D01*
X223784699Y-135386627D01*
X223785301Y-134696401D01*
X223521719Y-134058485D01*
X223034082Y-133569996D01*
X222396627Y-133305301D01*
X221706401Y-133304699D01*
X221068485Y-133568281D01*
X220579996Y-134055918D01*
X220315301Y-134693373D01*
X220314699Y-135383599D01*
X218704701Y-135383599D01*
X218705301Y-134696401D01*
X218441719Y-134058485D01*
X217954082Y-133569996D01*
X217316627Y-133305301D01*
X216626401Y-133304699D01*
X215988485Y-133568281D01*
X215499996Y-134055918D01*
X215235301Y-134693373D01*
X215234699Y-135383599D01*
X180370635Y-135383599D01*
X180464820Y-135156777D01*
X180465179Y-134745029D01*
X180307942Y-134364485D01*
X180208602Y-134264971D01*
X203624821Y-134264971D01*
X203782058Y-134645515D01*
X204072954Y-134936919D01*
X204453223Y-135094820D01*
X204864971Y-135095179D01*
X205245515Y-134937942D01*
X205536919Y-134647046D01*
X205694820Y-134266777D01*
X205695179Y-133855029D01*
X205537942Y-133474485D01*
X205247046Y-133183081D01*
X204866777Y-133025180D01*
X204455029Y-133024821D01*
X204074485Y-133182058D01*
X203783081Y-133472954D01*
X203625180Y-133853223D01*
X203624821Y-134264971D01*
X180208602Y-134264971D01*
X180017046Y-134073081D01*
X179636777Y-133915180D01*
X179225029Y-133914821D01*
X178844485Y-134072058D01*
X178553081Y-134362954D01*
X178395180Y-134743223D01*
X178394821Y-135154971D01*
X175532565Y-135154971D01*
X175464090Y-135048559D01*
X175251890Y-134903569D01*
X175000000Y-134852560D01*
X173300000Y-134852560D01*
X173064683Y-134896838D01*
X172848559Y-135035910D01*
X172703569Y-135248110D01*
X172689914Y-135315541D01*
X172660054Y-135270853D01*
X172178285Y-134948946D01*
X171610000Y-134835907D01*
X171041715Y-134948946D01*
X170559946Y-135270853D01*
X170340000Y-135600026D01*
X170120054Y-135270853D01*
X169638285Y-134948946D01*
X169070000Y-134835907D01*
X168501715Y-134948946D01*
X168019946Y-135270853D01*
X167800000Y-135600026D01*
X167580054Y-135270853D01*
X167098285Y-134948946D01*
X166530000Y-134835907D01*
X165961715Y-134948946D01*
X165479946Y-135270853D01*
X165260000Y-135600026D01*
X165040054Y-135270853D01*
X164558285Y-134948946D01*
X163990000Y-134835907D01*
X163421715Y-134948946D01*
X162939946Y-135270853D01*
X162618039Y-135752622D01*
X162505000Y-136320907D01*
X154918229Y-136320907D01*
X154894422Y-136305000D01*
X155180054Y-136114147D01*
X155501961Y-135632378D01*
X155615000Y-135064093D01*
X155615000Y-135005907D01*
X155501961Y-134437622D01*
X155204108Y-133991851D01*
X162469699Y-133991851D01*
X162626936Y-134372395D01*
X162917832Y-134663799D01*
X163298101Y-134821700D01*
X163709849Y-134822059D01*
X164090393Y-134664822D01*
X164381797Y-134373926D01*
X164539698Y-133993657D01*
X164540057Y-133581909D01*
X164382820Y-133201365D01*
X164091924Y-132909961D01*
X163711655Y-132752060D01*
X163299907Y-132751701D01*
X162919363Y-132908938D01*
X162627959Y-133199834D01*
X162470058Y-133580103D01*
X162469699Y-133991851D01*
X155204108Y-133991851D01*
X155180054Y-133955853D01*
X154698285Y-133633946D01*
X154130000Y-133520907D01*
X153561715Y-133633946D01*
X153079946Y-133955853D01*
X152860000Y-134285026D01*
X152640054Y-133955853D01*
X152158285Y-133633946D01*
X151590000Y-133520907D01*
X151021715Y-133633946D01*
X150539946Y-133955853D01*
X150320000Y-134285026D01*
X150100054Y-133955853D01*
X149618285Y-133633946D01*
X149050000Y-133520907D01*
X148481715Y-133633946D01*
X147999946Y-133955853D01*
X147780000Y-134285026D01*
X147560054Y-133955853D01*
X147078285Y-133633946D01*
X146510000Y-133520907D01*
X145941715Y-133633946D01*
X145459946Y-133955853D01*
X145240000Y-134285026D01*
X145020054Y-133955853D01*
X144538285Y-133633946D01*
X143970000Y-133520907D01*
X143401715Y-133633946D01*
X142919946Y-133955853D01*
X142700000Y-134285026D01*
X142480054Y-133955853D01*
X141998285Y-133633946D01*
X141430000Y-133520907D01*
X140861715Y-133633946D01*
X140379946Y-133955853D01*
X140160000Y-134285026D01*
X139940054Y-133955853D01*
X139458285Y-133633946D01*
X138890000Y-133520907D01*
X138321715Y-133633946D01*
X137839946Y-133955853D01*
X137620000Y-134285026D01*
X137400054Y-133955853D01*
X136918285Y-133633946D01*
X136350000Y-133520907D01*
X135781715Y-133633946D01*
X135299946Y-133955853D01*
X134978039Y-134437622D01*
X134865000Y-135005907D01*
X134865000Y-135064093D01*
X134978039Y-135632378D01*
X135299946Y-136114147D01*
X135301179Y-136114971D01*
X135264683Y-136121838D01*
X135048559Y-136260910D01*
X134903569Y-136473110D01*
X134852560Y-136725000D01*
X129783969Y-136725000D01*
X129782252Y-132584971D01*
X183084821Y-132584971D01*
X183242058Y-132965515D01*
X183532954Y-133256919D01*
X183913223Y-133414820D01*
X184324971Y-133415179D01*
X184705515Y-133257942D01*
X184996919Y-132967046D01*
X185154820Y-132586777D01*
X185155179Y-132175029D01*
X184997942Y-131794485D01*
X184707046Y-131503081D01*
X184326777Y-131345180D01*
X183915029Y-131344821D01*
X183534485Y-131502058D01*
X183243081Y-131792954D01*
X183085180Y-132173223D01*
X183084821Y-132584971D01*
X129782252Y-132584971D01*
X129781671Y-131184971D01*
X174484821Y-131184971D01*
X174642058Y-131565515D01*
X174932954Y-131856919D01*
X175313223Y-132014820D01*
X175724971Y-132015179D01*
X176105515Y-131857942D01*
X176396919Y-131567046D01*
X176554820Y-131186777D01*
X176555179Y-130775029D01*
X176397942Y-130394485D01*
X176178811Y-130174971D01*
X186334821Y-130174971D01*
X186492058Y-130555515D01*
X186782954Y-130846919D01*
X187163223Y-131004820D01*
X187574971Y-131005179D01*
X187955515Y-130847942D01*
X188246919Y-130557046D01*
X188404820Y-130176777D01*
X188405179Y-129765029D01*
X188247942Y-129384485D01*
X187957046Y-129093081D01*
X187576777Y-128935180D01*
X187165029Y-128934821D01*
X186784485Y-129092058D01*
X186493081Y-129382954D01*
X186335180Y-129763223D01*
X186334821Y-130174971D01*
X176178811Y-130174971D01*
X176107046Y-130103081D01*
X175726777Y-129945180D01*
X175315029Y-129944821D01*
X174934485Y-130102058D01*
X174643081Y-130392954D01*
X174485180Y-130773223D01*
X174484821Y-131184971D01*
X129781671Y-131184971D01*
X129780252Y-127764971D01*
X155664821Y-127764971D01*
X155822058Y-128145515D01*
X156112954Y-128436919D01*
X156493223Y-128594820D01*
X156904971Y-128595179D01*
X157285515Y-128437942D01*
X157576919Y-128147046D01*
X157734820Y-127766777D01*
X157735179Y-127355029D01*
X157660781Y-127174971D01*
X180364821Y-127174971D01*
X180522058Y-127555515D01*
X180812954Y-127846919D01*
X181193223Y-128004820D01*
X181604971Y-128005179D01*
X181985515Y-127847942D01*
X182268837Y-127565114D01*
X182302058Y-127645515D01*
X182592954Y-127936919D01*
X182973223Y-128094820D01*
X183384971Y-128095179D01*
X183765515Y-127937942D01*
X184056919Y-127647046D01*
X184070237Y-127614971D01*
X190304821Y-127614971D01*
X190462058Y-127995515D01*
X190752954Y-128286919D01*
X191133223Y-128444820D01*
X191544971Y-128445179D01*
X191925515Y-128287942D01*
X192216919Y-127997046D01*
X192374820Y-127616777D01*
X192375179Y-127205029D01*
X192217942Y-126824485D01*
X191927046Y-126533081D01*
X191546777Y-126375180D01*
X191135029Y-126374821D01*
X190754485Y-126532058D01*
X190463081Y-126822954D01*
X190305180Y-127203223D01*
X190304821Y-127614971D01*
X184070237Y-127614971D01*
X184214820Y-127266777D01*
X184215179Y-126855029D01*
X184057942Y-126474485D01*
X183767046Y-126183081D01*
X183386777Y-126025180D01*
X182975029Y-126024821D01*
X182594485Y-126182058D01*
X182311163Y-126464886D01*
X182277942Y-126384485D01*
X181987046Y-126093081D01*
X181606777Y-125935180D01*
X181195029Y-125934821D01*
X180814485Y-126092058D01*
X180523081Y-126382954D01*
X180365180Y-126763223D01*
X180364821Y-127174971D01*
X157660781Y-127174971D01*
X157577942Y-126974485D01*
X157532589Y-126929053D01*
X157763223Y-127024820D01*
X158174971Y-127025179D01*
X158555515Y-126867942D01*
X158846919Y-126577046D01*
X158997265Y-126214971D01*
X178104821Y-126214971D01*
X178262058Y-126595515D01*
X178552954Y-126886919D01*
X178933223Y-127044820D01*
X179344971Y-127045179D01*
X179725515Y-126887942D01*
X180016919Y-126597046D01*
X180174820Y-126216777D01*
X180175179Y-125805029D01*
X180017942Y-125424485D01*
X179727046Y-125133081D01*
X179346777Y-124975180D01*
X178935029Y-124974821D01*
X178554485Y-125132058D01*
X178263081Y-125422954D01*
X178105180Y-125803223D01*
X178104821Y-126214971D01*
X158997265Y-126214971D01*
X159004820Y-126196777D01*
X159005179Y-125785029D01*
X158917586Y-125573036D01*
X159120534Y-125776339D01*
X159500803Y-125934240D01*
X159912551Y-125934599D01*
X160293095Y-125777362D01*
X160584499Y-125486466D01*
X160742400Y-125106197D01*
X160742759Y-124694449D01*
X160585522Y-124313905D01*
X160332930Y-124060872D01*
X160358875Y-124034971D01*
X176164821Y-124034971D01*
X176322058Y-124415515D01*
X176612954Y-124706919D01*
X176993223Y-124864820D01*
X177404971Y-124865179D01*
X177785515Y-124707942D01*
X178076919Y-124417046D01*
X178234820Y-124036777D01*
X178235179Y-123625029D01*
X178077942Y-123244485D01*
X177787046Y-122953081D01*
X177406777Y-122795180D01*
X176995029Y-122794821D01*
X176614485Y-122952058D01*
X176323081Y-123242954D01*
X176165180Y-123623223D01*
X176164821Y-124034971D01*
X160358875Y-124034971D01*
X160426919Y-123967046D01*
X160584820Y-123586777D01*
X160585179Y-123175029D01*
X160427942Y-122794485D01*
X160137046Y-122503081D01*
X159756777Y-122345180D01*
X159345029Y-122344821D01*
X158964485Y-122502058D01*
X158673081Y-122792954D01*
X158515180Y-123173223D01*
X158514821Y-123584971D01*
X158672058Y-123965515D01*
X158924650Y-124218548D01*
X158830661Y-124312374D01*
X158672760Y-124692643D01*
X158672401Y-125104391D01*
X158759994Y-125316384D01*
X158557046Y-125113081D01*
X158176777Y-124955180D01*
X157765029Y-124954821D01*
X157384485Y-125112058D01*
X157093081Y-125402954D01*
X156935180Y-125783223D01*
X156934821Y-126194971D01*
X157092058Y-126575515D01*
X157137411Y-126620947D01*
X156906777Y-126525180D01*
X156495029Y-126524821D01*
X156114485Y-126682058D01*
X155823081Y-126972954D01*
X155665180Y-127353223D01*
X155664821Y-127764971D01*
X129780252Y-127764971D01*
X129778915Y-124544971D01*
X151804821Y-124544971D01*
X151962058Y-124925515D01*
X152252954Y-125216919D01*
X152633223Y-125374820D01*
X153044971Y-125375179D01*
X153425515Y-125217942D01*
X153716919Y-124927046D01*
X153874820Y-124546777D01*
X153875179Y-124135029D01*
X153717942Y-123754485D01*
X153427046Y-123463081D01*
X153046777Y-123305180D01*
X152635029Y-123304821D01*
X152254485Y-123462058D01*
X151963081Y-123752954D01*
X151805180Y-124133223D01*
X151804821Y-124544971D01*
X129778915Y-124544971D01*
X129778293Y-123044971D01*
X153814821Y-123044971D01*
X153972058Y-123425515D01*
X154262954Y-123716919D01*
X154643223Y-123874820D01*
X155054971Y-123875179D01*
X155435515Y-123717942D01*
X155726919Y-123427046D01*
X155884820Y-123046777D01*
X155884990Y-122851573D01*
X156013223Y-122904820D01*
X156424971Y-122905179D01*
X156805515Y-122747942D01*
X157096919Y-122457046D01*
X157232057Y-122131597D01*
X157471428Y-122131806D01*
X157851972Y-121974569D01*
X157971778Y-121854971D01*
X163184821Y-121854971D01*
X163342058Y-122235515D01*
X163632954Y-122526919D01*
X164013223Y-122684820D01*
X164424971Y-122685179D01*
X164805515Y-122527942D01*
X165096919Y-122237046D01*
X165254820Y-121856777D01*
X165255179Y-121445029D01*
X165097942Y-121064485D01*
X164807046Y-120773081D01*
X164426777Y-120615180D01*
X164015029Y-120614821D01*
X163634485Y-120772058D01*
X163343081Y-121062954D01*
X163185180Y-121443223D01*
X163184821Y-121854971D01*
X157971778Y-121854971D01*
X158143376Y-121683673D01*
X158301277Y-121303404D01*
X158301636Y-120891656D01*
X158144399Y-120511112D01*
X157853503Y-120219708D01*
X157473234Y-120061807D01*
X157061486Y-120061448D01*
X156680942Y-120218685D01*
X156389538Y-120509581D01*
X156254400Y-120835030D01*
X156015029Y-120834821D01*
X155634485Y-120992058D01*
X155343081Y-121282954D01*
X155185180Y-121663223D01*
X155185010Y-121858427D01*
X155056777Y-121805180D01*
X154645029Y-121804821D01*
X154264485Y-121962058D01*
X153973081Y-122252954D01*
X153815180Y-122633223D01*
X153814821Y-123044971D01*
X129778293Y-123044971D01*
X129776926Y-119749994D01*
X162906403Y-119749994D01*
X163063640Y-120130538D01*
X163354536Y-120421942D01*
X163734805Y-120579843D01*
X164146553Y-120580202D01*
X164231818Y-120544971D01*
X169574821Y-120544971D01*
X169732058Y-120925515D01*
X169801288Y-120994866D01*
X169733081Y-121062954D01*
X169575180Y-121443223D01*
X169574821Y-121854971D01*
X169732058Y-122235515D01*
X170022954Y-122526919D01*
X170403223Y-122684820D01*
X170814971Y-122685179D01*
X171057493Y-122584971D01*
X179414821Y-122584971D01*
X179572058Y-122965515D01*
X179731192Y-123124927D01*
X179683081Y-123172954D01*
X179525180Y-123553223D01*
X179524821Y-123964971D01*
X179682058Y-124345515D01*
X179972954Y-124636919D01*
X180353223Y-124794820D01*
X180764971Y-124795179D01*
X181145515Y-124637942D01*
X181436919Y-124347046D01*
X181500065Y-124194971D01*
X183204821Y-124194971D01*
X183362058Y-124575515D01*
X183652954Y-124866919D01*
X184033223Y-125024820D01*
X184444971Y-125025179D01*
X184825515Y-124867942D01*
X185116919Y-124577046D01*
X185274820Y-124196777D01*
X185275179Y-123785029D01*
X185117942Y-123404485D01*
X184827046Y-123113081D01*
X184446777Y-122955180D01*
X184035029Y-122954821D01*
X183654485Y-123112058D01*
X183363081Y-123402954D01*
X183205180Y-123783223D01*
X183204821Y-124194971D01*
X181500065Y-124194971D01*
X181594820Y-123966777D01*
X181595179Y-123555029D01*
X181437942Y-123174485D01*
X181278808Y-123015073D01*
X181326919Y-122967046D01*
X181377608Y-122844971D01*
X195594821Y-122844971D01*
X195752058Y-123225515D01*
X196042954Y-123516919D01*
X196423223Y-123674820D01*
X196834971Y-123675179D01*
X197215515Y-123517942D01*
X197506919Y-123227046D01*
X197664820Y-122846777D01*
X197665179Y-122435029D01*
X197507942Y-122054485D01*
X197217046Y-121763081D01*
X196836777Y-121605180D01*
X196425029Y-121604821D01*
X196044485Y-121762058D01*
X195753081Y-122052954D01*
X195595180Y-122433223D01*
X195594821Y-122844971D01*
X181377608Y-122844971D01*
X181484820Y-122586777D01*
X181485179Y-122175029D01*
X181402518Y-121974971D01*
X182394821Y-121974971D01*
X182552058Y-122355515D01*
X182842954Y-122646919D01*
X183223223Y-122804820D01*
X183634971Y-122805179D01*
X184015515Y-122647942D01*
X184306919Y-122357046D01*
X184464820Y-121976777D01*
X184465179Y-121565029D01*
X184307942Y-121184485D01*
X184017046Y-120893081D01*
X183636777Y-120735180D01*
X183225029Y-120734821D01*
X182844485Y-120892058D01*
X182553081Y-121182954D01*
X182395180Y-121563223D01*
X182394821Y-121974971D01*
X181402518Y-121974971D01*
X181327942Y-121794485D01*
X181037046Y-121503081D01*
X180656777Y-121345180D01*
X180245029Y-121344821D01*
X179864485Y-121502058D01*
X179573081Y-121792954D01*
X179415180Y-122173223D01*
X179414821Y-122584971D01*
X171057493Y-122584971D01*
X171195515Y-122527942D01*
X171486919Y-122237046D01*
X171644820Y-121856777D01*
X171645179Y-121445029D01*
X171487942Y-121064485D01*
X171418712Y-120995134D01*
X171486919Y-120927046D01*
X171644820Y-120546777D01*
X171645179Y-120135029D01*
X171487942Y-119754485D01*
X171197046Y-119463081D01*
X171153433Y-119444971D01*
X176194821Y-119444971D01*
X176352058Y-119825515D01*
X176642954Y-120116919D01*
X177023223Y-120274820D01*
X177434971Y-120275179D01*
X177815515Y-120117942D01*
X178106919Y-119827046D01*
X178264820Y-119446777D01*
X178265179Y-119035029D01*
X178107942Y-118654485D01*
X177817046Y-118363081D01*
X177436777Y-118205180D01*
X177025029Y-118204821D01*
X176644485Y-118362058D01*
X176353081Y-118652954D01*
X176195180Y-119033223D01*
X176194821Y-119444971D01*
X171153433Y-119444971D01*
X170816777Y-119305180D01*
X170405029Y-119304821D01*
X170024485Y-119462058D01*
X169733081Y-119752954D01*
X169575180Y-120133223D01*
X169574821Y-120544971D01*
X164231818Y-120544971D01*
X164527097Y-120422965D01*
X164818501Y-120132069D01*
X164976402Y-119751800D01*
X164976761Y-119340052D01*
X164819524Y-118959508D01*
X164528628Y-118668104D01*
X164148359Y-118510203D01*
X163736611Y-118509844D01*
X163356067Y-118667081D01*
X163064663Y-118957977D01*
X162906762Y-119338246D01*
X162906403Y-119749994D01*
X129776926Y-119749994D01*
X129776048Y-117635167D01*
X184989838Y-117635167D01*
X185131883Y-117978943D01*
X185152710Y-117999806D01*
X185132808Y-118019673D01*
X184990162Y-118363201D01*
X184989838Y-118735167D01*
X185131883Y-119078943D01*
X185152710Y-119099806D01*
X185132808Y-119119673D01*
X184990162Y-119463201D01*
X184989838Y-119835167D01*
X185131883Y-120178943D01*
X185394673Y-120442192D01*
X185738201Y-120584838D01*
X186110167Y-120585162D01*
X186453943Y-120443117D01*
X186474806Y-120422290D01*
X186494673Y-120442192D01*
X186838201Y-120584838D01*
X187210167Y-120585162D01*
X187553943Y-120443117D01*
X187574806Y-120422290D01*
X187594673Y-120442192D01*
X187938201Y-120584838D01*
X188310167Y-120585162D01*
X188653943Y-120443117D01*
X188917192Y-120180327D01*
X189059838Y-119836799D01*
X189060162Y-119464833D01*
X188918117Y-119121057D01*
X188897290Y-119100194D01*
X188917192Y-119080327D01*
X189059838Y-118736799D01*
X189060162Y-118364833D01*
X188918117Y-118021057D01*
X188897290Y-118000194D01*
X188917192Y-117980327D01*
X189059838Y-117636799D01*
X189060162Y-117264833D01*
X188918117Y-116921057D01*
X188655327Y-116657808D01*
X188311799Y-116515162D01*
X187939833Y-116514838D01*
X187596057Y-116656883D01*
X187575194Y-116677710D01*
X187555327Y-116657808D01*
X187211799Y-116515162D01*
X186839833Y-116514838D01*
X186496057Y-116656883D01*
X186475194Y-116677710D01*
X186455327Y-116657808D01*
X186111799Y-116515162D01*
X185739833Y-116514838D01*
X185396057Y-116656883D01*
X185132808Y-116919673D01*
X184990162Y-117263201D01*
X184989838Y-117635167D01*
X129776048Y-117635167D01*
X129774959Y-115014188D01*
X149998814Y-115014188D01*
X150156051Y-115394732D01*
X150446947Y-115686136D01*
X150827216Y-115844037D01*
X151238964Y-115844396D01*
X151619508Y-115687159D01*
X151910912Y-115396263D01*
X152068813Y-115015994D01*
X152068822Y-115004971D01*
X175634821Y-115004971D01*
X175792058Y-115385515D01*
X176082954Y-115676919D01*
X176463223Y-115834820D01*
X176874971Y-115835179D01*
X177255515Y-115677942D01*
X177546919Y-115387046D01*
X177704820Y-115006777D01*
X177705179Y-114595029D01*
X177547942Y-114214485D01*
X177257046Y-113923081D01*
X176876777Y-113765180D01*
X176465029Y-113764821D01*
X176084485Y-113922058D01*
X175793081Y-114212954D01*
X175635180Y-114593223D01*
X175634821Y-115004971D01*
X152068822Y-115004971D01*
X152069172Y-114604246D01*
X151911935Y-114223702D01*
X151882736Y-114194452D01*
X152269967Y-114194790D01*
X152650511Y-114037553D01*
X152941915Y-113746657D01*
X153072025Y-113433316D01*
X156665969Y-113433316D01*
X156823206Y-113813860D01*
X157114102Y-114105264D01*
X157494371Y-114263165D01*
X157906119Y-114263524D01*
X158286663Y-114106287D01*
X158578067Y-113815391D01*
X158735968Y-113435122D01*
X158736327Y-113023374D01*
X158579090Y-112642830D01*
X158288194Y-112351426D01*
X157907925Y-112193525D01*
X157496177Y-112193166D01*
X157115633Y-112350403D01*
X156824229Y-112641299D01*
X156666328Y-113021568D01*
X156665969Y-113433316D01*
X153072025Y-113433316D01*
X153099816Y-113366388D01*
X153100175Y-112954640D01*
X152942938Y-112574096D01*
X152652042Y-112282692D01*
X152271773Y-112124791D01*
X151860025Y-112124432D01*
X151479481Y-112281669D01*
X151188077Y-112572565D01*
X151030176Y-112952834D01*
X151029817Y-113364582D01*
X151187054Y-113745126D01*
X151216253Y-113774376D01*
X150829022Y-113774038D01*
X150448478Y-113931275D01*
X150157074Y-114222171D01*
X149999173Y-114602440D01*
X149998814Y-115014188D01*
X129774959Y-115014188D01*
X129773676Y-111924971D01*
X130774821Y-111924971D01*
X130932058Y-112305515D01*
X131222954Y-112596919D01*
X131603223Y-112754820D01*
X132014971Y-112755179D01*
X132395515Y-112597942D01*
X132686919Y-112307046D01*
X132844820Y-111926777D01*
X132844926Y-111804971D01*
X148474821Y-111804971D01*
X148632058Y-112185515D01*
X148922954Y-112476919D01*
X149303223Y-112634820D01*
X149714971Y-112635179D01*
X150095515Y-112477942D01*
X150386919Y-112187046D01*
X150544820Y-111806777D01*
X150544873Y-111744971D01*
X197954821Y-111744971D01*
X198112058Y-112125515D01*
X198402954Y-112416919D01*
X198783223Y-112574820D01*
X199194971Y-112575179D01*
X199575515Y-112417942D01*
X199866919Y-112127046D01*
X200024820Y-111746777D01*
X200025179Y-111335029D01*
X199867942Y-110954485D01*
X199577046Y-110663081D01*
X199196777Y-110505180D01*
X198785029Y-110504821D01*
X198404485Y-110662058D01*
X198113081Y-110952954D01*
X197955180Y-111333223D01*
X197954821Y-111744971D01*
X150544873Y-111744971D01*
X150545179Y-111395029D01*
X150387942Y-111014485D01*
X150097046Y-110723081D01*
X149981184Y-110674971D01*
X188854821Y-110674971D01*
X189012058Y-111055515D01*
X189302954Y-111346919D01*
X189683223Y-111504820D01*
X190094971Y-111505179D01*
X190475515Y-111347942D01*
X190766919Y-111057046D01*
X190924820Y-110676777D01*
X190925179Y-110265029D01*
X190767942Y-109884485D01*
X190477046Y-109593081D01*
X190096777Y-109435180D01*
X189685029Y-109434821D01*
X189304485Y-109592058D01*
X189013081Y-109882954D01*
X188855180Y-110263223D01*
X188854821Y-110674971D01*
X149981184Y-110674971D01*
X149716777Y-110565180D01*
X149305029Y-110564821D01*
X148924485Y-110722058D01*
X148633081Y-111012954D01*
X148475180Y-111393223D01*
X148474821Y-111804971D01*
X132844926Y-111804971D01*
X132845179Y-111515029D01*
X132687942Y-111134485D01*
X132397046Y-110843081D01*
X132016777Y-110685180D01*
X131605029Y-110684821D01*
X131224485Y-110842058D01*
X130933081Y-111132954D01*
X130775180Y-111513223D01*
X130774821Y-111924971D01*
X129773676Y-111924971D01*
X129772880Y-110004971D01*
X141314821Y-110004971D01*
X141472058Y-110385515D01*
X141762954Y-110676919D01*
X142143223Y-110834820D01*
X142554971Y-110835179D01*
X142935515Y-110677942D01*
X143018630Y-110594971D01*
X145484821Y-110594971D01*
X145642058Y-110975515D01*
X145932954Y-111266919D01*
X146313223Y-111424820D01*
X146724971Y-111425179D01*
X147105515Y-111267942D01*
X147396919Y-110977046D01*
X147554820Y-110596777D01*
X147555179Y-110185029D01*
X147397942Y-109804485D01*
X147186298Y-109592471D01*
X173377321Y-109592471D01*
X173534558Y-109973015D01*
X173825454Y-110264419D01*
X174205723Y-110422320D01*
X174617471Y-110422679D01*
X174998015Y-110265442D01*
X175289419Y-109974546D01*
X175447320Y-109594277D01*
X175447679Y-109182529D01*
X175304072Y-108834971D01*
X193034821Y-108834971D01*
X193192058Y-109215515D01*
X193482954Y-109506919D01*
X193863223Y-109664820D01*
X194274971Y-109665179D01*
X194655515Y-109507942D01*
X194946919Y-109217046D01*
X195104820Y-108836777D01*
X195105179Y-108425029D01*
X194947942Y-108044485D01*
X194657046Y-107753081D01*
X194276777Y-107595180D01*
X193865029Y-107594821D01*
X193484485Y-107752058D01*
X193193081Y-108042954D01*
X193035180Y-108423223D01*
X193034821Y-108834971D01*
X175304072Y-108834971D01*
X175290442Y-108801985D01*
X174999546Y-108510581D01*
X174619277Y-108352680D01*
X174207529Y-108352321D01*
X173826985Y-108509558D01*
X173535581Y-108800454D01*
X173377680Y-109180723D01*
X173377321Y-109592471D01*
X147186298Y-109592471D01*
X147107046Y-109513081D01*
X146726777Y-109355180D01*
X146315029Y-109354821D01*
X145934485Y-109512058D01*
X145643081Y-109802954D01*
X145485180Y-110183223D01*
X145484821Y-110594971D01*
X143018630Y-110594971D01*
X143226919Y-110387046D01*
X143384820Y-110006777D01*
X143385179Y-109595029D01*
X143227942Y-109214485D01*
X142937046Y-108923081D01*
X142724853Y-108834971D01*
X144304821Y-108834971D01*
X144462058Y-109215515D01*
X144752954Y-109506919D01*
X145133223Y-109664820D01*
X145544971Y-109665179D01*
X145925515Y-109507942D01*
X146216919Y-109217046D01*
X146374820Y-108836777D01*
X146375179Y-108425029D01*
X146217942Y-108044485D01*
X145927046Y-107753081D01*
X145546777Y-107595180D01*
X145135029Y-107594821D01*
X144754485Y-107752058D01*
X144463081Y-108042954D01*
X144305180Y-108423223D01*
X144304821Y-108834971D01*
X142724853Y-108834971D01*
X142556777Y-108765180D01*
X142145029Y-108764821D01*
X141764485Y-108922058D01*
X141473081Y-109212954D01*
X141315180Y-109593223D01*
X141314821Y-110004971D01*
X129772880Y-110004971D01*
X129771550Y-106799445D01*
X147603139Y-106799445D01*
X147760376Y-107179989D01*
X148051272Y-107471393D01*
X148431541Y-107629294D01*
X148843289Y-107629653D01*
X149223833Y-107472416D01*
X149515237Y-107181520D01*
X149648389Y-106860853D01*
X149873840Y-107086697D01*
X150254109Y-107244598D01*
X150665857Y-107244957D01*
X151046401Y-107087720D01*
X151337805Y-106796824D01*
X151464020Y-106492863D01*
X152592703Y-106492863D01*
X152749940Y-106873407D01*
X153040836Y-107164811D01*
X153421105Y-107322712D01*
X153832853Y-107323071D01*
X154092847Y-107215644D01*
X154092783Y-107288830D01*
X154250020Y-107669374D01*
X154540916Y-107960778D01*
X154921185Y-108118679D01*
X155332933Y-108119038D01*
X155713477Y-107961801D01*
X156004881Y-107670905D01*
X156162782Y-107290636D01*
X156163141Y-106878888D01*
X156005904Y-106498344D01*
X155832834Y-106324971D01*
X198564821Y-106324971D01*
X198722058Y-106705515D01*
X199012954Y-106996919D01*
X199393223Y-107154820D01*
X199804971Y-107155179D01*
X200185515Y-106997942D01*
X200476919Y-106707046D01*
X200614808Y-106374971D01*
X202874821Y-106374971D01*
X203032058Y-106755515D01*
X203322954Y-107046919D01*
X203703223Y-107204820D01*
X204114971Y-107205179D01*
X204495515Y-107047942D01*
X204786919Y-106757046D01*
X204944820Y-106376777D01*
X204945179Y-105965029D01*
X204787942Y-105584485D01*
X204497046Y-105293081D01*
X204116777Y-105135180D01*
X203705029Y-105134821D01*
X203324485Y-105292058D01*
X203033081Y-105582954D01*
X202875180Y-105963223D01*
X202874821Y-106374971D01*
X200614808Y-106374971D01*
X200634820Y-106326777D01*
X200635179Y-105915029D01*
X200477942Y-105534485D01*
X200187046Y-105243081D01*
X199806777Y-105085180D01*
X199395029Y-105084821D01*
X199014485Y-105242058D01*
X198723081Y-105532954D01*
X198565180Y-105913223D01*
X198564821Y-106324971D01*
X155832834Y-106324971D01*
X155715008Y-106206940D01*
X155334739Y-106049039D01*
X154922991Y-106048680D01*
X154662997Y-106156107D01*
X154663061Y-106082921D01*
X154505824Y-105702377D01*
X154214928Y-105410973D01*
X153834659Y-105253072D01*
X153422911Y-105252713D01*
X153042367Y-105409950D01*
X152750963Y-105700846D01*
X152593062Y-106081115D01*
X152592703Y-106492863D01*
X151464020Y-106492863D01*
X151491587Y-106426474D01*
X151594971Y-106426564D01*
X151975515Y-106269327D01*
X152266919Y-105978431D01*
X152424820Y-105598162D01*
X152425179Y-105186414D01*
X152267942Y-104805870D01*
X151977046Y-104514466D01*
X151596777Y-104356565D01*
X151185029Y-104356206D01*
X150804485Y-104513443D01*
X150513081Y-104804339D01*
X150359299Y-105174689D01*
X150255915Y-105174599D01*
X149875371Y-105331836D01*
X149583967Y-105622732D01*
X149450815Y-105943399D01*
X149225364Y-105717555D01*
X148845095Y-105559654D01*
X148433347Y-105559295D01*
X148052803Y-105716532D01*
X147761399Y-106007428D01*
X147603498Y-106387697D01*
X147603139Y-106799445D01*
X129771550Y-106799445D01*
X129770796Y-104984971D01*
X134864821Y-104984971D01*
X135022058Y-105365515D01*
X135312954Y-105656919D01*
X135693223Y-105814820D01*
X136104971Y-105815179D01*
X136485515Y-105657942D01*
X136776919Y-105367046D01*
X136934820Y-104986777D01*
X136935179Y-104575029D01*
X136873177Y-104424971D01*
X138604821Y-104424971D01*
X138762058Y-104805515D01*
X139052954Y-105096919D01*
X139433223Y-105254820D01*
X139844971Y-105255179D01*
X140225515Y-105097942D01*
X140516919Y-104807046D01*
X140674820Y-104426777D01*
X140674945Y-104282572D01*
X145334409Y-104282572D01*
X145491646Y-104663116D01*
X145782542Y-104954520D01*
X146162811Y-105112421D01*
X146574559Y-105112780D01*
X146955103Y-104955543D01*
X147246507Y-104664647D01*
X147404408Y-104284378D01*
X147404767Y-103872630D01*
X147247530Y-103492086D01*
X146956634Y-103200682D01*
X146576365Y-103042781D01*
X146164617Y-103042422D01*
X145784073Y-103199659D01*
X145492669Y-103490555D01*
X145334768Y-103870824D01*
X145334409Y-104282572D01*
X140674945Y-104282572D01*
X140675179Y-104015029D01*
X140517942Y-103634485D01*
X140227046Y-103343081D01*
X139846777Y-103185180D01*
X139435029Y-103184821D01*
X139054485Y-103342058D01*
X138763081Y-103632954D01*
X138605180Y-104013223D01*
X138604821Y-104424971D01*
X136873177Y-104424971D01*
X136777942Y-104194485D01*
X136487046Y-103903081D01*
X136106777Y-103745180D01*
X135695029Y-103744821D01*
X135314485Y-103902058D01*
X135023081Y-104192954D01*
X134865180Y-104573223D01*
X134864821Y-104984971D01*
X129770796Y-104984971D01*
X129769672Y-102274971D01*
X145964821Y-102274971D01*
X146122058Y-102655515D01*
X146412954Y-102946919D01*
X146793223Y-103104820D01*
X147204971Y-103105179D01*
X147585515Y-102947942D01*
X147876919Y-102657046D01*
X148034820Y-102276777D01*
X148035179Y-101865029D01*
X147877942Y-101484485D01*
X147688759Y-101294971D01*
X149364821Y-101294971D01*
X149522058Y-101675515D01*
X149812954Y-101966919D01*
X150193223Y-102124820D01*
X150218484Y-102124842D01*
X150029561Y-102313436D01*
X149871660Y-102693705D01*
X149871301Y-103105453D01*
X150028538Y-103485997D01*
X150319434Y-103777401D01*
X150699703Y-103935302D01*
X151111451Y-103935661D01*
X151491995Y-103778424D01*
X151783399Y-103487528D01*
X151878768Y-103257851D01*
X154504261Y-103257851D01*
X154661498Y-103638395D01*
X154952394Y-103929799D01*
X155332663Y-104087700D01*
X155624634Y-104087955D01*
X155624401Y-104355129D01*
X155781638Y-104735673D01*
X156072534Y-105027077D01*
X156452803Y-105184978D01*
X156864551Y-105185337D01*
X157245095Y-105028100D01*
X157536499Y-104737204D01*
X157694400Y-104356935D01*
X157694759Y-103945187D01*
X157537522Y-103564643D01*
X157246626Y-103273239D01*
X156866357Y-103115338D01*
X156574386Y-103115083D01*
X156574516Y-102964971D01*
X167014821Y-102964971D01*
X167172058Y-103345515D01*
X167462954Y-103636919D01*
X167843223Y-103794820D01*
X168254971Y-103795179D01*
X168635515Y-103637942D01*
X168638491Y-103634971D01*
X181074821Y-103634971D01*
X181232058Y-104015515D01*
X181522954Y-104306919D01*
X181903223Y-104464820D01*
X182314971Y-104465179D01*
X182695515Y-104307942D01*
X182986919Y-104017046D01*
X183035077Y-103901068D01*
X183034821Y-104194971D01*
X183192058Y-104575515D01*
X183482954Y-104866919D01*
X183863223Y-105024820D01*
X184274971Y-105025179D01*
X184655515Y-104867942D01*
X184946919Y-104577046D01*
X185104820Y-104196777D01*
X185105179Y-103785029D01*
X185043177Y-103634971D01*
X187284821Y-103634971D01*
X187442058Y-104015515D01*
X187732954Y-104306919D01*
X188113223Y-104464820D01*
X188524971Y-104465179D01*
X188905515Y-104307942D01*
X189196919Y-104017046D01*
X189354820Y-103636777D01*
X189355179Y-103225029D01*
X189197942Y-102844485D01*
X188907046Y-102553081D01*
X188526777Y-102395180D01*
X188115029Y-102394821D01*
X187734485Y-102552058D01*
X187443081Y-102842954D01*
X187285180Y-103223223D01*
X187284821Y-103634971D01*
X185043177Y-103634971D01*
X184947942Y-103404485D01*
X184657046Y-103113081D01*
X184276777Y-102955180D01*
X183865029Y-102954821D01*
X183484485Y-103112058D01*
X183193081Y-103402954D01*
X183144923Y-103518932D01*
X183145179Y-103225029D01*
X182987942Y-102844485D01*
X182697046Y-102553081D01*
X182316777Y-102395180D01*
X181905029Y-102394821D01*
X181524485Y-102552058D01*
X181233081Y-102842954D01*
X181075180Y-103223223D01*
X181074821Y-103634971D01*
X168638491Y-103634971D01*
X168926919Y-103347046D01*
X169084820Y-102966777D01*
X169085179Y-102555029D01*
X168927942Y-102174485D01*
X168637046Y-101883081D01*
X168256777Y-101725180D01*
X167845029Y-101724821D01*
X167464485Y-101882058D01*
X167173081Y-102172954D01*
X167015180Y-102553223D01*
X167014821Y-102964971D01*
X156574516Y-102964971D01*
X156574619Y-102847909D01*
X156417382Y-102467365D01*
X156126486Y-102175961D01*
X155746217Y-102018060D01*
X155334469Y-102017701D01*
X154953925Y-102174938D01*
X154662521Y-102465834D01*
X154504620Y-102846103D01*
X154504261Y-103257851D01*
X151878768Y-103257851D01*
X151941300Y-103107259D01*
X151941659Y-102695511D01*
X151889693Y-102569743D01*
X152193223Y-102695779D01*
X152604971Y-102696138D01*
X152985515Y-102538901D01*
X153276919Y-102248005D01*
X153434820Y-101867736D01*
X153435179Y-101455988D01*
X153277942Y-101075444D01*
X153227557Y-101024971D01*
X176404821Y-101024971D01*
X176562058Y-101405515D01*
X176852954Y-101696919D01*
X177233223Y-101854820D01*
X177644971Y-101855179D01*
X178025515Y-101697942D01*
X178316919Y-101407046D01*
X178474820Y-101026777D01*
X178475179Y-100615029D01*
X178317942Y-100234485D01*
X178027046Y-99943081D01*
X177646777Y-99785180D01*
X177235029Y-99784821D01*
X176854485Y-99942058D01*
X176563081Y-100232954D01*
X176405180Y-100613223D01*
X176404821Y-101024971D01*
X153227557Y-101024971D01*
X152987046Y-100784040D01*
X152606777Y-100626139D01*
X152195029Y-100625780D01*
X151814485Y-100783017D01*
X151523081Y-101073913D01*
X151434829Y-101286448D01*
X151435179Y-100885029D01*
X151277942Y-100504485D01*
X150987046Y-100213081D01*
X150606777Y-100055180D01*
X150195029Y-100054821D01*
X149814485Y-100212058D01*
X149523081Y-100502954D01*
X149365180Y-100883223D01*
X149364821Y-101294971D01*
X147688759Y-101294971D01*
X147587046Y-101193081D01*
X147206777Y-101035180D01*
X146795029Y-101034821D01*
X146414485Y-101192058D01*
X146123081Y-101482954D01*
X145965180Y-101863223D01*
X145964821Y-102274971D01*
X129769672Y-102274971D01*
X129768429Y-99280211D01*
X151109551Y-99280211D01*
X151266788Y-99660755D01*
X151557684Y-99952159D01*
X151937953Y-100110060D01*
X152349701Y-100110419D01*
X152730245Y-99953182D01*
X152888732Y-99794971D01*
X155844821Y-99794971D01*
X156002058Y-100175515D01*
X156292954Y-100466919D01*
X156673223Y-100624820D01*
X157084971Y-100625179D01*
X157465515Y-100467942D01*
X157748644Y-100185306D01*
X160124131Y-100185306D01*
X160281368Y-100565850D01*
X160572264Y-100857254D01*
X160952533Y-101015155D01*
X161364281Y-101015514D01*
X161744825Y-100858277D01*
X162036229Y-100567381D01*
X162194130Y-100187112D01*
X162194489Y-99775364D01*
X162181931Y-99744971D01*
X167674821Y-99744971D01*
X167832058Y-100125515D01*
X168122954Y-100416919D01*
X168503223Y-100574820D01*
X168914971Y-100575179D01*
X169295515Y-100417942D01*
X169586919Y-100127046D01*
X169744820Y-99746777D01*
X169745179Y-99335029D01*
X169587942Y-98954485D01*
X169297046Y-98663081D01*
X168916777Y-98505180D01*
X168505029Y-98504821D01*
X168124485Y-98662058D01*
X167833081Y-98952954D01*
X167675180Y-99333223D01*
X167674821Y-99744971D01*
X162181931Y-99744971D01*
X162037252Y-99394820D01*
X161746356Y-99103416D01*
X161366087Y-98945515D01*
X160954339Y-98945156D01*
X160573795Y-99102393D01*
X160282391Y-99393289D01*
X160124490Y-99773558D01*
X160124131Y-100185306D01*
X157748644Y-100185306D01*
X157756919Y-100177046D01*
X157914820Y-99796777D01*
X157915179Y-99385029D01*
X157757942Y-99004485D01*
X157467046Y-98713081D01*
X157086777Y-98555180D01*
X156675029Y-98554821D01*
X156294485Y-98712058D01*
X156003081Y-99002954D01*
X155845180Y-99383223D01*
X155844821Y-99794971D01*
X152888732Y-99794971D01*
X153021649Y-99662286D01*
X153179550Y-99282017D01*
X153179909Y-98870269D01*
X153022672Y-98489725D01*
X152731776Y-98198321D01*
X152351507Y-98040420D01*
X151939759Y-98040061D01*
X151559215Y-98197298D01*
X151267811Y-98488194D01*
X151109910Y-98868463D01*
X151109551Y-99280211D01*
X129768429Y-99280211D01*
X129767777Y-97710491D01*
X141220061Y-97710491D01*
X141377298Y-98091035D01*
X141668194Y-98382439D01*
X142048463Y-98540340D01*
X142460211Y-98540699D01*
X142840755Y-98383462D01*
X143132159Y-98092566D01*
X143290060Y-97712297D01*
X143290287Y-97451411D01*
X152533221Y-97451411D01*
X152690458Y-97831955D01*
X152981354Y-98123359D01*
X153361623Y-98281260D01*
X153773371Y-98281619D01*
X154153915Y-98124382D01*
X154283551Y-97994971D01*
X174704821Y-97994971D01*
X174862058Y-98375515D01*
X175152954Y-98666919D01*
X175533223Y-98824820D01*
X175944971Y-98825179D01*
X176325515Y-98667942D01*
X176616919Y-98377046D01*
X176774820Y-97996777D01*
X176775179Y-97585029D01*
X176617942Y-97204485D01*
X176327046Y-96913081D01*
X175946777Y-96755180D01*
X175535029Y-96754821D01*
X175154485Y-96912058D01*
X174863081Y-97202954D01*
X174705180Y-97583223D01*
X174704821Y-97994971D01*
X154283551Y-97994971D01*
X154445319Y-97833486D01*
X154603220Y-97453217D01*
X154603579Y-97041469D01*
X154558830Y-96933168D01*
X154789879Y-97029108D01*
X155201627Y-97029467D01*
X155582171Y-96872230D01*
X155873575Y-96581334D01*
X156031476Y-96201065D01*
X156031835Y-95789317D01*
X155914369Y-95505025D01*
X156438662Y-95505025D01*
X156595899Y-95885569D01*
X156886795Y-96176973D01*
X157267064Y-96334874D01*
X157678812Y-96335233D01*
X158059356Y-96177996D01*
X158230359Y-96007291D01*
X158117969Y-96277957D01*
X158117610Y-96689705D01*
X158274847Y-97070249D01*
X158565743Y-97361653D01*
X158946012Y-97519554D01*
X159357760Y-97519913D01*
X159738304Y-97362676D01*
X160029708Y-97071780D01*
X160187609Y-96691511D01*
X160187968Y-96279763D01*
X160030731Y-95899219D01*
X159739835Y-95607815D01*
X159359566Y-95449914D01*
X158947818Y-95449555D01*
X158567274Y-95606792D01*
X158396271Y-95777497D01*
X158508661Y-95506831D01*
X158508898Y-95234082D01*
X159745547Y-95234082D01*
X159902784Y-95614626D01*
X160193680Y-95906030D01*
X160573949Y-96063931D01*
X160985697Y-96064290D01*
X161330336Y-95921889D01*
X161210691Y-96210027D01*
X161210332Y-96621775D01*
X161367569Y-97002319D01*
X161658465Y-97293723D01*
X162038734Y-97451624D01*
X162450482Y-97451983D01*
X162831026Y-97294746D01*
X163122430Y-97003850D01*
X163280331Y-96623581D01*
X163280690Y-96211833D01*
X163123453Y-95831289D01*
X163047269Y-95754971D01*
X174484821Y-95754971D01*
X174642058Y-96135515D01*
X174932954Y-96426919D01*
X175313223Y-96584820D01*
X175724971Y-96585179D01*
X176105515Y-96427942D01*
X176396919Y-96137046D01*
X176554820Y-95756777D01*
X176555179Y-95345029D01*
X176397942Y-94964485D01*
X176107046Y-94673081D01*
X175726777Y-94515180D01*
X175315029Y-94514821D01*
X174934485Y-94672058D01*
X174643081Y-94962954D01*
X174485180Y-95343223D01*
X174484821Y-95754971D01*
X163047269Y-95754971D01*
X162832557Y-95539885D01*
X162452288Y-95381984D01*
X162040540Y-95381625D01*
X161695901Y-95524026D01*
X161815546Y-95235888D01*
X161815905Y-94824140D01*
X161658668Y-94443596D01*
X161367772Y-94152192D01*
X160987503Y-93994291D01*
X160575755Y-93993932D01*
X160195211Y-94151169D01*
X159903807Y-94442065D01*
X159745906Y-94822334D01*
X159745547Y-95234082D01*
X158508898Y-95234082D01*
X158509020Y-95095083D01*
X158351783Y-94714539D01*
X158060887Y-94423135D01*
X157680618Y-94265234D01*
X157268870Y-94264875D01*
X156888326Y-94422112D01*
X156596922Y-94713008D01*
X156439021Y-95093277D01*
X156438662Y-95505025D01*
X155914369Y-95505025D01*
X155874598Y-95408773D01*
X155583702Y-95117369D01*
X155203433Y-94959468D01*
X154791685Y-94959109D01*
X154411141Y-95116346D01*
X154119737Y-95407242D01*
X153961836Y-95787511D01*
X153961477Y-96199259D01*
X154006226Y-96307560D01*
X153775177Y-96211620D01*
X153363429Y-96211261D01*
X152982885Y-96368498D01*
X152691481Y-96659394D01*
X152533580Y-97039663D01*
X152533221Y-97451411D01*
X143290287Y-97451411D01*
X143290419Y-97300549D01*
X143133182Y-96920005D01*
X142842286Y-96628601D01*
X142462017Y-96470700D01*
X142050269Y-96470341D01*
X141669725Y-96627578D01*
X141378321Y-96918474D01*
X141220420Y-97298743D01*
X141220061Y-97710491D01*
X129767777Y-97710491D01*
X129766587Y-94844971D01*
X133354821Y-94844971D01*
X133512058Y-95225515D01*
X133802954Y-95516919D01*
X134183223Y-95674820D01*
X134594971Y-95675179D01*
X134605173Y-95670964D01*
X134604821Y-96074971D01*
X134762058Y-96455515D01*
X135052954Y-96746919D01*
X135433223Y-96904820D01*
X135844971Y-96905179D01*
X136225515Y-96747942D01*
X136516919Y-96457046D01*
X136646478Y-96145032D01*
X136814971Y-96145179D01*
X137195515Y-95987942D01*
X137486919Y-95697046D01*
X137644820Y-95316777D01*
X137645013Y-95095109D01*
X137724971Y-95095179D01*
X138105515Y-94937942D01*
X138396919Y-94647046D01*
X138554820Y-94266777D01*
X138555179Y-93855029D01*
X138530311Y-93794844D01*
X138914971Y-93795179D01*
X139295515Y-93637942D01*
X139586919Y-93347046D01*
X139744820Y-92966777D01*
X139744897Y-92878906D01*
X139783223Y-92894820D01*
X140194971Y-92895179D01*
X140575515Y-92737942D01*
X140624920Y-92688623D01*
X146620060Y-92688623D01*
X146777297Y-93069167D01*
X147068193Y-93360571D01*
X147448462Y-93518472D01*
X147860210Y-93518831D01*
X148240754Y-93361594D01*
X148532158Y-93070698D01*
X148540395Y-93050860D01*
X151475311Y-93050860D01*
X151632548Y-93431404D01*
X151923444Y-93722808D01*
X152303713Y-93880709D01*
X152715461Y-93881068D01*
X153096005Y-93723831D01*
X153387409Y-93432935D01*
X153545310Y-93052666D01*
X153545669Y-92640918D01*
X153388432Y-92260374D01*
X153097536Y-91968970D01*
X152717267Y-91811069D01*
X152305519Y-91810710D01*
X151924975Y-91967947D01*
X151633571Y-92258843D01*
X151475670Y-92639112D01*
X151475311Y-93050860D01*
X148540395Y-93050860D01*
X148690059Y-92690429D01*
X148690418Y-92278681D01*
X148533181Y-91898137D01*
X148242285Y-91606733D01*
X147862016Y-91448832D01*
X147450268Y-91448473D01*
X147069724Y-91605710D01*
X146778320Y-91896606D01*
X146620419Y-92276875D01*
X146620060Y-92688623D01*
X140624920Y-92688623D01*
X140866919Y-92447046D01*
X141024820Y-92066777D01*
X141025179Y-91655029D01*
X140867942Y-91274485D01*
X140683259Y-91089479D01*
X142854062Y-91089479D01*
X143011299Y-91470023D01*
X143302195Y-91761427D01*
X143682464Y-91919328D01*
X144094212Y-91919687D01*
X144474756Y-91762450D01*
X144766160Y-91471554D01*
X144924061Y-91091285D01*
X144924284Y-90834971D01*
X145434821Y-90834971D01*
X145592058Y-91215515D01*
X145882954Y-91506919D01*
X146263223Y-91664820D01*
X146674971Y-91665179D01*
X147055515Y-91507942D01*
X147346919Y-91217046D01*
X147428809Y-91019830D01*
X152768967Y-91019830D01*
X152926204Y-91400374D01*
X153217100Y-91691778D01*
X153597369Y-91849679D01*
X154009117Y-91850038D01*
X154389661Y-91692801D01*
X154681065Y-91401905D01*
X154774984Y-91175722D01*
X159222548Y-91175722D01*
X159379785Y-91556266D01*
X159670681Y-91847670D01*
X160050950Y-92005571D01*
X160462698Y-92005930D01*
X160843242Y-91848693D01*
X161134646Y-91557797D01*
X161292547Y-91177528D01*
X161292906Y-90765780D01*
X161135669Y-90385236D01*
X160844773Y-90093832D01*
X160464504Y-89935931D01*
X160052756Y-89935572D01*
X159672212Y-90092809D01*
X159380808Y-90383705D01*
X159222907Y-90763974D01*
X159222548Y-91175722D01*
X154774984Y-91175722D01*
X154838966Y-91021636D01*
X154839325Y-90609888D01*
X154682088Y-90229344D01*
X154391192Y-89937940D01*
X154010923Y-89780039D01*
X153599175Y-89779680D01*
X153218631Y-89936917D01*
X152927227Y-90227813D01*
X152769326Y-90608082D01*
X152768967Y-91019830D01*
X147428809Y-91019830D01*
X147454824Y-90957180D01*
X147473223Y-90964820D01*
X147884971Y-90965179D01*
X148265515Y-90807942D01*
X148556919Y-90517046D01*
X148714820Y-90136777D01*
X148714883Y-90064909D01*
X149024971Y-90065179D01*
X149405515Y-89907942D01*
X149696919Y-89617046D01*
X149854820Y-89236777D01*
X149855179Y-88825029D01*
X149697942Y-88444485D01*
X149522520Y-88268756D01*
X157324946Y-88268756D01*
X157482183Y-88649300D01*
X157773079Y-88940704D01*
X158153348Y-89098605D01*
X158565096Y-89098964D01*
X158945640Y-88941727D01*
X159237044Y-88650831D01*
X159256558Y-88603836D01*
X159258661Y-88608926D01*
X159549557Y-88900330D01*
X159929826Y-89058231D01*
X160341574Y-89058590D01*
X160722118Y-88901353D01*
X161013522Y-88610457D01*
X161171423Y-88230188D01*
X161171782Y-87818440D01*
X161014545Y-87437896D01*
X160723649Y-87146492D01*
X160343380Y-86988591D01*
X159931632Y-86988232D01*
X159551088Y-87145469D01*
X159259684Y-87436365D01*
X159240170Y-87483360D01*
X159238067Y-87478270D01*
X158947171Y-87186866D01*
X158566902Y-87028965D01*
X158155154Y-87028606D01*
X157774610Y-87185843D01*
X157483206Y-87476739D01*
X157325305Y-87857008D01*
X157324946Y-88268756D01*
X149522520Y-88268756D01*
X149407046Y-88153081D01*
X149026777Y-87995180D01*
X148615029Y-87994821D01*
X148234485Y-88152058D01*
X147943081Y-88442954D01*
X147785180Y-88823223D01*
X147785117Y-88895091D01*
X147475029Y-88894821D01*
X147094485Y-89052058D01*
X146803081Y-89342954D01*
X146695176Y-89602820D01*
X146676777Y-89595180D01*
X146265029Y-89594821D01*
X145884485Y-89752058D01*
X145593081Y-90042954D01*
X145435180Y-90423223D01*
X145434821Y-90834971D01*
X144924284Y-90834971D01*
X144924420Y-90679537D01*
X144767183Y-90298993D01*
X144476287Y-90007589D01*
X144096018Y-89849688D01*
X143684270Y-89849329D01*
X143303726Y-90006566D01*
X143012322Y-90297462D01*
X142854421Y-90677731D01*
X142854062Y-91089479D01*
X140683259Y-91089479D01*
X140577046Y-90983081D01*
X140196777Y-90825180D01*
X139785029Y-90824821D01*
X139404485Y-90982058D01*
X139113081Y-91272954D01*
X138955180Y-91653223D01*
X138955103Y-91741094D01*
X138916777Y-91725180D01*
X138694987Y-91724987D01*
X138695179Y-91505029D01*
X138537942Y-91124485D01*
X138247046Y-90833081D01*
X137866777Y-90675180D01*
X137455029Y-90674821D01*
X137074485Y-90832058D01*
X136783081Y-91122954D01*
X136625180Y-91503223D01*
X136624881Y-91845916D01*
X136526777Y-91805180D01*
X136115029Y-91804821D01*
X135734485Y-91962058D01*
X135443081Y-92252954D01*
X135285180Y-92633223D01*
X135285030Y-92804961D01*
X135125029Y-92804821D01*
X134744485Y-92962058D01*
X134453081Y-93252954D01*
X134306929Y-93604927D01*
X134185029Y-93604821D01*
X133804485Y-93762058D01*
X133513081Y-94052954D01*
X133355180Y-94433223D01*
X133354821Y-94844971D01*
X129766587Y-94844971D01*
X129766266Y-94071931D01*
X129773223Y-94074820D01*
X130184971Y-94075179D01*
X130565515Y-93917942D01*
X130856919Y-93627046D01*
X131014820Y-93246777D01*
X131015179Y-92835029D01*
X130857942Y-92454485D01*
X130567046Y-92163081D01*
X130186777Y-92005180D01*
X129775029Y-92004821D01*
X129765410Y-92008795D01*
X129765064Y-91174971D01*
X132354821Y-91174971D01*
X132512058Y-91555515D01*
X132802954Y-91846919D01*
X133183223Y-92004820D01*
X133594971Y-92005179D01*
X133975515Y-91847942D01*
X134266919Y-91557046D01*
X134424820Y-91176777D01*
X134425179Y-90765029D01*
X134267942Y-90384485D01*
X133977046Y-90093081D01*
X133596777Y-89935180D01*
X133185029Y-89934821D01*
X132804485Y-90092058D01*
X132513081Y-90382954D01*
X132355180Y-90763223D01*
X132354821Y-91174971D01*
X129765064Y-91174971D01*
X129763388Y-87134971D01*
X146994821Y-87134971D01*
X147152058Y-87515515D01*
X147442954Y-87806919D01*
X147823223Y-87964820D01*
X148234971Y-87965179D01*
X148615515Y-87807942D01*
X148906919Y-87517046D01*
X149064820Y-87136777D01*
X149065179Y-86725029D01*
X148907942Y-86344485D01*
X148617046Y-86053081D01*
X148236777Y-85895180D01*
X147825029Y-85894821D01*
X147444485Y-86052058D01*
X147153081Y-86342954D01*
X146995180Y-86723223D01*
X146994821Y-87134971D01*
X129763388Y-87134971D01*
X129758186Y-74596491D01*
X211837141Y-74596491D01*
X211994378Y-74977035D01*
X212285274Y-75268439D01*
X212665543Y-75426340D01*
X213077291Y-75426699D01*
X213457835Y-75269462D01*
X213749239Y-74978566D01*
X213907140Y-74598297D01*
X213907378Y-74324971D01*
X219294821Y-74324971D01*
X219452058Y-74705515D01*
X219742954Y-74996919D01*
X220123223Y-75154820D01*
X220534971Y-75155179D01*
X220915515Y-74997942D01*
X221206919Y-74707046D01*
X221364820Y-74326777D01*
X221365179Y-73915029D01*
X221207942Y-73534485D01*
X220917046Y-73243081D01*
X220536777Y-73085180D01*
X220125029Y-73084821D01*
X219744485Y-73242058D01*
X219453081Y-73532954D01*
X219295180Y-73913223D01*
X219294821Y-74324971D01*
X213907378Y-74324971D01*
X213907499Y-74186549D01*
X213750262Y-73806005D01*
X213459366Y-73514601D01*
X213079097Y-73356700D01*
X212667349Y-73356341D01*
X212286805Y-73513578D01*
X211995401Y-73804474D01*
X211837500Y-74184743D01*
X211837141Y-74596491D01*
X129758186Y-74596491D01*
X129757554Y-73074971D01*
X142124821Y-73074971D01*
X142282058Y-73455515D01*
X142572954Y-73746919D01*
X142953223Y-73904820D01*
X143364971Y-73905179D01*
X143745515Y-73747942D01*
X144036919Y-73457046D01*
X144194820Y-73076777D01*
X144195179Y-72665029D01*
X144037942Y-72284485D01*
X143747046Y-71993081D01*
X143366777Y-71835180D01*
X142955029Y-71834821D01*
X142574485Y-71992058D01*
X142283081Y-72282954D01*
X142125180Y-72663223D01*
X142124821Y-73074971D01*
X129757554Y-73074971D01*
X129756841Y-71354971D01*
X211844821Y-71354971D01*
X212002058Y-71735515D01*
X212292954Y-72026919D01*
X212673223Y-72184820D01*
X213084971Y-72185179D01*
X213465515Y-72027942D01*
X213756919Y-71737046D01*
X213914820Y-71356777D01*
X213915179Y-70945029D01*
X213757942Y-70564485D01*
X213467046Y-70273081D01*
X213086777Y-70115180D01*
X212675029Y-70114821D01*
X212294485Y-70272058D01*
X212003081Y-70562954D01*
X211845180Y-70943223D01*
X211844821Y-71354971D01*
X129756841Y-71354971D01*
X129756336Y-70140136D01*
X144811242Y-70140136D01*
X144968479Y-70520680D01*
X145259375Y-70812084D01*
X145639644Y-70969985D01*
X146051392Y-70970344D01*
X146431936Y-70813107D01*
X146723340Y-70522211D01*
X146881241Y-70141942D01*
X146881600Y-69730194D01*
X146724363Y-69349650D01*
X146433467Y-69058246D01*
X146053198Y-68900345D01*
X145641450Y-68899986D01*
X145260906Y-69057223D01*
X144969502Y-69348119D01*
X144811601Y-69728388D01*
X144811242Y-70140136D01*
X129756336Y-70140136D01*
X129755545Y-68234971D01*
X135284821Y-68234971D01*
X135442058Y-68615515D01*
X135732954Y-68906919D01*
X136113223Y-69064820D01*
X136524971Y-69065179D01*
X136905515Y-68907942D01*
X137196919Y-68617046D01*
X137354820Y-68236777D01*
X137355179Y-67825029D01*
X137197942Y-67444485D01*
X136907046Y-67153081D01*
X136526777Y-66995180D01*
X136115029Y-66994821D01*
X135734485Y-67152058D01*
X135443081Y-67442954D01*
X135285180Y-67823223D01*
X135284821Y-68234971D01*
X129755545Y-68234971D01*
X129753732Y-63864971D01*
X145394821Y-63864971D01*
X145552058Y-64245515D01*
X145842954Y-64536919D01*
X146223223Y-64694820D01*
X146634971Y-64695179D01*
X146998503Y-64544971D01*
X150964821Y-64544971D01*
X151122058Y-64925515D01*
X151134419Y-64937897D01*
X150995180Y-65273223D01*
X150994821Y-65684971D01*
X151152058Y-66065515D01*
X151442954Y-66356919D01*
X151823223Y-66514820D01*
X152234971Y-66515179D01*
X152615515Y-66357942D01*
X152906919Y-66067046D01*
X153064820Y-65686777D01*
X153064882Y-65614971D01*
X153214821Y-65614971D01*
X153372058Y-65995515D01*
X153662954Y-66286919D01*
X154043223Y-66444820D01*
X154454971Y-66445179D01*
X154835515Y-66287942D01*
X155126919Y-65997046D01*
X155284820Y-65616777D01*
X155285020Y-65386400D01*
X217138960Y-65386400D01*
X217138960Y-67113600D01*
X217183238Y-67348917D01*
X217322310Y-67565041D01*
X217534510Y-67710031D01*
X217578345Y-67718908D01*
X217265474Y-68187152D01*
X217151400Y-68760641D01*
X217151400Y-68819359D01*
X217265474Y-69392848D01*
X217590330Y-69879029D01*
X217861172Y-70060000D01*
X217590330Y-70240971D01*
X217265474Y-70727152D01*
X217151400Y-71300641D01*
X217151400Y-71359359D01*
X217265474Y-71932848D01*
X217590330Y-72419029D01*
X218076511Y-72743885D01*
X218650000Y-72857959D01*
X219223489Y-72743885D01*
X219709670Y-72419029D01*
X219920000Y-72104248D01*
X220130330Y-72419029D01*
X220616511Y-72743885D01*
X221190000Y-72857959D01*
X221763489Y-72743885D01*
X222249670Y-72419029D01*
X222574526Y-71932848D01*
X222688600Y-71359359D01*
X222688600Y-71300641D01*
X222574526Y-70727152D01*
X222249670Y-70240971D01*
X221978828Y-70060000D01*
X222249670Y-69879029D01*
X222574526Y-69392848D01*
X222688600Y-68819359D01*
X222688600Y-68760641D01*
X222574526Y-68187152D01*
X222249670Y-67700971D01*
X221978839Y-67520008D01*
X222396821Y-67138490D01*
X222644968Y-66609027D01*
X222524469Y-66377000D01*
X221317000Y-66377000D01*
X221317000Y-66397000D01*
X221063000Y-66397000D01*
X221063000Y-66377000D01*
X221043000Y-66377000D01*
X221043000Y-66123000D01*
X221063000Y-66123000D01*
X221063000Y-64916183D01*
X221317000Y-64916183D01*
X221317000Y-66123000D01*
X222524469Y-66123000D01*
X222644968Y-65890973D01*
X222396821Y-65361510D01*
X221964947Y-64967312D01*
X221549026Y-64795042D01*
X221317000Y-64916183D01*
X221063000Y-64916183D01*
X220830974Y-64795042D01*
X220415053Y-64967312D01*
X220130973Y-65226609D01*
X220116762Y-65151083D01*
X219977690Y-64934959D01*
X219765490Y-64789969D01*
X219513600Y-64738960D01*
X217786400Y-64738960D01*
X217551083Y-64783238D01*
X217334959Y-64922310D01*
X217189969Y-65134510D01*
X217138960Y-65386400D01*
X155285020Y-65386400D01*
X155285092Y-65304848D01*
X155664971Y-65305179D01*
X156045515Y-65147942D01*
X156336919Y-64857046D01*
X156494820Y-64476777D01*
X156495179Y-64065029D01*
X156337942Y-63684485D01*
X156047046Y-63393081D01*
X155666777Y-63235180D01*
X155255029Y-63234821D01*
X154874485Y-63392058D01*
X154583081Y-63682954D01*
X154425180Y-64063223D01*
X154424908Y-64375152D01*
X154045029Y-64374821D01*
X153664485Y-64532058D01*
X153373081Y-64822954D01*
X153215180Y-65203223D01*
X153214821Y-65614971D01*
X153064882Y-65614971D01*
X153065179Y-65275029D01*
X152907942Y-64894485D01*
X152895581Y-64882103D01*
X153034820Y-64546777D01*
X153035179Y-64135029D01*
X152877942Y-63754485D01*
X152587046Y-63463081D01*
X152206777Y-63305180D01*
X151795029Y-63304821D01*
X151414485Y-63462058D01*
X151123081Y-63752954D01*
X150965180Y-64133223D01*
X150964821Y-64544971D01*
X146998503Y-64544971D01*
X147015515Y-64537942D01*
X147306919Y-64247046D01*
X147464820Y-63866777D01*
X147465179Y-63455029D01*
X147307942Y-63074485D01*
X147017046Y-62783081D01*
X146636777Y-62625180D01*
X146225029Y-62624821D01*
X145844485Y-62782058D01*
X145553081Y-63072954D01*
X145395180Y-63453223D01*
X145394821Y-63864971D01*
X129753732Y-63864971D01*
X129751042Y-57384971D01*
X162564821Y-57384971D01*
X162722058Y-57765515D01*
X163012954Y-58056919D01*
X163393223Y-58214820D01*
X163804971Y-58215179D01*
X164185515Y-58057942D01*
X164476919Y-57767046D01*
X164598198Y-57474971D01*
X173144821Y-57474971D01*
X173302058Y-57855515D01*
X173592954Y-58146919D01*
X173973223Y-58304820D01*
X174384971Y-58305179D01*
X174765515Y-58147942D01*
X175056919Y-57857046D01*
X175214820Y-57476777D01*
X175215179Y-57065029D01*
X175057942Y-56684485D01*
X174767046Y-56393081D01*
X174386777Y-56235180D01*
X173975029Y-56234821D01*
X173594485Y-56392058D01*
X173303081Y-56682954D01*
X173145180Y-57063223D01*
X173144821Y-57474971D01*
X164598198Y-57474971D01*
X164634820Y-57386777D01*
X164635179Y-56975029D01*
X164477942Y-56594485D01*
X164187046Y-56303081D01*
X163806777Y-56145180D01*
X163395029Y-56144821D01*
X163014485Y-56302058D01*
X162723081Y-56592954D01*
X162565180Y-56973223D01*
X162564821Y-57384971D01*
X129751042Y-57384971D01*
X129750199Y-55354971D01*
X134304821Y-55354971D01*
X134462058Y-55735515D01*
X134752954Y-56026919D01*
X135133223Y-56184820D01*
X135544971Y-56185179D01*
X135884301Y-56044971D01*
X170144821Y-56044971D01*
X170302058Y-56425515D01*
X170592954Y-56716919D01*
X170973223Y-56874820D01*
X171384971Y-56875179D01*
X171765515Y-56717942D01*
X172056919Y-56427046D01*
X172165741Y-56164971D01*
X199574821Y-56164971D01*
X199732058Y-56545515D01*
X200022954Y-56836919D01*
X200403223Y-56994820D01*
X200814971Y-56995179D01*
X201195515Y-56837942D01*
X201486919Y-56547046D01*
X201644820Y-56166777D01*
X201645179Y-55755029D01*
X201487942Y-55374485D01*
X201197046Y-55083081D01*
X200816777Y-54925180D01*
X200405029Y-54924821D01*
X200024485Y-55082058D01*
X199733081Y-55372954D01*
X199575180Y-55753223D01*
X199574821Y-56164971D01*
X172165741Y-56164971D01*
X172214820Y-56046777D01*
X172215179Y-55635029D01*
X172057942Y-55254485D01*
X172055313Y-55251851D01*
X173119921Y-55251851D01*
X173277158Y-55632395D01*
X173568054Y-55923799D01*
X173948323Y-56081700D01*
X174360071Y-56082059D01*
X174740615Y-55924822D01*
X175032019Y-55633926D01*
X175189920Y-55253657D01*
X175190279Y-54841909D01*
X175033042Y-54461365D01*
X174742146Y-54169961D01*
X174361877Y-54012060D01*
X173950129Y-54011701D01*
X173569585Y-54168938D01*
X173278181Y-54459834D01*
X173120280Y-54840103D01*
X173119921Y-55251851D01*
X172055313Y-55251851D01*
X171767046Y-54963081D01*
X171386777Y-54805180D01*
X170975029Y-54804821D01*
X170594485Y-54962058D01*
X170303081Y-55252954D01*
X170145180Y-55633223D01*
X170144821Y-56044971D01*
X135884301Y-56044971D01*
X135925515Y-56027942D01*
X136216919Y-55737046D01*
X136374820Y-55356777D01*
X136375179Y-54945029D01*
X136217942Y-54564485D01*
X135927046Y-54273081D01*
X135546777Y-54115180D01*
X135135029Y-54114821D01*
X134754485Y-54272058D01*
X134463081Y-54562954D01*
X134305180Y-54943223D01*
X134304821Y-55354971D01*
X129750199Y-55354971D01*
X129749581Y-53865000D01*
X164410907Y-53865000D01*
X164523946Y-54433285D01*
X164845853Y-54915054D01*
X165327622Y-55236961D01*
X165895907Y-55350000D01*
X165954093Y-55350000D01*
X166522378Y-55236961D01*
X167004147Y-54915054D01*
X167195000Y-54629422D01*
X167385853Y-54915054D01*
X167867622Y-55236961D01*
X168435907Y-55350000D01*
X168494093Y-55350000D01*
X169062378Y-55236961D01*
X169544147Y-54915054D01*
X169866054Y-54433285D01*
X169979093Y-53865000D01*
X169966110Y-53799732D01*
X170162954Y-53996919D01*
X170543223Y-54154820D01*
X170954971Y-54155179D01*
X171335515Y-53997942D01*
X171626919Y-53707046D01*
X171784820Y-53326777D01*
X171785178Y-52915750D01*
X196585000Y-52915750D01*
X196585000Y-53606309D01*
X196681673Y-53839698D01*
X196860301Y-54018327D01*
X197093690Y-54115000D01*
X197784250Y-54115000D01*
X197943000Y-53956250D01*
X197943000Y-52757000D01*
X196743750Y-52757000D01*
X196585000Y-52915750D01*
X171785178Y-52915750D01*
X171785179Y-52915029D01*
X171627942Y-52534485D01*
X171337046Y-52243081D01*
X170956777Y-52085180D01*
X170545029Y-52084821D01*
X170164485Y-52242058D01*
X169873081Y-52532954D01*
X169715180Y-52913223D01*
X169715043Y-53070710D01*
X169544147Y-52814946D01*
X169214974Y-52595000D01*
X169544147Y-52375054D01*
X169764700Y-52044971D01*
X174614821Y-52044971D01*
X174772058Y-52425515D01*
X175062954Y-52716919D01*
X175443223Y-52874820D01*
X175854971Y-52875179D01*
X176235515Y-52717942D01*
X176526919Y-52427046D01*
X176684820Y-52046777D01*
X176685162Y-51653691D01*
X196585000Y-51653691D01*
X196585000Y-52344250D01*
X196743750Y-52503000D01*
X197943000Y-52503000D01*
X197943000Y-51303750D01*
X198197000Y-51303750D01*
X198197000Y-52503000D01*
X198217000Y-52503000D01*
X198217000Y-52757000D01*
X198197000Y-52757000D01*
X198197000Y-53956250D01*
X198355750Y-54115000D01*
X199046310Y-54115000D01*
X199279699Y-54018327D01*
X199458327Y-53839698D01*
X199530597Y-53665223D01*
X199559946Y-53709147D01*
X200041715Y-54031054D01*
X200610000Y-54144093D01*
X201178285Y-54031054D01*
X201660054Y-53709147D01*
X201981961Y-53227378D01*
X202095000Y-52659093D01*
X202095000Y-52600907D01*
X201981961Y-52032622D01*
X201660054Y-51550853D01*
X201178285Y-51228946D01*
X200610000Y-51115907D01*
X200041715Y-51228946D01*
X199559946Y-51550853D01*
X199530597Y-51594777D01*
X199458327Y-51420302D01*
X199279699Y-51241673D01*
X199046310Y-51145000D01*
X198355750Y-51145000D01*
X198197000Y-51303750D01*
X197943000Y-51303750D01*
X197784250Y-51145000D01*
X197093690Y-51145000D01*
X196860301Y-51241673D01*
X196681673Y-51420302D01*
X196585000Y-51653691D01*
X176685162Y-51653691D01*
X176685179Y-51635029D01*
X176527942Y-51254485D01*
X176237046Y-50963081D01*
X175856777Y-50805180D01*
X175445029Y-50804821D01*
X175064485Y-50962058D01*
X174773081Y-51252954D01*
X174615180Y-51633223D01*
X174614821Y-52044971D01*
X169764700Y-52044971D01*
X169866054Y-51893285D01*
X169979093Y-51325000D01*
X169866054Y-50756715D01*
X169544147Y-50274946D01*
X169062378Y-49953039D01*
X168519084Y-49844971D01*
X184894821Y-49844971D01*
X185052058Y-50225515D01*
X185342954Y-50516919D01*
X185723223Y-50674820D01*
X186134971Y-50675179D01*
X186515515Y-50517942D01*
X186806919Y-50227046D01*
X186964820Y-49846777D01*
X186965179Y-49435029D01*
X186807942Y-49054485D01*
X186517046Y-48763081D01*
X186136777Y-48605180D01*
X185725029Y-48604821D01*
X185344485Y-48762058D01*
X185053081Y-49052954D01*
X184895180Y-49433223D01*
X184894821Y-49844971D01*
X168519084Y-49844971D01*
X168494093Y-49840000D01*
X168435907Y-49840000D01*
X167867622Y-49953039D01*
X167385853Y-50274946D01*
X167385029Y-50276179D01*
X167378162Y-50239683D01*
X167239090Y-50023559D01*
X167026890Y-49878569D01*
X166775000Y-49827560D01*
X165075000Y-49827560D01*
X164839683Y-49871838D01*
X164623559Y-50010910D01*
X164478569Y-50223110D01*
X164427560Y-50475000D01*
X164427560Y-52175000D01*
X164471838Y-52410317D01*
X164610910Y-52626441D01*
X164823110Y-52771431D01*
X164890541Y-52785086D01*
X164845853Y-52814946D01*
X164523946Y-53296715D01*
X164410907Y-53865000D01*
X129749581Y-53865000D01*
X129748599Y-51500000D01*
X133902560Y-51500000D01*
X133902560Y-53200000D01*
X133946838Y-53435317D01*
X134085910Y-53651441D01*
X134298110Y-53796431D01*
X134550000Y-53847440D01*
X136250000Y-53847440D01*
X136485317Y-53803162D01*
X136701441Y-53664090D01*
X136846431Y-53451890D01*
X136860086Y-53384459D01*
X136889946Y-53429147D01*
X137371715Y-53751054D01*
X137940000Y-53864093D01*
X138508285Y-53751054D01*
X138990054Y-53429147D01*
X139210000Y-53099974D01*
X139429946Y-53429147D01*
X139911715Y-53751054D01*
X140480000Y-53864093D01*
X141048285Y-53751054D01*
X141530054Y-53429147D01*
X141750000Y-53099974D01*
X141969946Y-53429147D01*
X142451715Y-53751054D01*
X143020000Y-53864093D01*
X143588285Y-53751054D01*
X144070054Y-53429147D01*
X144290000Y-53099974D01*
X144509946Y-53429147D01*
X144991715Y-53751054D01*
X145560000Y-53864093D01*
X146128285Y-53751054D01*
X146610054Y-53429147D01*
X146931961Y-52947378D01*
X147045000Y-52379093D01*
X147045000Y-52320907D01*
X146931961Y-51752622D01*
X146763165Y-51500000D01*
X151577560Y-51500000D01*
X151577560Y-53200000D01*
X151621838Y-53435317D01*
X151760910Y-53651441D01*
X151973110Y-53796431D01*
X152225000Y-53847440D01*
X153925000Y-53847440D01*
X154160317Y-53803162D01*
X154376441Y-53664090D01*
X154521431Y-53451890D01*
X154572440Y-53200000D01*
X154572440Y-51500000D01*
X154528162Y-51264683D01*
X154389090Y-51048559D01*
X154176890Y-50903569D01*
X153925000Y-50852560D01*
X152225000Y-50852560D01*
X151989683Y-50896838D01*
X151773559Y-51035910D01*
X151628569Y-51248110D01*
X151577560Y-51500000D01*
X146763165Y-51500000D01*
X146610054Y-51270853D01*
X146128285Y-50948946D01*
X145560000Y-50835907D01*
X144991715Y-50948946D01*
X144509946Y-51270853D01*
X144290000Y-51600026D01*
X144070054Y-51270853D01*
X143588285Y-50948946D01*
X143020000Y-50835907D01*
X142451715Y-50948946D01*
X141969946Y-51270853D01*
X141750000Y-51600026D01*
X141530054Y-51270853D01*
X141048285Y-50948946D01*
X140480000Y-50835907D01*
X139911715Y-50948946D01*
X139429946Y-51270853D01*
X139210000Y-51600026D01*
X138990054Y-51270853D01*
X138508285Y-50948946D01*
X137940000Y-50835907D01*
X137371715Y-50948946D01*
X136889946Y-51270853D01*
X136862150Y-51312452D01*
X136853162Y-51264683D01*
X136714090Y-51048559D01*
X136501890Y-50903569D01*
X136250000Y-50852560D01*
X134550000Y-50852560D01*
X134314683Y-50896838D01*
X134098559Y-51035910D01*
X133953569Y-51248110D01*
X133902560Y-51500000D01*
X129748599Y-51500000D01*
X129747053Y-47777132D01*
X225813000Y-47876868D01*
X225813000Y-47876868D01*
G37*
X225813000Y-47876868D02*
X225813000Y-143883026D01*
X129786947Y-143902974D01*
X129785874Y-141314971D01*
X156524821Y-141314971D01*
X156682058Y-141695515D01*
X156972954Y-141986919D01*
X157353223Y-142144820D01*
X157764971Y-142145179D01*
X158145515Y-141987942D01*
X158436919Y-141697046D01*
X158594820Y-141316777D01*
X158595179Y-140905029D01*
X158437942Y-140524485D01*
X158377163Y-140463599D01*
X215234699Y-140463599D01*
X215498281Y-141101515D01*
X215985918Y-141590004D01*
X216623373Y-141854699D01*
X217313599Y-141855301D01*
X217951515Y-141591719D01*
X218440004Y-141104082D01*
X218704699Y-140466627D01*
X218704701Y-140463599D01*
X220314699Y-140463599D01*
X220578281Y-141101515D01*
X221065918Y-141590004D01*
X221703373Y-141854699D01*
X222393599Y-141855301D01*
X223031515Y-141591719D01*
X223520004Y-141104082D01*
X223784699Y-140466627D01*
X223785301Y-139776401D01*
X223521719Y-139138485D01*
X223034082Y-138649996D01*
X222396627Y-138385301D01*
X221706401Y-138384699D01*
X221068485Y-138648281D01*
X220579996Y-139135918D01*
X220315301Y-139773373D01*
X220314699Y-140463599D01*
X218704701Y-140463599D01*
X218705301Y-139776401D01*
X218441719Y-139138485D01*
X217954082Y-138649996D01*
X217316627Y-138385301D01*
X216626401Y-138384699D01*
X215988485Y-138648281D01*
X215499996Y-139135918D01*
X215235301Y-139773373D01*
X215234699Y-140463599D01*
X158377163Y-140463599D01*
X158147046Y-140233081D01*
X157766777Y-140075180D01*
X157355029Y-140074821D01*
X156974485Y-140232058D01*
X156683081Y-140522954D01*
X156525180Y-140903223D01*
X156524821Y-141314971D01*
X129785874Y-141314971D01*
X129783969Y-136725000D01*
X134852560Y-136725000D01*
X134852560Y-138425000D01*
X134896838Y-138660317D01*
X135035910Y-138876441D01*
X135248110Y-139021431D01*
X135500000Y-139072440D01*
X137200000Y-139072440D01*
X137435317Y-139028162D01*
X137651441Y-138889090D01*
X137796431Y-138676890D01*
X137810086Y-138609459D01*
X137839946Y-138654147D01*
X138321715Y-138976054D01*
X138890000Y-139089093D01*
X139458285Y-138976054D01*
X139940054Y-138654147D01*
X140160000Y-138324974D01*
X140379946Y-138654147D01*
X140861715Y-138976054D01*
X141430000Y-139089093D01*
X141998285Y-138976054D01*
X142480054Y-138654147D01*
X142700000Y-138324974D01*
X142919946Y-138654147D01*
X143401715Y-138976054D01*
X143970000Y-139089093D01*
X144538285Y-138976054D01*
X145020054Y-138654147D01*
X145240000Y-138324974D01*
X145459946Y-138654147D01*
X145941715Y-138976054D01*
X146510000Y-139089093D01*
X147078285Y-138976054D01*
X147560054Y-138654147D01*
X147780000Y-138324974D01*
X147999946Y-138654147D01*
X148481715Y-138976054D01*
X149050000Y-139089093D01*
X149618285Y-138976054D01*
X150100054Y-138654147D01*
X150320000Y-138324974D01*
X150539946Y-138654147D01*
X151021715Y-138976054D01*
X151590000Y-139089093D01*
X152158285Y-138976054D01*
X152640054Y-138654147D01*
X152860000Y-138324974D01*
X153079946Y-138654147D01*
X153561715Y-138976054D01*
X154130000Y-139089093D01*
X154698285Y-138976054D01*
X155180054Y-138654147D01*
X155386638Y-138344971D01*
X189624821Y-138344971D01*
X189782058Y-138725515D01*
X190072954Y-139016919D01*
X190453223Y-139174820D01*
X190864971Y-139175179D01*
X191245515Y-139017942D01*
X191536919Y-138727046D01*
X191694820Y-138346777D01*
X191694987Y-138154971D01*
X198634821Y-138154971D01*
X198792058Y-138535515D01*
X199082954Y-138826919D01*
X199463223Y-138984820D01*
X199874971Y-138985179D01*
X200255515Y-138827942D01*
X200546919Y-138537046D01*
X200704820Y-138156777D01*
X200705040Y-137903795D01*
X217874716Y-137903795D01*
X218123106Y-138504943D01*
X218582637Y-138965278D01*
X219183352Y-139214716D01*
X219833795Y-139215284D01*
X220434943Y-138966894D01*
X220895278Y-138507363D01*
X221144716Y-137906648D01*
X221145284Y-137256205D01*
X220896894Y-136655057D01*
X220437363Y-136194722D01*
X219836648Y-135945284D01*
X219186205Y-135944716D01*
X218585057Y-136193106D01*
X218124722Y-136652637D01*
X217875284Y-137253352D01*
X217874716Y-137903795D01*
X200705040Y-137903795D01*
X200705179Y-137745029D01*
X200547942Y-137364485D01*
X200257046Y-137073081D01*
X199876777Y-136915180D01*
X199465029Y-136914821D01*
X199084485Y-137072058D01*
X198793081Y-137362954D01*
X198635180Y-137743223D01*
X198634821Y-138154971D01*
X191694987Y-138154971D01*
X191695179Y-137935029D01*
X191537942Y-137554485D01*
X191247046Y-137263081D01*
X190866777Y-137105180D01*
X190455029Y-137104821D01*
X190074485Y-137262058D01*
X189783081Y-137552954D01*
X189625180Y-137933223D01*
X189624821Y-138344971D01*
X155386638Y-138344971D01*
X155501961Y-138172378D01*
X155615000Y-137604093D01*
X155615000Y-137545907D01*
X155501961Y-136977622D01*
X155180054Y-136495853D01*
X154918229Y-136320907D01*
X162505000Y-136320907D01*
X162505000Y-136379093D01*
X162618039Y-136947378D01*
X162939946Y-137429147D01*
X163421715Y-137751054D01*
X163990000Y-137864093D01*
X164558285Y-137751054D01*
X165040054Y-137429147D01*
X165260000Y-137099974D01*
X165479946Y-137429147D01*
X165961715Y-137751054D01*
X166530000Y-137864093D01*
X167098285Y-137751054D01*
X167580054Y-137429147D01*
X167800000Y-137099974D01*
X168019946Y-137429147D01*
X168501715Y-137751054D01*
X169070000Y-137864093D01*
X169638285Y-137751054D01*
X170120054Y-137429147D01*
X170340000Y-137099974D01*
X170559946Y-137429147D01*
X171041715Y-137751054D01*
X171610000Y-137864093D01*
X172178285Y-137751054D01*
X172660054Y-137429147D01*
X172687850Y-137387548D01*
X172696838Y-137435317D01*
X172835910Y-137651441D01*
X173048110Y-137796431D01*
X173300000Y-137847440D01*
X175000000Y-137847440D01*
X175235317Y-137803162D01*
X175451441Y-137664090D01*
X175596431Y-137451890D01*
X175647440Y-137200000D01*
X175647440Y-135500000D01*
X175603162Y-135264683D01*
X175532565Y-135154971D01*
X178394821Y-135154971D01*
X178552058Y-135535515D01*
X178842954Y-135826919D01*
X179223223Y-135984820D01*
X179634971Y-135985179D01*
X180015515Y-135827942D01*
X180306919Y-135537046D01*
X180370635Y-135383599D01*
X215234699Y-135383599D01*
X215498281Y-136021515D01*
X215985918Y-136510004D01*
X216623373Y-136774699D01*
X217313599Y-136775301D01*
X217951515Y-136511719D01*
X218440004Y-136024082D01*
X218704699Y-135386627D01*
X218704701Y-135383599D01*
X220314699Y-135383599D01*
X220578281Y-136021515D01*
X221065918Y-136510004D01*
X221703373Y-136774699D01*
X222393599Y-136775301D01*
X223031515Y-136511719D01*
X223520004Y-136024082D01*
X223784699Y-135386627D01*
X223785301Y-134696401D01*
X223521719Y-134058485D01*
X223034082Y-133569996D01*
X222396627Y-133305301D01*
X221706401Y-133304699D01*
X221068485Y-133568281D01*
X220579996Y-134055918D01*
X220315301Y-134693373D01*
X220314699Y-135383599D01*
X218704701Y-135383599D01*
X218705301Y-134696401D01*
X218441719Y-134058485D01*
X217954082Y-133569996D01*
X217316627Y-133305301D01*
X216626401Y-133304699D01*
X215988485Y-133568281D01*
X215499996Y-134055918D01*
X215235301Y-134693373D01*
X215234699Y-135383599D01*
X180370635Y-135383599D01*
X180464820Y-135156777D01*
X180465179Y-134745029D01*
X180307942Y-134364485D01*
X180208602Y-134264971D01*
X203624821Y-134264971D01*
X203782058Y-134645515D01*
X204072954Y-134936919D01*
X204453223Y-135094820D01*
X204864971Y-135095179D01*
X205245515Y-134937942D01*
X205536919Y-134647046D01*
X205694820Y-134266777D01*
X205695179Y-133855029D01*
X205537942Y-133474485D01*
X205247046Y-133183081D01*
X204866777Y-133025180D01*
X204455029Y-133024821D01*
X204074485Y-133182058D01*
X203783081Y-133472954D01*
X203625180Y-133853223D01*
X203624821Y-134264971D01*
X180208602Y-134264971D01*
X180017046Y-134073081D01*
X179636777Y-133915180D01*
X179225029Y-133914821D01*
X178844485Y-134072058D01*
X178553081Y-134362954D01*
X178395180Y-134743223D01*
X178394821Y-135154971D01*
X175532565Y-135154971D01*
X175464090Y-135048559D01*
X175251890Y-134903569D01*
X175000000Y-134852560D01*
X173300000Y-134852560D01*
X173064683Y-134896838D01*
X172848559Y-135035910D01*
X172703569Y-135248110D01*
X172689914Y-135315541D01*
X172660054Y-135270853D01*
X172178285Y-134948946D01*
X171610000Y-134835907D01*
X171041715Y-134948946D01*
X170559946Y-135270853D01*
X170340000Y-135600026D01*
X170120054Y-135270853D01*
X169638285Y-134948946D01*
X169070000Y-134835907D01*
X168501715Y-134948946D01*
X168019946Y-135270853D01*
X167800000Y-135600026D01*
X167580054Y-135270853D01*
X167098285Y-134948946D01*
X166530000Y-134835907D01*
X165961715Y-134948946D01*
X165479946Y-135270853D01*
X165260000Y-135600026D01*
X165040054Y-135270853D01*
X164558285Y-134948946D01*
X163990000Y-134835907D01*
X163421715Y-134948946D01*
X162939946Y-135270853D01*
X162618039Y-135752622D01*
X162505000Y-136320907D01*
X154918229Y-136320907D01*
X154894422Y-136305000D01*
X155180054Y-136114147D01*
X155501961Y-135632378D01*
X155615000Y-135064093D01*
X155615000Y-135005907D01*
X155501961Y-134437622D01*
X155204108Y-133991851D01*
X162469699Y-133991851D01*
X162626936Y-134372395D01*
X162917832Y-134663799D01*
X163298101Y-134821700D01*
X163709849Y-134822059D01*
X164090393Y-134664822D01*
X164381797Y-134373926D01*
X164539698Y-133993657D01*
X164540057Y-133581909D01*
X164382820Y-133201365D01*
X164091924Y-132909961D01*
X163711655Y-132752060D01*
X163299907Y-132751701D01*
X162919363Y-132908938D01*
X162627959Y-133199834D01*
X162470058Y-133580103D01*
X162469699Y-133991851D01*
X155204108Y-133991851D01*
X155180054Y-133955853D01*
X154698285Y-133633946D01*
X154130000Y-133520907D01*
X153561715Y-133633946D01*
X153079946Y-133955853D01*
X152860000Y-134285026D01*
X152640054Y-133955853D01*
X152158285Y-133633946D01*
X151590000Y-133520907D01*
X151021715Y-133633946D01*
X150539946Y-133955853D01*
X150320000Y-134285026D01*
X150100054Y-133955853D01*
X149618285Y-133633946D01*
X149050000Y-133520907D01*
X148481715Y-133633946D01*
X147999946Y-133955853D01*
X147780000Y-134285026D01*
X147560054Y-133955853D01*
X147078285Y-133633946D01*
X146510000Y-133520907D01*
X145941715Y-133633946D01*
X145459946Y-133955853D01*
X145240000Y-134285026D01*
X145020054Y-133955853D01*
X144538285Y-133633946D01*
X143970000Y-133520907D01*
X143401715Y-133633946D01*
X142919946Y-133955853D01*
X142700000Y-134285026D01*
X142480054Y-133955853D01*
X141998285Y-133633946D01*
X141430000Y-133520907D01*
X140861715Y-133633946D01*
X140379946Y-133955853D01*
X140160000Y-134285026D01*
X139940054Y-133955853D01*
X139458285Y-133633946D01*
X138890000Y-133520907D01*
X138321715Y-133633946D01*
X137839946Y-133955853D01*
X137620000Y-134285026D01*
X137400054Y-133955853D01*
X136918285Y-133633946D01*
X136350000Y-133520907D01*
X135781715Y-133633946D01*
X135299946Y-133955853D01*
X134978039Y-134437622D01*
X134865000Y-135005907D01*
X134865000Y-135064093D01*
X134978039Y-135632378D01*
X135299946Y-136114147D01*
X135301179Y-136114971D01*
X135264683Y-136121838D01*
X135048559Y-136260910D01*
X134903569Y-136473110D01*
X134852560Y-136725000D01*
X129783969Y-136725000D01*
X129782252Y-132584971D01*
X183084821Y-132584971D01*
X183242058Y-132965515D01*
X183532954Y-133256919D01*
X183913223Y-133414820D01*
X184324971Y-133415179D01*
X184705515Y-133257942D01*
X184996919Y-132967046D01*
X185154820Y-132586777D01*
X185155179Y-132175029D01*
X184997942Y-131794485D01*
X184707046Y-131503081D01*
X184326777Y-131345180D01*
X183915029Y-131344821D01*
X183534485Y-131502058D01*
X183243081Y-131792954D01*
X183085180Y-132173223D01*
X183084821Y-132584971D01*
X129782252Y-132584971D01*
X129781671Y-131184971D01*
X174484821Y-131184971D01*
X174642058Y-131565515D01*
X174932954Y-131856919D01*
X175313223Y-132014820D01*
X175724971Y-132015179D01*
X176105515Y-131857942D01*
X176396919Y-131567046D01*
X176554820Y-131186777D01*
X176555179Y-130775029D01*
X176397942Y-130394485D01*
X176178811Y-130174971D01*
X186334821Y-130174971D01*
X186492058Y-130555515D01*
X186782954Y-130846919D01*
X187163223Y-131004820D01*
X187574971Y-131005179D01*
X187955515Y-130847942D01*
X188246919Y-130557046D01*
X188404820Y-130176777D01*
X188405179Y-129765029D01*
X188247942Y-129384485D01*
X187957046Y-129093081D01*
X187576777Y-128935180D01*
X187165029Y-128934821D01*
X186784485Y-129092058D01*
X186493081Y-129382954D01*
X186335180Y-129763223D01*
X186334821Y-130174971D01*
X176178811Y-130174971D01*
X176107046Y-130103081D01*
X175726777Y-129945180D01*
X175315029Y-129944821D01*
X174934485Y-130102058D01*
X174643081Y-130392954D01*
X174485180Y-130773223D01*
X174484821Y-131184971D01*
X129781671Y-131184971D01*
X129780252Y-127764971D01*
X155664821Y-127764971D01*
X155822058Y-128145515D01*
X156112954Y-128436919D01*
X156493223Y-128594820D01*
X156904971Y-128595179D01*
X157285515Y-128437942D01*
X157576919Y-128147046D01*
X157734820Y-127766777D01*
X157735179Y-127355029D01*
X157660781Y-127174971D01*
X180364821Y-127174971D01*
X180522058Y-127555515D01*
X180812954Y-127846919D01*
X181193223Y-128004820D01*
X181604971Y-128005179D01*
X181985515Y-127847942D01*
X182268837Y-127565114D01*
X182302058Y-127645515D01*
X182592954Y-127936919D01*
X182973223Y-128094820D01*
X183384971Y-128095179D01*
X183765515Y-127937942D01*
X184056919Y-127647046D01*
X184070237Y-127614971D01*
X190304821Y-127614971D01*
X190462058Y-127995515D01*
X190752954Y-128286919D01*
X191133223Y-128444820D01*
X191544971Y-128445179D01*
X191925515Y-128287942D01*
X192216919Y-127997046D01*
X192374820Y-127616777D01*
X192375179Y-127205029D01*
X192217942Y-126824485D01*
X191927046Y-126533081D01*
X191546777Y-126375180D01*
X191135029Y-126374821D01*
X190754485Y-126532058D01*
X190463081Y-126822954D01*
X190305180Y-127203223D01*
X190304821Y-127614971D01*
X184070237Y-127614971D01*
X184214820Y-127266777D01*
X184215179Y-126855029D01*
X184057942Y-126474485D01*
X183767046Y-126183081D01*
X183386777Y-126025180D01*
X182975029Y-126024821D01*
X182594485Y-126182058D01*
X182311163Y-126464886D01*
X182277942Y-126384485D01*
X181987046Y-126093081D01*
X181606777Y-125935180D01*
X181195029Y-125934821D01*
X180814485Y-126092058D01*
X180523081Y-126382954D01*
X180365180Y-126763223D01*
X180364821Y-127174971D01*
X157660781Y-127174971D01*
X157577942Y-126974485D01*
X157532589Y-126929053D01*
X157763223Y-127024820D01*
X158174971Y-127025179D01*
X158555515Y-126867942D01*
X158846919Y-126577046D01*
X158997265Y-126214971D01*
X178104821Y-126214971D01*
X178262058Y-126595515D01*
X178552954Y-126886919D01*
X178933223Y-127044820D01*
X179344971Y-127045179D01*
X179725515Y-126887942D01*
X180016919Y-126597046D01*
X180174820Y-126216777D01*
X180175179Y-125805029D01*
X180017942Y-125424485D01*
X179727046Y-125133081D01*
X179346777Y-124975180D01*
X178935029Y-124974821D01*
X178554485Y-125132058D01*
X178263081Y-125422954D01*
X178105180Y-125803223D01*
X178104821Y-126214971D01*
X158997265Y-126214971D01*
X159004820Y-126196777D01*
X159005179Y-125785029D01*
X158917586Y-125573036D01*
X159120534Y-125776339D01*
X159500803Y-125934240D01*
X159912551Y-125934599D01*
X160293095Y-125777362D01*
X160584499Y-125486466D01*
X160742400Y-125106197D01*
X160742759Y-124694449D01*
X160585522Y-124313905D01*
X160332930Y-124060872D01*
X160358875Y-124034971D01*
X176164821Y-124034971D01*
X176322058Y-124415515D01*
X176612954Y-124706919D01*
X176993223Y-124864820D01*
X177404971Y-124865179D01*
X177785515Y-124707942D01*
X178076919Y-124417046D01*
X178234820Y-124036777D01*
X178235179Y-123625029D01*
X178077942Y-123244485D01*
X177787046Y-122953081D01*
X177406777Y-122795180D01*
X176995029Y-122794821D01*
X176614485Y-122952058D01*
X176323081Y-123242954D01*
X176165180Y-123623223D01*
X176164821Y-124034971D01*
X160358875Y-124034971D01*
X160426919Y-123967046D01*
X160584820Y-123586777D01*
X160585179Y-123175029D01*
X160427942Y-122794485D01*
X160137046Y-122503081D01*
X159756777Y-122345180D01*
X159345029Y-122344821D01*
X158964485Y-122502058D01*
X158673081Y-122792954D01*
X158515180Y-123173223D01*
X158514821Y-123584971D01*
X158672058Y-123965515D01*
X158924650Y-124218548D01*
X158830661Y-124312374D01*
X158672760Y-124692643D01*
X158672401Y-125104391D01*
X158759994Y-125316384D01*
X158557046Y-125113081D01*
X158176777Y-124955180D01*
X157765029Y-124954821D01*
X157384485Y-125112058D01*
X157093081Y-125402954D01*
X156935180Y-125783223D01*
X156934821Y-126194971D01*
X157092058Y-126575515D01*
X157137411Y-126620947D01*
X156906777Y-126525180D01*
X156495029Y-126524821D01*
X156114485Y-126682058D01*
X155823081Y-126972954D01*
X155665180Y-127353223D01*
X155664821Y-127764971D01*
X129780252Y-127764971D01*
X129778915Y-124544971D01*
X151804821Y-124544971D01*
X151962058Y-124925515D01*
X152252954Y-125216919D01*
X152633223Y-125374820D01*
X153044971Y-125375179D01*
X153425515Y-125217942D01*
X153716919Y-124927046D01*
X153874820Y-124546777D01*
X153875179Y-124135029D01*
X153717942Y-123754485D01*
X153427046Y-123463081D01*
X153046777Y-123305180D01*
X152635029Y-123304821D01*
X152254485Y-123462058D01*
X151963081Y-123752954D01*
X151805180Y-124133223D01*
X151804821Y-124544971D01*
X129778915Y-124544971D01*
X129778293Y-123044971D01*
X153814821Y-123044971D01*
X153972058Y-123425515D01*
X154262954Y-123716919D01*
X154643223Y-123874820D01*
X155054971Y-123875179D01*
X155435515Y-123717942D01*
X155726919Y-123427046D01*
X155884820Y-123046777D01*
X155884990Y-122851573D01*
X156013223Y-122904820D01*
X156424971Y-122905179D01*
X156805515Y-122747942D01*
X157096919Y-122457046D01*
X157232057Y-122131597D01*
X157471428Y-122131806D01*
X157851972Y-121974569D01*
X157971778Y-121854971D01*
X163184821Y-121854971D01*
X163342058Y-122235515D01*
X163632954Y-122526919D01*
X164013223Y-122684820D01*
X164424971Y-122685179D01*
X164805515Y-122527942D01*
X165096919Y-122237046D01*
X165254820Y-121856777D01*
X165255179Y-121445029D01*
X165097942Y-121064485D01*
X164807046Y-120773081D01*
X164426777Y-120615180D01*
X164015029Y-120614821D01*
X163634485Y-120772058D01*
X163343081Y-121062954D01*
X163185180Y-121443223D01*
X163184821Y-121854971D01*
X157971778Y-121854971D01*
X158143376Y-121683673D01*
X158301277Y-121303404D01*
X158301636Y-120891656D01*
X158144399Y-120511112D01*
X157853503Y-120219708D01*
X157473234Y-120061807D01*
X157061486Y-120061448D01*
X156680942Y-120218685D01*
X156389538Y-120509581D01*
X156254400Y-120835030D01*
X156015029Y-120834821D01*
X155634485Y-120992058D01*
X155343081Y-121282954D01*
X155185180Y-121663223D01*
X155185010Y-121858427D01*
X155056777Y-121805180D01*
X154645029Y-121804821D01*
X154264485Y-121962058D01*
X153973081Y-122252954D01*
X153815180Y-122633223D01*
X153814821Y-123044971D01*
X129778293Y-123044971D01*
X129776926Y-119749994D01*
X162906403Y-119749994D01*
X163063640Y-120130538D01*
X163354536Y-120421942D01*
X163734805Y-120579843D01*
X164146553Y-120580202D01*
X164231818Y-120544971D01*
X169574821Y-120544971D01*
X169732058Y-120925515D01*
X169801288Y-120994866D01*
X169733081Y-121062954D01*
X169575180Y-121443223D01*
X169574821Y-121854971D01*
X169732058Y-122235515D01*
X170022954Y-122526919D01*
X170403223Y-122684820D01*
X170814971Y-122685179D01*
X171057493Y-122584971D01*
X179414821Y-122584971D01*
X179572058Y-122965515D01*
X179731192Y-123124927D01*
X179683081Y-123172954D01*
X179525180Y-123553223D01*
X179524821Y-123964971D01*
X179682058Y-124345515D01*
X179972954Y-124636919D01*
X180353223Y-124794820D01*
X180764971Y-124795179D01*
X181145515Y-124637942D01*
X181436919Y-124347046D01*
X181500065Y-124194971D01*
X183204821Y-124194971D01*
X183362058Y-124575515D01*
X183652954Y-124866919D01*
X184033223Y-125024820D01*
X184444971Y-125025179D01*
X184825515Y-124867942D01*
X185116919Y-124577046D01*
X185274820Y-124196777D01*
X185275179Y-123785029D01*
X185117942Y-123404485D01*
X184827046Y-123113081D01*
X184446777Y-122955180D01*
X184035029Y-122954821D01*
X183654485Y-123112058D01*
X183363081Y-123402954D01*
X183205180Y-123783223D01*
X183204821Y-124194971D01*
X181500065Y-124194971D01*
X181594820Y-123966777D01*
X181595179Y-123555029D01*
X181437942Y-123174485D01*
X181278808Y-123015073D01*
X181326919Y-122967046D01*
X181377608Y-122844971D01*
X195594821Y-122844971D01*
X195752058Y-123225515D01*
X196042954Y-123516919D01*
X196423223Y-123674820D01*
X196834971Y-123675179D01*
X197215515Y-123517942D01*
X197506919Y-123227046D01*
X197664820Y-122846777D01*
X197665179Y-122435029D01*
X197507942Y-122054485D01*
X197217046Y-121763081D01*
X196836777Y-121605180D01*
X196425029Y-121604821D01*
X196044485Y-121762058D01*
X195753081Y-122052954D01*
X195595180Y-122433223D01*
X195594821Y-122844971D01*
X181377608Y-122844971D01*
X181484820Y-122586777D01*
X181485179Y-122175029D01*
X181402518Y-121974971D01*
X182394821Y-121974971D01*
X182552058Y-122355515D01*
X182842954Y-122646919D01*
X183223223Y-122804820D01*
X183634971Y-122805179D01*
X184015515Y-122647942D01*
X184306919Y-122357046D01*
X184464820Y-121976777D01*
X184465179Y-121565029D01*
X184307942Y-121184485D01*
X184017046Y-120893081D01*
X183636777Y-120735180D01*
X183225029Y-120734821D01*
X182844485Y-120892058D01*
X182553081Y-121182954D01*
X182395180Y-121563223D01*
X182394821Y-121974971D01*
X181402518Y-121974971D01*
X181327942Y-121794485D01*
X181037046Y-121503081D01*
X180656777Y-121345180D01*
X180245029Y-121344821D01*
X179864485Y-121502058D01*
X179573081Y-121792954D01*
X179415180Y-122173223D01*
X179414821Y-122584971D01*
X171057493Y-122584971D01*
X171195515Y-122527942D01*
X171486919Y-122237046D01*
X171644820Y-121856777D01*
X171645179Y-121445029D01*
X171487942Y-121064485D01*
X171418712Y-120995134D01*
X171486919Y-120927046D01*
X171644820Y-120546777D01*
X171645179Y-120135029D01*
X171487942Y-119754485D01*
X171197046Y-119463081D01*
X171153433Y-119444971D01*
X176194821Y-119444971D01*
X176352058Y-119825515D01*
X176642954Y-120116919D01*
X177023223Y-120274820D01*
X177434971Y-120275179D01*
X177815515Y-120117942D01*
X178106919Y-119827046D01*
X178264820Y-119446777D01*
X178265179Y-119035029D01*
X178107942Y-118654485D01*
X177817046Y-118363081D01*
X177436777Y-118205180D01*
X177025029Y-118204821D01*
X176644485Y-118362058D01*
X176353081Y-118652954D01*
X176195180Y-119033223D01*
X176194821Y-119444971D01*
X171153433Y-119444971D01*
X170816777Y-119305180D01*
X170405029Y-119304821D01*
X170024485Y-119462058D01*
X169733081Y-119752954D01*
X169575180Y-120133223D01*
X169574821Y-120544971D01*
X164231818Y-120544971D01*
X164527097Y-120422965D01*
X164818501Y-120132069D01*
X164976402Y-119751800D01*
X164976761Y-119340052D01*
X164819524Y-118959508D01*
X164528628Y-118668104D01*
X164148359Y-118510203D01*
X163736611Y-118509844D01*
X163356067Y-118667081D01*
X163064663Y-118957977D01*
X162906762Y-119338246D01*
X162906403Y-119749994D01*
X129776926Y-119749994D01*
X129776048Y-117635167D01*
X184989838Y-117635167D01*
X185131883Y-117978943D01*
X185152710Y-117999806D01*
X185132808Y-118019673D01*
X184990162Y-118363201D01*
X184989838Y-118735167D01*
X185131883Y-119078943D01*
X185152710Y-119099806D01*
X185132808Y-119119673D01*
X184990162Y-119463201D01*
X184989838Y-119835167D01*
X185131883Y-120178943D01*
X185394673Y-120442192D01*
X185738201Y-120584838D01*
X186110167Y-120585162D01*
X186453943Y-120443117D01*
X186474806Y-120422290D01*
X186494673Y-120442192D01*
X186838201Y-120584838D01*
X187210167Y-120585162D01*
X187553943Y-120443117D01*
X187574806Y-120422290D01*
X187594673Y-120442192D01*
X187938201Y-120584838D01*
X188310167Y-120585162D01*
X188653943Y-120443117D01*
X188917192Y-120180327D01*
X189059838Y-119836799D01*
X189060162Y-119464833D01*
X188918117Y-119121057D01*
X188897290Y-119100194D01*
X188917192Y-119080327D01*
X189059838Y-118736799D01*
X189060162Y-118364833D01*
X188918117Y-118021057D01*
X188897290Y-118000194D01*
X188917192Y-117980327D01*
X189059838Y-117636799D01*
X189060162Y-117264833D01*
X188918117Y-116921057D01*
X188655327Y-116657808D01*
X188311799Y-116515162D01*
X187939833Y-116514838D01*
X187596057Y-116656883D01*
X187575194Y-116677710D01*
X187555327Y-116657808D01*
X187211799Y-116515162D01*
X186839833Y-116514838D01*
X186496057Y-116656883D01*
X186475194Y-116677710D01*
X186455327Y-116657808D01*
X186111799Y-116515162D01*
X185739833Y-116514838D01*
X185396057Y-116656883D01*
X185132808Y-116919673D01*
X184990162Y-117263201D01*
X184989838Y-117635167D01*
X129776048Y-117635167D01*
X129774959Y-115014188D01*
X149998814Y-115014188D01*
X150156051Y-115394732D01*
X150446947Y-115686136D01*
X150827216Y-115844037D01*
X151238964Y-115844396D01*
X151619508Y-115687159D01*
X151910912Y-115396263D01*
X152068813Y-115015994D01*
X152068822Y-115004971D01*
X175634821Y-115004971D01*
X175792058Y-115385515D01*
X176082954Y-115676919D01*
X176463223Y-115834820D01*
X176874971Y-115835179D01*
X177255515Y-115677942D01*
X177546919Y-115387046D01*
X177704820Y-115006777D01*
X177705179Y-114595029D01*
X177547942Y-114214485D01*
X177257046Y-113923081D01*
X176876777Y-113765180D01*
X176465029Y-113764821D01*
X176084485Y-113922058D01*
X175793081Y-114212954D01*
X175635180Y-114593223D01*
X175634821Y-115004971D01*
X152068822Y-115004971D01*
X152069172Y-114604246D01*
X151911935Y-114223702D01*
X151882736Y-114194452D01*
X152269967Y-114194790D01*
X152650511Y-114037553D01*
X152941915Y-113746657D01*
X153072025Y-113433316D01*
X156665969Y-113433316D01*
X156823206Y-113813860D01*
X157114102Y-114105264D01*
X157494371Y-114263165D01*
X157906119Y-114263524D01*
X158286663Y-114106287D01*
X158578067Y-113815391D01*
X158735968Y-113435122D01*
X158736327Y-113023374D01*
X158579090Y-112642830D01*
X158288194Y-112351426D01*
X157907925Y-112193525D01*
X157496177Y-112193166D01*
X157115633Y-112350403D01*
X156824229Y-112641299D01*
X156666328Y-113021568D01*
X156665969Y-113433316D01*
X153072025Y-113433316D01*
X153099816Y-113366388D01*
X153100175Y-112954640D01*
X152942938Y-112574096D01*
X152652042Y-112282692D01*
X152271773Y-112124791D01*
X151860025Y-112124432D01*
X151479481Y-112281669D01*
X151188077Y-112572565D01*
X151030176Y-112952834D01*
X151029817Y-113364582D01*
X151187054Y-113745126D01*
X151216253Y-113774376D01*
X150829022Y-113774038D01*
X150448478Y-113931275D01*
X150157074Y-114222171D01*
X149999173Y-114602440D01*
X149998814Y-115014188D01*
X129774959Y-115014188D01*
X129773676Y-111924971D01*
X130774821Y-111924971D01*
X130932058Y-112305515D01*
X131222954Y-112596919D01*
X131603223Y-112754820D01*
X132014971Y-112755179D01*
X132395515Y-112597942D01*
X132686919Y-112307046D01*
X132844820Y-111926777D01*
X132844926Y-111804971D01*
X148474821Y-111804971D01*
X148632058Y-112185515D01*
X148922954Y-112476919D01*
X149303223Y-112634820D01*
X149714971Y-112635179D01*
X150095515Y-112477942D01*
X150386919Y-112187046D01*
X150544820Y-111806777D01*
X150544873Y-111744971D01*
X197954821Y-111744971D01*
X198112058Y-112125515D01*
X198402954Y-112416919D01*
X198783223Y-112574820D01*
X199194971Y-112575179D01*
X199575515Y-112417942D01*
X199866919Y-112127046D01*
X200024820Y-111746777D01*
X200025179Y-111335029D01*
X199867942Y-110954485D01*
X199577046Y-110663081D01*
X199196777Y-110505180D01*
X198785029Y-110504821D01*
X198404485Y-110662058D01*
X198113081Y-110952954D01*
X197955180Y-111333223D01*
X197954821Y-111744971D01*
X150544873Y-111744971D01*
X150545179Y-111395029D01*
X150387942Y-111014485D01*
X150097046Y-110723081D01*
X149981184Y-110674971D01*
X188854821Y-110674971D01*
X189012058Y-111055515D01*
X189302954Y-111346919D01*
X189683223Y-111504820D01*
X190094971Y-111505179D01*
X190475515Y-111347942D01*
X190766919Y-111057046D01*
X190924820Y-110676777D01*
X190925179Y-110265029D01*
X190767942Y-109884485D01*
X190477046Y-109593081D01*
X190096777Y-109435180D01*
X189685029Y-109434821D01*
X189304485Y-109592058D01*
X189013081Y-109882954D01*
X188855180Y-110263223D01*
X188854821Y-110674971D01*
X149981184Y-110674971D01*
X149716777Y-110565180D01*
X149305029Y-110564821D01*
X148924485Y-110722058D01*
X148633081Y-111012954D01*
X148475180Y-111393223D01*
X148474821Y-111804971D01*
X132844926Y-111804971D01*
X132845179Y-111515029D01*
X132687942Y-111134485D01*
X132397046Y-110843081D01*
X132016777Y-110685180D01*
X131605029Y-110684821D01*
X131224485Y-110842058D01*
X130933081Y-111132954D01*
X130775180Y-111513223D01*
X130774821Y-111924971D01*
X129773676Y-111924971D01*
X129772880Y-110004971D01*
X141314821Y-110004971D01*
X141472058Y-110385515D01*
X141762954Y-110676919D01*
X142143223Y-110834820D01*
X142554971Y-110835179D01*
X142935515Y-110677942D01*
X143018630Y-110594971D01*
X145484821Y-110594971D01*
X145642058Y-110975515D01*
X145932954Y-111266919D01*
X146313223Y-111424820D01*
X146724971Y-111425179D01*
X147105515Y-111267942D01*
X147396919Y-110977046D01*
X147554820Y-110596777D01*
X147555179Y-110185029D01*
X147397942Y-109804485D01*
X147186298Y-109592471D01*
X173377321Y-109592471D01*
X173534558Y-109973015D01*
X173825454Y-110264419D01*
X174205723Y-110422320D01*
X174617471Y-110422679D01*
X174998015Y-110265442D01*
X175289419Y-109974546D01*
X175447320Y-109594277D01*
X175447679Y-109182529D01*
X175304072Y-108834971D01*
X193034821Y-108834971D01*
X193192058Y-109215515D01*
X193482954Y-109506919D01*
X193863223Y-109664820D01*
X194274971Y-109665179D01*
X194655515Y-109507942D01*
X194946919Y-109217046D01*
X195104820Y-108836777D01*
X195105179Y-108425029D01*
X194947942Y-108044485D01*
X194657046Y-107753081D01*
X194276777Y-107595180D01*
X193865029Y-107594821D01*
X193484485Y-107752058D01*
X193193081Y-108042954D01*
X193035180Y-108423223D01*
X193034821Y-108834971D01*
X175304072Y-108834971D01*
X175290442Y-108801985D01*
X174999546Y-108510581D01*
X174619277Y-108352680D01*
X174207529Y-108352321D01*
X173826985Y-108509558D01*
X173535581Y-108800454D01*
X173377680Y-109180723D01*
X173377321Y-109592471D01*
X147186298Y-109592471D01*
X147107046Y-109513081D01*
X146726777Y-109355180D01*
X146315029Y-109354821D01*
X145934485Y-109512058D01*
X145643081Y-109802954D01*
X145485180Y-110183223D01*
X145484821Y-110594971D01*
X143018630Y-110594971D01*
X143226919Y-110387046D01*
X143384820Y-110006777D01*
X143385179Y-109595029D01*
X143227942Y-109214485D01*
X142937046Y-108923081D01*
X142724853Y-108834971D01*
X144304821Y-108834971D01*
X144462058Y-109215515D01*
X144752954Y-109506919D01*
X145133223Y-109664820D01*
X145544971Y-109665179D01*
X145925515Y-109507942D01*
X146216919Y-109217046D01*
X146374820Y-108836777D01*
X146375179Y-108425029D01*
X146217942Y-108044485D01*
X145927046Y-107753081D01*
X145546777Y-107595180D01*
X145135029Y-107594821D01*
X144754485Y-107752058D01*
X144463081Y-108042954D01*
X144305180Y-108423223D01*
X144304821Y-108834971D01*
X142724853Y-108834971D01*
X142556777Y-108765180D01*
X142145029Y-108764821D01*
X141764485Y-108922058D01*
X141473081Y-109212954D01*
X141315180Y-109593223D01*
X141314821Y-110004971D01*
X129772880Y-110004971D01*
X129771550Y-106799445D01*
X147603139Y-106799445D01*
X147760376Y-107179989D01*
X148051272Y-107471393D01*
X148431541Y-107629294D01*
X148843289Y-107629653D01*
X149223833Y-107472416D01*
X149515237Y-107181520D01*
X149648389Y-106860853D01*
X149873840Y-107086697D01*
X150254109Y-107244598D01*
X150665857Y-107244957D01*
X151046401Y-107087720D01*
X151337805Y-106796824D01*
X151464020Y-106492863D01*
X152592703Y-106492863D01*
X152749940Y-106873407D01*
X153040836Y-107164811D01*
X153421105Y-107322712D01*
X153832853Y-107323071D01*
X154092847Y-107215644D01*
X154092783Y-107288830D01*
X154250020Y-107669374D01*
X154540916Y-107960778D01*
X154921185Y-108118679D01*
X155332933Y-108119038D01*
X155713477Y-107961801D01*
X156004881Y-107670905D01*
X156162782Y-107290636D01*
X156163141Y-106878888D01*
X156005904Y-106498344D01*
X155832834Y-106324971D01*
X198564821Y-106324971D01*
X198722058Y-106705515D01*
X199012954Y-106996919D01*
X199393223Y-107154820D01*
X199804971Y-107155179D01*
X200185515Y-106997942D01*
X200476919Y-106707046D01*
X200614808Y-106374971D01*
X202874821Y-106374971D01*
X203032058Y-106755515D01*
X203322954Y-107046919D01*
X203703223Y-107204820D01*
X204114971Y-107205179D01*
X204495515Y-107047942D01*
X204786919Y-106757046D01*
X204944820Y-106376777D01*
X204945179Y-105965029D01*
X204787942Y-105584485D01*
X204497046Y-105293081D01*
X204116777Y-105135180D01*
X203705029Y-105134821D01*
X203324485Y-105292058D01*
X203033081Y-105582954D01*
X202875180Y-105963223D01*
X202874821Y-106374971D01*
X200614808Y-106374971D01*
X200634820Y-106326777D01*
X200635179Y-105915029D01*
X200477942Y-105534485D01*
X200187046Y-105243081D01*
X199806777Y-105085180D01*
X199395029Y-105084821D01*
X199014485Y-105242058D01*
X198723081Y-105532954D01*
X198565180Y-105913223D01*
X198564821Y-106324971D01*
X155832834Y-106324971D01*
X155715008Y-106206940D01*
X155334739Y-106049039D01*
X154922991Y-106048680D01*
X154662997Y-106156107D01*
X154663061Y-106082921D01*
X154505824Y-105702377D01*
X154214928Y-105410973D01*
X153834659Y-105253072D01*
X153422911Y-105252713D01*
X153042367Y-105409950D01*
X152750963Y-105700846D01*
X152593062Y-106081115D01*
X152592703Y-106492863D01*
X151464020Y-106492863D01*
X151491587Y-106426474D01*
X151594971Y-106426564D01*
X151975515Y-106269327D01*
X152266919Y-105978431D01*
X152424820Y-105598162D01*
X152425179Y-105186414D01*
X152267942Y-104805870D01*
X151977046Y-104514466D01*
X151596777Y-104356565D01*
X151185029Y-104356206D01*
X150804485Y-104513443D01*
X150513081Y-104804339D01*
X150359299Y-105174689D01*
X150255915Y-105174599D01*
X149875371Y-105331836D01*
X149583967Y-105622732D01*
X149450815Y-105943399D01*
X149225364Y-105717555D01*
X148845095Y-105559654D01*
X148433347Y-105559295D01*
X148052803Y-105716532D01*
X147761399Y-106007428D01*
X147603498Y-106387697D01*
X147603139Y-106799445D01*
X129771550Y-106799445D01*
X129770796Y-104984971D01*
X134864821Y-104984971D01*
X135022058Y-105365515D01*
X135312954Y-105656919D01*
X135693223Y-105814820D01*
X136104971Y-105815179D01*
X136485515Y-105657942D01*
X136776919Y-105367046D01*
X136934820Y-104986777D01*
X136935179Y-104575029D01*
X136873177Y-104424971D01*
X138604821Y-104424971D01*
X138762058Y-104805515D01*
X139052954Y-105096919D01*
X139433223Y-105254820D01*
X139844971Y-105255179D01*
X140225515Y-105097942D01*
X140516919Y-104807046D01*
X140674820Y-104426777D01*
X140674945Y-104282572D01*
X145334409Y-104282572D01*
X145491646Y-104663116D01*
X145782542Y-104954520D01*
X146162811Y-105112421D01*
X146574559Y-105112780D01*
X146955103Y-104955543D01*
X147246507Y-104664647D01*
X147404408Y-104284378D01*
X147404767Y-103872630D01*
X147247530Y-103492086D01*
X146956634Y-103200682D01*
X146576365Y-103042781D01*
X146164617Y-103042422D01*
X145784073Y-103199659D01*
X145492669Y-103490555D01*
X145334768Y-103870824D01*
X145334409Y-104282572D01*
X140674945Y-104282572D01*
X140675179Y-104015029D01*
X140517942Y-103634485D01*
X140227046Y-103343081D01*
X139846777Y-103185180D01*
X139435029Y-103184821D01*
X139054485Y-103342058D01*
X138763081Y-103632954D01*
X138605180Y-104013223D01*
X138604821Y-104424971D01*
X136873177Y-104424971D01*
X136777942Y-104194485D01*
X136487046Y-103903081D01*
X136106777Y-103745180D01*
X135695029Y-103744821D01*
X135314485Y-103902058D01*
X135023081Y-104192954D01*
X134865180Y-104573223D01*
X134864821Y-104984971D01*
X129770796Y-104984971D01*
X129769672Y-102274971D01*
X145964821Y-102274971D01*
X146122058Y-102655515D01*
X146412954Y-102946919D01*
X146793223Y-103104820D01*
X147204971Y-103105179D01*
X147585515Y-102947942D01*
X147876919Y-102657046D01*
X148034820Y-102276777D01*
X148035179Y-101865029D01*
X147877942Y-101484485D01*
X147688759Y-101294971D01*
X149364821Y-101294971D01*
X149522058Y-101675515D01*
X149812954Y-101966919D01*
X150193223Y-102124820D01*
X150218484Y-102124842D01*
X150029561Y-102313436D01*
X149871660Y-102693705D01*
X149871301Y-103105453D01*
X150028538Y-103485997D01*
X150319434Y-103777401D01*
X150699703Y-103935302D01*
X151111451Y-103935661D01*
X151491995Y-103778424D01*
X151783399Y-103487528D01*
X151878768Y-103257851D01*
X154504261Y-103257851D01*
X154661498Y-103638395D01*
X154952394Y-103929799D01*
X155332663Y-104087700D01*
X155624634Y-104087955D01*
X155624401Y-104355129D01*
X155781638Y-104735673D01*
X156072534Y-105027077D01*
X156452803Y-105184978D01*
X156864551Y-105185337D01*
X157245095Y-105028100D01*
X157536499Y-104737204D01*
X157694400Y-104356935D01*
X157694759Y-103945187D01*
X157537522Y-103564643D01*
X157246626Y-103273239D01*
X156866357Y-103115338D01*
X156574386Y-103115083D01*
X156574516Y-102964971D01*
X167014821Y-102964971D01*
X167172058Y-103345515D01*
X167462954Y-103636919D01*
X167843223Y-103794820D01*
X168254971Y-103795179D01*
X168635515Y-103637942D01*
X168638491Y-103634971D01*
X181074821Y-103634971D01*
X181232058Y-104015515D01*
X181522954Y-104306919D01*
X181903223Y-104464820D01*
X182314971Y-104465179D01*
X182695515Y-104307942D01*
X182986919Y-104017046D01*
X183035077Y-103901068D01*
X183034821Y-104194971D01*
X183192058Y-104575515D01*
X183482954Y-104866919D01*
X183863223Y-105024820D01*
X184274971Y-105025179D01*
X184655515Y-104867942D01*
X184946919Y-104577046D01*
X185104820Y-104196777D01*
X185105179Y-103785029D01*
X185043177Y-103634971D01*
X187284821Y-103634971D01*
X187442058Y-104015515D01*
X187732954Y-104306919D01*
X188113223Y-104464820D01*
X188524971Y-104465179D01*
X188905515Y-104307942D01*
X189196919Y-104017046D01*
X189354820Y-103636777D01*
X189355179Y-103225029D01*
X189197942Y-102844485D01*
X188907046Y-102553081D01*
X188526777Y-102395180D01*
X188115029Y-102394821D01*
X187734485Y-102552058D01*
X187443081Y-102842954D01*
X187285180Y-103223223D01*
X187284821Y-103634971D01*
X185043177Y-103634971D01*
X184947942Y-103404485D01*
X184657046Y-103113081D01*
X184276777Y-102955180D01*
X183865029Y-102954821D01*
X183484485Y-103112058D01*
X183193081Y-103402954D01*
X183144923Y-103518932D01*
X183145179Y-103225029D01*
X182987942Y-102844485D01*
X182697046Y-102553081D01*
X182316777Y-102395180D01*
X181905029Y-102394821D01*
X181524485Y-102552058D01*
X181233081Y-102842954D01*
X181075180Y-103223223D01*
X181074821Y-103634971D01*
X168638491Y-103634971D01*
X168926919Y-103347046D01*
X169084820Y-102966777D01*
X169085179Y-102555029D01*
X168927942Y-102174485D01*
X168637046Y-101883081D01*
X168256777Y-101725180D01*
X167845029Y-101724821D01*
X167464485Y-101882058D01*
X167173081Y-102172954D01*
X167015180Y-102553223D01*
X167014821Y-102964971D01*
X156574516Y-102964971D01*
X156574619Y-102847909D01*
X156417382Y-102467365D01*
X156126486Y-102175961D01*
X155746217Y-102018060D01*
X155334469Y-102017701D01*
X154953925Y-102174938D01*
X154662521Y-102465834D01*
X154504620Y-102846103D01*
X154504261Y-103257851D01*
X151878768Y-103257851D01*
X151941300Y-103107259D01*
X151941659Y-102695511D01*
X151889693Y-102569743D01*
X152193223Y-102695779D01*
X152604971Y-102696138D01*
X152985515Y-102538901D01*
X153276919Y-102248005D01*
X153434820Y-101867736D01*
X153435179Y-101455988D01*
X153277942Y-101075444D01*
X153227557Y-101024971D01*
X176404821Y-101024971D01*
X176562058Y-101405515D01*
X176852954Y-101696919D01*
X177233223Y-101854820D01*
X177644971Y-101855179D01*
X178025515Y-101697942D01*
X178316919Y-101407046D01*
X178474820Y-101026777D01*
X178475179Y-100615029D01*
X178317942Y-100234485D01*
X178027046Y-99943081D01*
X177646777Y-99785180D01*
X177235029Y-99784821D01*
X176854485Y-99942058D01*
X176563081Y-100232954D01*
X176405180Y-100613223D01*
X176404821Y-101024971D01*
X153227557Y-101024971D01*
X152987046Y-100784040D01*
X152606777Y-100626139D01*
X152195029Y-100625780D01*
X151814485Y-100783017D01*
X151523081Y-101073913D01*
X151434829Y-101286448D01*
X151435179Y-100885029D01*
X151277942Y-100504485D01*
X150987046Y-100213081D01*
X150606777Y-100055180D01*
X150195029Y-100054821D01*
X149814485Y-100212058D01*
X149523081Y-100502954D01*
X149365180Y-100883223D01*
X149364821Y-101294971D01*
X147688759Y-101294971D01*
X147587046Y-101193081D01*
X147206777Y-101035180D01*
X146795029Y-101034821D01*
X146414485Y-101192058D01*
X146123081Y-101482954D01*
X145965180Y-101863223D01*
X145964821Y-102274971D01*
X129769672Y-102274971D01*
X129768429Y-99280211D01*
X151109551Y-99280211D01*
X151266788Y-99660755D01*
X151557684Y-99952159D01*
X151937953Y-100110060D01*
X152349701Y-100110419D01*
X152730245Y-99953182D01*
X152888732Y-99794971D01*
X155844821Y-99794971D01*
X156002058Y-100175515D01*
X156292954Y-100466919D01*
X156673223Y-100624820D01*
X157084971Y-100625179D01*
X157465515Y-100467942D01*
X157748644Y-100185306D01*
X160124131Y-100185306D01*
X160281368Y-100565850D01*
X160572264Y-100857254D01*
X160952533Y-101015155D01*
X161364281Y-101015514D01*
X161744825Y-100858277D01*
X162036229Y-100567381D01*
X162194130Y-100187112D01*
X162194489Y-99775364D01*
X162181931Y-99744971D01*
X167674821Y-99744971D01*
X167832058Y-100125515D01*
X168122954Y-100416919D01*
X168503223Y-100574820D01*
X168914971Y-100575179D01*
X169295515Y-100417942D01*
X169586919Y-100127046D01*
X169744820Y-99746777D01*
X169745179Y-99335029D01*
X169587942Y-98954485D01*
X169297046Y-98663081D01*
X168916777Y-98505180D01*
X168505029Y-98504821D01*
X168124485Y-98662058D01*
X167833081Y-98952954D01*
X167675180Y-99333223D01*
X167674821Y-99744971D01*
X162181931Y-99744971D01*
X162037252Y-99394820D01*
X161746356Y-99103416D01*
X161366087Y-98945515D01*
X160954339Y-98945156D01*
X160573795Y-99102393D01*
X160282391Y-99393289D01*
X160124490Y-99773558D01*
X160124131Y-100185306D01*
X157748644Y-100185306D01*
X157756919Y-100177046D01*
X157914820Y-99796777D01*
X157915179Y-99385029D01*
X157757942Y-99004485D01*
X157467046Y-98713081D01*
X157086777Y-98555180D01*
X156675029Y-98554821D01*
X156294485Y-98712058D01*
X156003081Y-99002954D01*
X155845180Y-99383223D01*
X155844821Y-99794971D01*
X152888732Y-99794971D01*
X153021649Y-99662286D01*
X153179550Y-99282017D01*
X153179909Y-98870269D01*
X153022672Y-98489725D01*
X152731776Y-98198321D01*
X152351507Y-98040420D01*
X151939759Y-98040061D01*
X151559215Y-98197298D01*
X151267811Y-98488194D01*
X151109910Y-98868463D01*
X151109551Y-99280211D01*
X129768429Y-99280211D01*
X129767777Y-97710491D01*
X141220061Y-97710491D01*
X141377298Y-98091035D01*
X141668194Y-98382439D01*
X142048463Y-98540340D01*
X142460211Y-98540699D01*
X142840755Y-98383462D01*
X143132159Y-98092566D01*
X143290060Y-97712297D01*
X143290287Y-97451411D01*
X152533221Y-97451411D01*
X152690458Y-97831955D01*
X152981354Y-98123359D01*
X153361623Y-98281260D01*
X153773371Y-98281619D01*
X154153915Y-98124382D01*
X154283551Y-97994971D01*
X174704821Y-97994971D01*
X174862058Y-98375515D01*
X175152954Y-98666919D01*
X175533223Y-98824820D01*
X175944971Y-98825179D01*
X176325515Y-98667942D01*
X176616919Y-98377046D01*
X176774820Y-97996777D01*
X176775179Y-97585029D01*
X176617942Y-97204485D01*
X176327046Y-96913081D01*
X175946777Y-96755180D01*
X175535029Y-96754821D01*
X175154485Y-96912058D01*
X174863081Y-97202954D01*
X174705180Y-97583223D01*
X174704821Y-97994971D01*
X154283551Y-97994971D01*
X154445319Y-97833486D01*
X154603220Y-97453217D01*
X154603579Y-97041469D01*
X154558830Y-96933168D01*
X154789879Y-97029108D01*
X155201627Y-97029467D01*
X155582171Y-96872230D01*
X155873575Y-96581334D01*
X156031476Y-96201065D01*
X156031835Y-95789317D01*
X155914369Y-95505025D01*
X156438662Y-95505025D01*
X156595899Y-95885569D01*
X156886795Y-96176973D01*
X157267064Y-96334874D01*
X157678812Y-96335233D01*
X158059356Y-96177996D01*
X158230359Y-96007291D01*
X158117969Y-96277957D01*
X158117610Y-96689705D01*
X158274847Y-97070249D01*
X158565743Y-97361653D01*
X158946012Y-97519554D01*
X159357760Y-97519913D01*
X159738304Y-97362676D01*
X160029708Y-97071780D01*
X160187609Y-96691511D01*
X160187968Y-96279763D01*
X160030731Y-95899219D01*
X159739835Y-95607815D01*
X159359566Y-95449914D01*
X158947818Y-95449555D01*
X158567274Y-95606792D01*
X158396271Y-95777497D01*
X158508661Y-95506831D01*
X158508898Y-95234082D01*
X159745547Y-95234082D01*
X159902784Y-95614626D01*
X160193680Y-95906030D01*
X160573949Y-96063931D01*
X160985697Y-96064290D01*
X161330336Y-95921889D01*
X161210691Y-96210027D01*
X161210332Y-96621775D01*
X161367569Y-97002319D01*
X161658465Y-97293723D01*
X162038734Y-97451624D01*
X162450482Y-97451983D01*
X162831026Y-97294746D01*
X163122430Y-97003850D01*
X163280331Y-96623581D01*
X163280690Y-96211833D01*
X163123453Y-95831289D01*
X163047269Y-95754971D01*
X174484821Y-95754971D01*
X174642058Y-96135515D01*
X174932954Y-96426919D01*
X175313223Y-96584820D01*
X175724971Y-96585179D01*
X176105515Y-96427942D01*
X176396919Y-96137046D01*
X176554820Y-95756777D01*
X176555179Y-95345029D01*
X176397942Y-94964485D01*
X176107046Y-94673081D01*
X175726777Y-94515180D01*
X175315029Y-94514821D01*
X174934485Y-94672058D01*
X174643081Y-94962954D01*
X174485180Y-95343223D01*
X174484821Y-95754971D01*
X163047269Y-95754971D01*
X162832557Y-95539885D01*
X162452288Y-95381984D01*
X162040540Y-95381625D01*
X161695901Y-95524026D01*
X161815546Y-95235888D01*
X161815905Y-94824140D01*
X161658668Y-94443596D01*
X161367772Y-94152192D01*
X160987503Y-93994291D01*
X160575755Y-93993932D01*
X160195211Y-94151169D01*
X159903807Y-94442065D01*
X159745906Y-94822334D01*
X159745547Y-95234082D01*
X158508898Y-95234082D01*
X158509020Y-95095083D01*
X158351783Y-94714539D01*
X158060887Y-94423135D01*
X157680618Y-94265234D01*
X157268870Y-94264875D01*
X156888326Y-94422112D01*
X156596922Y-94713008D01*
X156439021Y-95093277D01*
X156438662Y-95505025D01*
X155914369Y-95505025D01*
X155874598Y-95408773D01*
X155583702Y-95117369D01*
X155203433Y-94959468D01*
X154791685Y-94959109D01*
X154411141Y-95116346D01*
X154119737Y-95407242D01*
X153961836Y-95787511D01*
X153961477Y-96199259D01*
X154006226Y-96307560D01*
X153775177Y-96211620D01*
X153363429Y-96211261D01*
X152982885Y-96368498D01*
X152691481Y-96659394D01*
X152533580Y-97039663D01*
X152533221Y-97451411D01*
X143290287Y-97451411D01*
X143290419Y-97300549D01*
X143133182Y-96920005D01*
X142842286Y-96628601D01*
X142462017Y-96470700D01*
X142050269Y-96470341D01*
X141669725Y-96627578D01*
X141378321Y-96918474D01*
X141220420Y-97298743D01*
X141220061Y-97710491D01*
X129767777Y-97710491D01*
X129766587Y-94844971D01*
X133354821Y-94844971D01*
X133512058Y-95225515D01*
X133802954Y-95516919D01*
X134183223Y-95674820D01*
X134594971Y-95675179D01*
X134605173Y-95670964D01*
X134604821Y-96074971D01*
X134762058Y-96455515D01*
X135052954Y-96746919D01*
X135433223Y-96904820D01*
X135844971Y-96905179D01*
X136225515Y-96747942D01*
X136516919Y-96457046D01*
X136646478Y-96145032D01*
X136814971Y-96145179D01*
X137195515Y-95987942D01*
X137486919Y-95697046D01*
X137644820Y-95316777D01*
X137645013Y-95095109D01*
X137724971Y-95095179D01*
X138105515Y-94937942D01*
X138396919Y-94647046D01*
X138554820Y-94266777D01*
X138555179Y-93855029D01*
X138530311Y-93794844D01*
X138914971Y-93795179D01*
X139295515Y-93637942D01*
X139586919Y-93347046D01*
X139744820Y-92966777D01*
X139744897Y-92878906D01*
X139783223Y-92894820D01*
X140194971Y-92895179D01*
X140575515Y-92737942D01*
X140624920Y-92688623D01*
X146620060Y-92688623D01*
X146777297Y-93069167D01*
X147068193Y-93360571D01*
X147448462Y-93518472D01*
X147860210Y-93518831D01*
X148240754Y-93361594D01*
X148532158Y-93070698D01*
X148540395Y-93050860D01*
X151475311Y-93050860D01*
X151632548Y-93431404D01*
X151923444Y-93722808D01*
X152303713Y-93880709D01*
X152715461Y-93881068D01*
X153096005Y-93723831D01*
X153387409Y-93432935D01*
X153545310Y-93052666D01*
X153545669Y-92640918D01*
X153388432Y-92260374D01*
X153097536Y-91968970D01*
X152717267Y-91811069D01*
X152305519Y-91810710D01*
X151924975Y-91967947D01*
X151633571Y-92258843D01*
X151475670Y-92639112D01*
X151475311Y-93050860D01*
X148540395Y-93050860D01*
X148690059Y-92690429D01*
X148690418Y-92278681D01*
X148533181Y-91898137D01*
X148242285Y-91606733D01*
X147862016Y-91448832D01*
X147450268Y-91448473D01*
X147069724Y-91605710D01*
X146778320Y-91896606D01*
X146620419Y-92276875D01*
X146620060Y-92688623D01*
X140624920Y-92688623D01*
X140866919Y-92447046D01*
X141024820Y-92066777D01*
X141025179Y-91655029D01*
X140867942Y-91274485D01*
X140683259Y-91089479D01*
X142854062Y-91089479D01*
X143011299Y-91470023D01*
X143302195Y-91761427D01*
X143682464Y-91919328D01*
X144094212Y-91919687D01*
X144474756Y-91762450D01*
X144766160Y-91471554D01*
X144924061Y-91091285D01*
X144924284Y-90834971D01*
X145434821Y-90834971D01*
X145592058Y-91215515D01*
X145882954Y-91506919D01*
X146263223Y-91664820D01*
X146674971Y-91665179D01*
X147055515Y-91507942D01*
X147346919Y-91217046D01*
X147428809Y-91019830D01*
X152768967Y-91019830D01*
X152926204Y-91400374D01*
X153217100Y-91691778D01*
X153597369Y-91849679D01*
X154009117Y-91850038D01*
X154389661Y-91692801D01*
X154681065Y-91401905D01*
X154774984Y-91175722D01*
X159222548Y-91175722D01*
X159379785Y-91556266D01*
X159670681Y-91847670D01*
X160050950Y-92005571D01*
X160462698Y-92005930D01*
X160843242Y-91848693D01*
X161134646Y-91557797D01*
X161292547Y-91177528D01*
X161292906Y-90765780D01*
X161135669Y-90385236D01*
X160844773Y-90093832D01*
X160464504Y-89935931D01*
X160052756Y-89935572D01*
X159672212Y-90092809D01*
X159380808Y-90383705D01*
X159222907Y-90763974D01*
X159222548Y-91175722D01*
X154774984Y-91175722D01*
X154838966Y-91021636D01*
X154839325Y-90609888D01*
X154682088Y-90229344D01*
X154391192Y-89937940D01*
X154010923Y-89780039D01*
X153599175Y-89779680D01*
X153218631Y-89936917D01*
X152927227Y-90227813D01*
X152769326Y-90608082D01*
X152768967Y-91019830D01*
X147428809Y-91019830D01*
X147454824Y-90957180D01*
X147473223Y-90964820D01*
X147884971Y-90965179D01*
X148265515Y-90807942D01*
X148556919Y-90517046D01*
X148714820Y-90136777D01*
X148714883Y-90064909D01*
X149024971Y-90065179D01*
X149405515Y-89907942D01*
X149696919Y-89617046D01*
X149854820Y-89236777D01*
X149855179Y-88825029D01*
X149697942Y-88444485D01*
X149522520Y-88268756D01*
X157324946Y-88268756D01*
X157482183Y-88649300D01*
X157773079Y-88940704D01*
X158153348Y-89098605D01*
X158565096Y-89098964D01*
X158945640Y-88941727D01*
X159237044Y-88650831D01*
X159256558Y-88603836D01*
X159258661Y-88608926D01*
X159549557Y-88900330D01*
X159929826Y-89058231D01*
X160341574Y-89058590D01*
X160722118Y-88901353D01*
X161013522Y-88610457D01*
X161171423Y-88230188D01*
X161171782Y-87818440D01*
X161014545Y-87437896D01*
X160723649Y-87146492D01*
X160343380Y-86988591D01*
X159931632Y-86988232D01*
X159551088Y-87145469D01*
X159259684Y-87436365D01*
X159240170Y-87483360D01*
X159238067Y-87478270D01*
X158947171Y-87186866D01*
X158566902Y-87028965D01*
X158155154Y-87028606D01*
X157774610Y-87185843D01*
X157483206Y-87476739D01*
X157325305Y-87857008D01*
X157324946Y-88268756D01*
X149522520Y-88268756D01*
X149407046Y-88153081D01*
X149026777Y-87995180D01*
X148615029Y-87994821D01*
X148234485Y-88152058D01*
X147943081Y-88442954D01*
X147785180Y-88823223D01*
X147785117Y-88895091D01*
X147475029Y-88894821D01*
X147094485Y-89052058D01*
X146803081Y-89342954D01*
X146695176Y-89602820D01*
X146676777Y-89595180D01*
X146265029Y-89594821D01*
X145884485Y-89752058D01*
X145593081Y-90042954D01*
X145435180Y-90423223D01*
X145434821Y-90834971D01*
X144924284Y-90834971D01*
X144924420Y-90679537D01*
X144767183Y-90298993D01*
X144476287Y-90007589D01*
X144096018Y-89849688D01*
X143684270Y-89849329D01*
X143303726Y-90006566D01*
X143012322Y-90297462D01*
X142854421Y-90677731D01*
X142854062Y-91089479D01*
X140683259Y-91089479D01*
X140577046Y-90983081D01*
X140196777Y-90825180D01*
X139785029Y-90824821D01*
X139404485Y-90982058D01*
X139113081Y-91272954D01*
X138955180Y-91653223D01*
X138955103Y-91741094D01*
X138916777Y-91725180D01*
X138694987Y-91724987D01*
X138695179Y-91505029D01*
X138537942Y-91124485D01*
X138247046Y-90833081D01*
X137866777Y-90675180D01*
X137455029Y-90674821D01*
X137074485Y-90832058D01*
X136783081Y-91122954D01*
X136625180Y-91503223D01*
X136624881Y-91845916D01*
X136526777Y-91805180D01*
X136115029Y-91804821D01*
X135734485Y-91962058D01*
X135443081Y-92252954D01*
X135285180Y-92633223D01*
X135285030Y-92804961D01*
X135125029Y-92804821D01*
X134744485Y-92962058D01*
X134453081Y-93252954D01*
X134306929Y-93604927D01*
X134185029Y-93604821D01*
X133804485Y-93762058D01*
X133513081Y-94052954D01*
X133355180Y-94433223D01*
X133354821Y-94844971D01*
X129766587Y-94844971D01*
X129766266Y-94071931D01*
X129773223Y-94074820D01*
X130184971Y-94075179D01*
X130565515Y-93917942D01*
X130856919Y-93627046D01*
X131014820Y-93246777D01*
X131015179Y-92835029D01*
X130857942Y-92454485D01*
X130567046Y-92163081D01*
X130186777Y-92005180D01*
X129775029Y-92004821D01*
X129765410Y-92008795D01*
X129765064Y-91174971D01*
X132354821Y-91174971D01*
X132512058Y-91555515D01*
X132802954Y-91846919D01*
X133183223Y-92004820D01*
X133594971Y-92005179D01*
X133975515Y-91847942D01*
X134266919Y-91557046D01*
X134424820Y-91176777D01*
X134425179Y-90765029D01*
X134267942Y-90384485D01*
X133977046Y-90093081D01*
X133596777Y-89935180D01*
X133185029Y-89934821D01*
X132804485Y-90092058D01*
X132513081Y-90382954D01*
X132355180Y-90763223D01*
X132354821Y-91174971D01*
X129765064Y-91174971D01*
X129763388Y-87134971D01*
X146994821Y-87134971D01*
X147152058Y-87515515D01*
X147442954Y-87806919D01*
X147823223Y-87964820D01*
X148234971Y-87965179D01*
X148615515Y-87807942D01*
X148906919Y-87517046D01*
X149064820Y-87136777D01*
X149065179Y-86725029D01*
X148907942Y-86344485D01*
X148617046Y-86053081D01*
X148236777Y-85895180D01*
X147825029Y-85894821D01*
X147444485Y-86052058D01*
X147153081Y-86342954D01*
X146995180Y-86723223D01*
X146994821Y-87134971D01*
X129763388Y-87134971D01*
X129758186Y-74596491D01*
X211837141Y-74596491D01*
X211994378Y-74977035D01*
X212285274Y-75268439D01*
X212665543Y-75426340D01*
X213077291Y-75426699D01*
X213457835Y-75269462D01*
X213749239Y-74978566D01*
X213907140Y-74598297D01*
X213907378Y-74324971D01*
X219294821Y-74324971D01*
X219452058Y-74705515D01*
X219742954Y-74996919D01*
X220123223Y-75154820D01*
X220534971Y-75155179D01*
X220915515Y-74997942D01*
X221206919Y-74707046D01*
X221364820Y-74326777D01*
X221365179Y-73915029D01*
X221207942Y-73534485D01*
X220917046Y-73243081D01*
X220536777Y-73085180D01*
X220125029Y-73084821D01*
X219744485Y-73242058D01*
X219453081Y-73532954D01*
X219295180Y-73913223D01*
X219294821Y-74324971D01*
X213907378Y-74324971D01*
X213907499Y-74186549D01*
X213750262Y-73806005D01*
X213459366Y-73514601D01*
X213079097Y-73356700D01*
X212667349Y-73356341D01*
X212286805Y-73513578D01*
X211995401Y-73804474D01*
X211837500Y-74184743D01*
X211837141Y-74596491D01*
X129758186Y-74596491D01*
X129757554Y-73074971D01*
X142124821Y-73074971D01*
X142282058Y-73455515D01*
X142572954Y-73746919D01*
X142953223Y-73904820D01*
X143364971Y-73905179D01*
X143745515Y-73747942D01*
X144036919Y-73457046D01*
X144194820Y-73076777D01*
X144195179Y-72665029D01*
X144037942Y-72284485D01*
X143747046Y-71993081D01*
X143366777Y-71835180D01*
X142955029Y-71834821D01*
X142574485Y-71992058D01*
X142283081Y-72282954D01*
X142125180Y-72663223D01*
X142124821Y-73074971D01*
X129757554Y-73074971D01*
X129756841Y-71354971D01*
X211844821Y-71354971D01*
X212002058Y-71735515D01*
X212292954Y-72026919D01*
X212673223Y-72184820D01*
X213084971Y-72185179D01*
X213465515Y-72027942D01*
X213756919Y-71737046D01*
X213914820Y-71356777D01*
X213915179Y-70945029D01*
X213757942Y-70564485D01*
X213467046Y-70273081D01*
X213086777Y-70115180D01*
X212675029Y-70114821D01*
X212294485Y-70272058D01*
X212003081Y-70562954D01*
X211845180Y-70943223D01*
X211844821Y-71354971D01*
X129756841Y-71354971D01*
X129756336Y-70140136D01*
X144811242Y-70140136D01*
X144968479Y-70520680D01*
X145259375Y-70812084D01*
X145639644Y-70969985D01*
X146051392Y-70970344D01*
X146431936Y-70813107D01*
X146723340Y-70522211D01*
X146881241Y-70141942D01*
X146881600Y-69730194D01*
X146724363Y-69349650D01*
X146433467Y-69058246D01*
X146053198Y-68900345D01*
X145641450Y-68899986D01*
X145260906Y-69057223D01*
X144969502Y-69348119D01*
X144811601Y-69728388D01*
X144811242Y-70140136D01*
X129756336Y-70140136D01*
X129755545Y-68234971D01*
X135284821Y-68234971D01*
X135442058Y-68615515D01*
X135732954Y-68906919D01*
X136113223Y-69064820D01*
X136524971Y-69065179D01*
X136905515Y-68907942D01*
X137196919Y-68617046D01*
X137354820Y-68236777D01*
X137355179Y-67825029D01*
X137197942Y-67444485D01*
X136907046Y-67153081D01*
X136526777Y-66995180D01*
X136115029Y-66994821D01*
X135734485Y-67152058D01*
X135443081Y-67442954D01*
X135285180Y-67823223D01*
X135284821Y-68234971D01*
X129755545Y-68234971D01*
X129753732Y-63864971D01*
X145394821Y-63864971D01*
X145552058Y-64245515D01*
X145842954Y-64536919D01*
X146223223Y-64694820D01*
X146634971Y-64695179D01*
X146998503Y-64544971D01*
X150964821Y-64544971D01*
X151122058Y-64925515D01*
X151134419Y-64937897D01*
X150995180Y-65273223D01*
X150994821Y-65684971D01*
X151152058Y-66065515D01*
X151442954Y-66356919D01*
X151823223Y-66514820D01*
X152234971Y-66515179D01*
X152615515Y-66357942D01*
X152906919Y-66067046D01*
X153064820Y-65686777D01*
X153064882Y-65614971D01*
X153214821Y-65614971D01*
X153372058Y-65995515D01*
X153662954Y-66286919D01*
X154043223Y-66444820D01*
X154454971Y-66445179D01*
X154835515Y-66287942D01*
X155126919Y-65997046D01*
X155284820Y-65616777D01*
X155285020Y-65386400D01*
X217138960Y-65386400D01*
X217138960Y-67113600D01*
X217183238Y-67348917D01*
X217322310Y-67565041D01*
X217534510Y-67710031D01*
X217578345Y-67718908D01*
X217265474Y-68187152D01*
X217151400Y-68760641D01*
X217151400Y-68819359D01*
X217265474Y-69392848D01*
X217590330Y-69879029D01*
X217861172Y-70060000D01*
X217590330Y-70240971D01*
X217265474Y-70727152D01*
X217151400Y-71300641D01*
X217151400Y-71359359D01*
X217265474Y-71932848D01*
X217590330Y-72419029D01*
X218076511Y-72743885D01*
X218650000Y-72857959D01*
X219223489Y-72743885D01*
X219709670Y-72419029D01*
X219920000Y-72104248D01*
X220130330Y-72419029D01*
X220616511Y-72743885D01*
X221190000Y-72857959D01*
X221763489Y-72743885D01*
X222249670Y-72419029D01*
X222574526Y-71932848D01*
X222688600Y-71359359D01*
X222688600Y-71300641D01*
X222574526Y-70727152D01*
X222249670Y-70240971D01*
X221978828Y-70060000D01*
X222249670Y-69879029D01*
X222574526Y-69392848D01*
X222688600Y-68819359D01*
X222688600Y-68760641D01*
X222574526Y-68187152D01*
X222249670Y-67700971D01*
X221978839Y-67520008D01*
X222396821Y-67138490D01*
X222644968Y-66609027D01*
X222524469Y-66377000D01*
X221317000Y-66377000D01*
X221317000Y-66397000D01*
X221063000Y-66397000D01*
X221063000Y-66377000D01*
X221043000Y-66377000D01*
X221043000Y-66123000D01*
X221063000Y-66123000D01*
X221063000Y-64916183D01*
X221317000Y-64916183D01*
X221317000Y-66123000D01*
X222524469Y-66123000D01*
X222644968Y-65890973D01*
X222396821Y-65361510D01*
X221964947Y-64967312D01*
X221549026Y-64795042D01*
X221317000Y-64916183D01*
X221063000Y-64916183D01*
X220830974Y-64795042D01*
X220415053Y-64967312D01*
X220130973Y-65226609D01*
X220116762Y-65151083D01*
X219977690Y-64934959D01*
X219765490Y-64789969D01*
X219513600Y-64738960D01*
X217786400Y-64738960D01*
X217551083Y-64783238D01*
X217334959Y-64922310D01*
X217189969Y-65134510D01*
X217138960Y-65386400D01*
X155285020Y-65386400D01*
X155285092Y-65304848D01*
X155664971Y-65305179D01*
X156045515Y-65147942D01*
X156336919Y-64857046D01*
X156494820Y-64476777D01*
X156495179Y-64065029D01*
X156337942Y-63684485D01*
X156047046Y-63393081D01*
X155666777Y-63235180D01*
X155255029Y-63234821D01*
X154874485Y-63392058D01*
X154583081Y-63682954D01*
X154425180Y-64063223D01*
X154424908Y-64375152D01*
X154045029Y-64374821D01*
X153664485Y-64532058D01*
X153373081Y-64822954D01*
X153215180Y-65203223D01*
X153214821Y-65614971D01*
X153064882Y-65614971D01*
X153065179Y-65275029D01*
X152907942Y-64894485D01*
X152895581Y-64882103D01*
X153034820Y-64546777D01*
X153035179Y-64135029D01*
X152877942Y-63754485D01*
X152587046Y-63463081D01*
X152206777Y-63305180D01*
X151795029Y-63304821D01*
X151414485Y-63462058D01*
X151123081Y-63752954D01*
X150965180Y-64133223D01*
X150964821Y-64544971D01*
X146998503Y-64544971D01*
X147015515Y-64537942D01*
X147306919Y-64247046D01*
X147464820Y-63866777D01*
X147465179Y-63455029D01*
X147307942Y-63074485D01*
X147017046Y-62783081D01*
X146636777Y-62625180D01*
X146225029Y-62624821D01*
X145844485Y-62782058D01*
X145553081Y-63072954D01*
X145395180Y-63453223D01*
X145394821Y-63864971D01*
X129753732Y-63864971D01*
X129751042Y-57384971D01*
X162564821Y-57384971D01*
X162722058Y-57765515D01*
X163012954Y-58056919D01*
X163393223Y-58214820D01*
X163804971Y-58215179D01*
X164185515Y-58057942D01*
X164476919Y-57767046D01*
X164598198Y-57474971D01*
X173144821Y-57474971D01*
X173302058Y-57855515D01*
X173592954Y-58146919D01*
X173973223Y-58304820D01*
X174384971Y-58305179D01*
X174765515Y-58147942D01*
X175056919Y-57857046D01*
X175214820Y-57476777D01*
X175215179Y-57065029D01*
X175057942Y-56684485D01*
X174767046Y-56393081D01*
X174386777Y-56235180D01*
X173975029Y-56234821D01*
X173594485Y-56392058D01*
X173303081Y-56682954D01*
X173145180Y-57063223D01*
X173144821Y-57474971D01*
X164598198Y-57474971D01*
X164634820Y-57386777D01*
X164635179Y-56975029D01*
X164477942Y-56594485D01*
X164187046Y-56303081D01*
X163806777Y-56145180D01*
X163395029Y-56144821D01*
X163014485Y-56302058D01*
X162723081Y-56592954D01*
X162565180Y-56973223D01*
X162564821Y-57384971D01*
X129751042Y-57384971D01*
X129750199Y-55354971D01*
X134304821Y-55354971D01*
X134462058Y-55735515D01*
X134752954Y-56026919D01*
X135133223Y-56184820D01*
X135544971Y-56185179D01*
X135884301Y-56044971D01*
X170144821Y-56044971D01*
X170302058Y-56425515D01*
X170592954Y-56716919D01*
X170973223Y-56874820D01*
X171384971Y-56875179D01*
X171765515Y-56717942D01*
X172056919Y-56427046D01*
X172165741Y-56164971D01*
X199574821Y-56164971D01*
X199732058Y-56545515D01*
X200022954Y-56836919D01*
X200403223Y-56994820D01*
X200814971Y-56995179D01*
X201195515Y-56837942D01*
X201486919Y-56547046D01*
X201644820Y-56166777D01*
X201645179Y-55755029D01*
X201487942Y-55374485D01*
X201197046Y-55083081D01*
X200816777Y-54925180D01*
X200405029Y-54924821D01*
X200024485Y-55082058D01*
X199733081Y-55372954D01*
X199575180Y-55753223D01*
X199574821Y-56164971D01*
X172165741Y-56164971D01*
X172214820Y-56046777D01*
X172215179Y-55635029D01*
X172057942Y-55254485D01*
X172055313Y-55251851D01*
X173119921Y-55251851D01*
X173277158Y-55632395D01*
X173568054Y-55923799D01*
X173948323Y-56081700D01*
X174360071Y-56082059D01*
X174740615Y-55924822D01*
X175032019Y-55633926D01*
X175189920Y-55253657D01*
X175190279Y-54841909D01*
X175033042Y-54461365D01*
X174742146Y-54169961D01*
X174361877Y-54012060D01*
X173950129Y-54011701D01*
X173569585Y-54168938D01*
X173278181Y-54459834D01*
X173120280Y-54840103D01*
X173119921Y-55251851D01*
X172055313Y-55251851D01*
X171767046Y-54963081D01*
X171386777Y-54805180D01*
X170975029Y-54804821D01*
X170594485Y-54962058D01*
X170303081Y-55252954D01*
X170145180Y-55633223D01*
X170144821Y-56044971D01*
X135884301Y-56044971D01*
X135925515Y-56027942D01*
X136216919Y-55737046D01*
X136374820Y-55356777D01*
X136375179Y-54945029D01*
X136217942Y-54564485D01*
X135927046Y-54273081D01*
X135546777Y-54115180D01*
X135135029Y-54114821D01*
X134754485Y-54272058D01*
X134463081Y-54562954D01*
X134305180Y-54943223D01*
X134304821Y-55354971D01*
X129750199Y-55354971D01*
X129749581Y-53865000D01*
X164410907Y-53865000D01*
X164523946Y-54433285D01*
X164845853Y-54915054D01*
X165327622Y-55236961D01*
X165895907Y-55350000D01*
X165954093Y-55350000D01*
X166522378Y-55236961D01*
X167004147Y-54915054D01*
X167195000Y-54629422D01*
X167385853Y-54915054D01*
X167867622Y-55236961D01*
X168435907Y-55350000D01*
X168494093Y-55350000D01*
X169062378Y-55236961D01*
X169544147Y-54915054D01*
X169866054Y-54433285D01*
X169979093Y-53865000D01*
X169966110Y-53799732D01*
X170162954Y-53996919D01*
X170543223Y-54154820D01*
X170954971Y-54155179D01*
X171335515Y-53997942D01*
X171626919Y-53707046D01*
X171784820Y-53326777D01*
X171785178Y-52915750D01*
X196585000Y-52915750D01*
X196585000Y-53606309D01*
X196681673Y-53839698D01*
X196860301Y-54018327D01*
X197093690Y-54115000D01*
X197784250Y-54115000D01*
X197943000Y-53956250D01*
X197943000Y-52757000D01*
X196743750Y-52757000D01*
X196585000Y-52915750D01*
X171785178Y-52915750D01*
X171785179Y-52915029D01*
X171627942Y-52534485D01*
X171337046Y-52243081D01*
X170956777Y-52085180D01*
X170545029Y-52084821D01*
X170164485Y-52242058D01*
X169873081Y-52532954D01*
X169715180Y-52913223D01*
X169715043Y-53070710D01*
X169544147Y-52814946D01*
X169214974Y-52595000D01*
X169544147Y-52375054D01*
X169764700Y-52044971D01*
X174614821Y-52044971D01*
X174772058Y-52425515D01*
X175062954Y-52716919D01*
X175443223Y-52874820D01*
X175854971Y-52875179D01*
X176235515Y-52717942D01*
X176526919Y-52427046D01*
X176684820Y-52046777D01*
X176685162Y-51653691D01*
X196585000Y-51653691D01*
X196585000Y-52344250D01*
X196743750Y-52503000D01*
X197943000Y-52503000D01*
X197943000Y-51303750D01*
X198197000Y-51303750D01*
X198197000Y-52503000D01*
X198217000Y-52503000D01*
X198217000Y-52757000D01*
X198197000Y-52757000D01*
X198197000Y-53956250D01*
X198355750Y-54115000D01*
X199046310Y-54115000D01*
X199279699Y-54018327D01*
X199458327Y-53839698D01*
X199530597Y-53665223D01*
X199559946Y-53709147D01*
X200041715Y-54031054D01*
X200610000Y-54144093D01*
X201178285Y-54031054D01*
X201660054Y-53709147D01*
X201981961Y-53227378D01*
X202095000Y-52659093D01*
X202095000Y-52600907D01*
X201981961Y-52032622D01*
X201660054Y-51550853D01*
X201178285Y-51228946D01*
X200610000Y-51115907D01*
X200041715Y-51228946D01*
X199559946Y-51550853D01*
X199530597Y-51594777D01*
X199458327Y-51420302D01*
X199279699Y-51241673D01*
X199046310Y-51145000D01*
X198355750Y-51145000D01*
X198197000Y-51303750D01*
X197943000Y-51303750D01*
X197784250Y-51145000D01*
X197093690Y-51145000D01*
X196860301Y-51241673D01*
X196681673Y-51420302D01*
X196585000Y-51653691D01*
X176685162Y-51653691D01*
X176685179Y-51635029D01*
X176527942Y-51254485D01*
X176237046Y-50963081D01*
X175856777Y-50805180D01*
X175445029Y-50804821D01*
X175064485Y-50962058D01*
X174773081Y-51252954D01*
X174615180Y-51633223D01*
X174614821Y-52044971D01*
X169764700Y-52044971D01*
X169866054Y-51893285D01*
X169979093Y-51325000D01*
X169866054Y-50756715D01*
X169544147Y-50274946D01*
X169062378Y-49953039D01*
X168519084Y-49844971D01*
X184894821Y-49844971D01*
X185052058Y-50225515D01*
X185342954Y-50516919D01*
X185723223Y-50674820D01*
X186134971Y-50675179D01*
X186515515Y-50517942D01*
X186806919Y-50227046D01*
X186964820Y-49846777D01*
X186965179Y-49435029D01*
X186807942Y-49054485D01*
X186517046Y-48763081D01*
X186136777Y-48605180D01*
X185725029Y-48604821D01*
X185344485Y-48762058D01*
X185053081Y-49052954D01*
X184895180Y-49433223D01*
X184894821Y-49844971D01*
X168519084Y-49844971D01*
X168494093Y-49840000D01*
X168435907Y-49840000D01*
X167867622Y-49953039D01*
X167385853Y-50274946D01*
X167385029Y-50276179D01*
X167378162Y-50239683D01*
X167239090Y-50023559D01*
X167026890Y-49878569D01*
X166775000Y-49827560D01*
X165075000Y-49827560D01*
X164839683Y-49871838D01*
X164623559Y-50010910D01*
X164478569Y-50223110D01*
X164427560Y-50475000D01*
X164427560Y-52175000D01*
X164471838Y-52410317D01*
X164610910Y-52626441D01*
X164823110Y-52771431D01*
X164890541Y-52785086D01*
X164845853Y-52814946D01*
X164523946Y-53296715D01*
X164410907Y-53865000D01*
X129749581Y-53865000D01*
X129748599Y-51500000D01*
X133902560Y-51500000D01*
X133902560Y-53200000D01*
X133946838Y-53435317D01*
X134085910Y-53651441D01*
X134298110Y-53796431D01*
X134550000Y-53847440D01*
X136250000Y-53847440D01*
X136485317Y-53803162D01*
X136701441Y-53664090D01*
X136846431Y-53451890D01*
X136860086Y-53384459D01*
X136889946Y-53429147D01*
X137371715Y-53751054D01*
X137940000Y-53864093D01*
X138508285Y-53751054D01*
X138990054Y-53429147D01*
X139210000Y-53099974D01*
X139429946Y-53429147D01*
X139911715Y-53751054D01*
X140480000Y-53864093D01*
X141048285Y-53751054D01*
X141530054Y-53429147D01*
X141750000Y-53099974D01*
X141969946Y-53429147D01*
X142451715Y-53751054D01*
X143020000Y-53864093D01*
X143588285Y-53751054D01*
X144070054Y-53429147D01*
X144290000Y-53099974D01*
X144509946Y-53429147D01*
X144991715Y-53751054D01*
X145560000Y-53864093D01*
X146128285Y-53751054D01*
X146610054Y-53429147D01*
X146931961Y-52947378D01*
X147045000Y-52379093D01*
X147045000Y-52320907D01*
X146931961Y-51752622D01*
X146763165Y-51500000D01*
X151577560Y-51500000D01*
X151577560Y-53200000D01*
X151621838Y-53435317D01*
X151760910Y-53651441D01*
X151973110Y-53796431D01*
X152225000Y-53847440D01*
X153925000Y-53847440D01*
X154160317Y-53803162D01*
X154376441Y-53664090D01*
X154521431Y-53451890D01*
X154572440Y-53200000D01*
X154572440Y-51500000D01*
X154528162Y-51264683D01*
X154389090Y-51048559D01*
X154176890Y-50903569D01*
X153925000Y-50852560D01*
X152225000Y-50852560D01*
X151989683Y-50896838D01*
X151773559Y-51035910D01*
X151628569Y-51248110D01*
X151577560Y-51500000D01*
X146763165Y-51500000D01*
X146610054Y-51270853D01*
X146128285Y-50948946D01*
X145560000Y-50835907D01*
X144991715Y-50948946D01*
X144509946Y-51270853D01*
X144290000Y-51600026D01*
X144070054Y-51270853D01*
X143588285Y-50948946D01*
X143020000Y-50835907D01*
X142451715Y-50948946D01*
X141969946Y-51270853D01*
X141750000Y-51600026D01*
X141530054Y-51270853D01*
X141048285Y-50948946D01*
X140480000Y-50835907D01*
X139911715Y-50948946D01*
X139429946Y-51270853D01*
X139210000Y-51600026D01*
X138990054Y-51270853D01*
X138508285Y-50948946D01*
X137940000Y-50835907D01*
X137371715Y-50948946D01*
X136889946Y-51270853D01*
X136862150Y-51312452D01*
X136853162Y-51264683D01*
X136714090Y-51048559D01*
X136501890Y-50903569D01*
X136250000Y-50852560D01*
X134550000Y-50852560D01*
X134314683Y-50896838D01*
X134098559Y-51035910D01*
X133953569Y-51248110D01*
X133902560Y-51500000D01*
X129748599Y-51500000D01*
X129747053Y-47777132D01*
X225813000Y-47876868D01*
M02*
