G04 #@! TF.FileFunction,Copper,L2,Inr,Plane*
%FSLAX46Y46*%
G04 Gerber Fmt 4.6, Leading zero omitted, Abs format (unit mm)*
G04 Created by KiCad (PCBNEW 4.0.6) date Monday, 03 July 2017 'AMt' 09:42:41*
%MOMM*%
%LPD*%
G01*
G04 APERTURE LIST*
%ADD10C,0.100000*%
%ADD11C,2.200000*%
%ADD12C,2.000000*%
%ADD13R,1.727200X1.727200*%
%ADD14O,1.727200X1.727200*%
%ADD15R,1.700000X1.700000*%
%ADD16O,1.700000X1.700000*%
%ADD17C,0.600000*%
%ADD18C,0.800000*%
%ADD19C,0.250000*%
%ADD20C,0.254000*%
G04 APERTURE END LIST*
D10*
D11*
X216970000Y-140120000D03*
X216970000Y-135040000D03*
X222050000Y-135040000D03*
X222050000Y-140120000D03*
D12*
X219510000Y-137580000D03*
D13*
X218650000Y-66250000D03*
D14*
X221190000Y-66250000D03*
X218650000Y-68790000D03*
X221190000Y-68790000D03*
X218650000Y-71330000D03*
X221190000Y-71330000D03*
D15*
X153075000Y-52350000D03*
X136350000Y-137575000D03*
D16*
X136350000Y-135035000D03*
X138890000Y-137575000D03*
X138890000Y-135035000D03*
X141430000Y-137575000D03*
X141430000Y-135035000D03*
X143970000Y-137575000D03*
X143970000Y-135035000D03*
X146510000Y-137575000D03*
X146510000Y-135035000D03*
X149050000Y-137575000D03*
X149050000Y-135035000D03*
X151590000Y-137575000D03*
X151590000Y-135035000D03*
X154130000Y-137575000D03*
X154130000Y-135035000D03*
D15*
X165925000Y-51325000D03*
D16*
X168465000Y-51325000D03*
X165925000Y-53865000D03*
X168465000Y-53865000D03*
D15*
X135400000Y-52350000D03*
D16*
X137940000Y-52350000D03*
X140480000Y-52350000D03*
X143020000Y-52350000D03*
X145560000Y-52350000D03*
D15*
X174150000Y-136350000D03*
D16*
X171610000Y-136350000D03*
X169070000Y-136350000D03*
X166530000Y-136350000D03*
X163990000Y-136350000D03*
D17*
X185925000Y-117450000D03*
X185925000Y-118550000D03*
X185925000Y-119650000D03*
X187025000Y-117450000D03*
X187025000Y-118550000D03*
X187025000Y-119650000D03*
X188125000Y-117450000D03*
X188125000Y-118550000D03*
X188125000Y-119650000D03*
D15*
X198070000Y-52630000D03*
D16*
X200610000Y-52630000D03*
D18*
X142255240Y-97505520D03*
X153568400Y-97246440D03*
X154996656Y-95994288D03*
X220330000Y-74120000D03*
X135340000Y-55150000D03*
X177230000Y-119240000D03*
X145340000Y-108630000D03*
X135900000Y-104780000D03*
X139640000Y-104220000D03*
X142350000Y-109800000D03*
X139990000Y-91860000D03*
X143160000Y-72870000D03*
X136320000Y-68030000D03*
X183180000Y-127060000D03*
X177200000Y-123830000D03*
X176670000Y-114800000D03*
X189890000Y-110470000D03*
X175520000Y-95550000D03*
X175740000Y-97790000D03*
X177440000Y-100820000D03*
X168050000Y-102760000D03*
X168710000Y-99540000D03*
X175650000Y-51840000D03*
X170750000Y-53120000D03*
X185930000Y-49640000D03*
X200610000Y-55960000D03*
X204660000Y-134060000D03*
X199670000Y-137950000D03*
X190660000Y-138140000D03*
X191340000Y-127410000D03*
X196630000Y-122640000D03*
X187370000Y-129970000D03*
X184120000Y-132380000D03*
X182110000Y-103430000D03*
X184070000Y-103990000D03*
X188320000Y-103430000D03*
X198990000Y-111540000D03*
X194070000Y-108630000D03*
X199600000Y-106120000D03*
X203910000Y-106170000D03*
X174412500Y-109387500D03*
X152978721Y-95616366D03*
X220360000Y-63680000D03*
X141710000Y-95510000D03*
X141630000Y-88350000D03*
X190360000Y-135680000D03*
X180440000Y-119020000D03*
X184800000Y-125900000D03*
X186000000Y-124750000D03*
X189430000Y-123380000D03*
X182390000Y-115730000D03*
X186810000Y-107880000D03*
X193850000Y-113970000D03*
X190500000Y-112210000D03*
X186070000Y-106150000D03*
X166660000Y-95810000D03*
X153980000Y-100000000D03*
X173700000Y-52080000D03*
X197820000Y-55940000D03*
X212872320Y-74391520D03*
X212880000Y-71150000D03*
X148820000Y-89030000D03*
X147000000Y-102070000D03*
X146520000Y-110390000D03*
X150400000Y-101090000D03*
X152144730Y-99075240D03*
X146369588Y-104077601D03*
X152510490Y-92845889D03*
X148638318Y-106594474D03*
X159152789Y-96484734D03*
X162245511Y-96416804D03*
X157701148Y-113228345D03*
X152064996Y-113159611D03*
X157473841Y-95300054D03*
X160780726Y-95029111D03*
X161159310Y-99980335D03*
X156880000Y-99590000D03*
X143889241Y-90884508D03*
X160136603Y-88023411D03*
X158360125Y-88063785D03*
X146470000Y-90630000D03*
X163504878Y-133786880D03*
X153804146Y-90814859D03*
X160257727Y-90970751D03*
X157560000Y-141110000D03*
X157266457Y-121096627D03*
X159550000Y-123380000D03*
X152400000Y-101660959D03*
X151390000Y-105391385D03*
X152840000Y-124340000D03*
X156700000Y-127560000D03*
X159707580Y-124899420D03*
X155127962Y-107083859D03*
X156659580Y-104150158D03*
X156220000Y-121870000D03*
X153627882Y-106287892D03*
X155539440Y-103052880D03*
X157970000Y-125990000D03*
X154850000Y-122840000D03*
X163600000Y-57180000D03*
X171180000Y-55840000D03*
X154250000Y-65410000D03*
X152030000Y-65480000D03*
X137660000Y-91710000D03*
X138710000Y-92760000D03*
X174155100Y-55046880D03*
X174180000Y-57270000D03*
X155460000Y-64270000D03*
X152000000Y-64340000D03*
X136320000Y-92840000D03*
X137520000Y-94060000D03*
X163941582Y-119545023D03*
X148030000Y-86930000D03*
X170610000Y-120340000D03*
X183430000Y-121770000D03*
X145846421Y-69935165D03*
X147655239Y-92483652D03*
X147680000Y-89930000D03*
X146430000Y-63660000D03*
X133390000Y-90970000D03*
X129980000Y-93040000D03*
X179430000Y-134950000D03*
X175520000Y-130980000D03*
X136610000Y-95110000D03*
X135330000Y-93840000D03*
X179140000Y-126010000D03*
X180560000Y-123760000D03*
X180450000Y-122380000D03*
X181400000Y-126970000D03*
X135640000Y-95870000D03*
X134390000Y-94640000D03*
X150906480Y-102900482D03*
X151033993Y-114809217D03*
X149510000Y-111600000D03*
X131810000Y-111720000D03*
X184240000Y-123990000D03*
X170610000Y-121650000D03*
X164220000Y-121650000D03*
X150460886Y-106209778D03*
D19*
X185925000Y-119650000D02*
X185925000Y-119675000D01*
X185925000Y-117450000D02*
X185925000Y-117400000D01*
X188125000Y-117450000D02*
X188125000Y-117350000D01*
D20*
G36*
X225933000Y-144018000D02*
X129667000Y-144018000D01*
X129667000Y-141314971D01*
X156524821Y-141314971D01*
X156682058Y-141695515D01*
X156972954Y-141986919D01*
X157353223Y-142144820D01*
X157764971Y-142145179D01*
X158145515Y-141987942D01*
X158436919Y-141697046D01*
X158594820Y-141316777D01*
X158595179Y-140905029D01*
X158437942Y-140524485D01*
X158377163Y-140463599D01*
X215234699Y-140463599D01*
X215498281Y-141101515D01*
X215985918Y-141590004D01*
X216623373Y-141854699D01*
X217313599Y-141855301D01*
X217951515Y-141591719D01*
X218440004Y-141104082D01*
X218704699Y-140466627D01*
X218704701Y-140463599D01*
X220314699Y-140463599D01*
X220578281Y-141101515D01*
X221065918Y-141590004D01*
X221703373Y-141854699D01*
X222393599Y-141855301D01*
X223031515Y-141591719D01*
X223520004Y-141104082D01*
X223784699Y-140466627D01*
X223785301Y-139776401D01*
X223521719Y-139138485D01*
X223034082Y-138649996D01*
X222396627Y-138385301D01*
X221706401Y-138384699D01*
X221068485Y-138648281D01*
X220579996Y-139135918D01*
X220315301Y-139773373D01*
X220314699Y-140463599D01*
X218704701Y-140463599D01*
X218705301Y-139776401D01*
X218441719Y-139138485D01*
X217954082Y-138649996D01*
X217316627Y-138385301D01*
X216626401Y-138384699D01*
X215988485Y-138648281D01*
X215499996Y-139135918D01*
X215235301Y-139773373D01*
X215234699Y-140463599D01*
X158377163Y-140463599D01*
X158147046Y-140233081D01*
X157766777Y-140075180D01*
X157355029Y-140074821D01*
X156974485Y-140232058D01*
X156683081Y-140522954D01*
X156525180Y-140903223D01*
X156524821Y-141314971D01*
X129667000Y-141314971D01*
X129667000Y-136725000D01*
X134852560Y-136725000D01*
X134852560Y-138425000D01*
X134896838Y-138660317D01*
X135035910Y-138876441D01*
X135248110Y-139021431D01*
X135500000Y-139072440D01*
X137200000Y-139072440D01*
X137435317Y-139028162D01*
X137651441Y-138889090D01*
X137796431Y-138676890D01*
X137810086Y-138609459D01*
X137839946Y-138654147D01*
X138321715Y-138976054D01*
X138890000Y-139089093D01*
X139458285Y-138976054D01*
X139940054Y-138654147D01*
X140160000Y-138324974D01*
X140379946Y-138654147D01*
X140861715Y-138976054D01*
X141430000Y-139089093D01*
X141998285Y-138976054D01*
X142480054Y-138654147D01*
X142700000Y-138324974D01*
X142919946Y-138654147D01*
X143401715Y-138976054D01*
X143970000Y-139089093D01*
X144538285Y-138976054D01*
X145020054Y-138654147D01*
X145240000Y-138324974D01*
X145459946Y-138654147D01*
X145941715Y-138976054D01*
X146510000Y-139089093D01*
X147078285Y-138976054D01*
X147560054Y-138654147D01*
X147780000Y-138324974D01*
X147999946Y-138654147D01*
X148481715Y-138976054D01*
X149050000Y-139089093D01*
X149618285Y-138976054D01*
X150100054Y-138654147D01*
X150320000Y-138324974D01*
X150539946Y-138654147D01*
X151021715Y-138976054D01*
X151590000Y-139089093D01*
X152158285Y-138976054D01*
X152640054Y-138654147D01*
X152860000Y-138324974D01*
X153079946Y-138654147D01*
X153561715Y-138976054D01*
X154130000Y-139089093D01*
X154698285Y-138976054D01*
X155180054Y-138654147D01*
X155501961Y-138172378D01*
X155555385Y-137903795D01*
X217874716Y-137903795D01*
X218123106Y-138504943D01*
X218582637Y-138965278D01*
X219183352Y-139214716D01*
X219833795Y-139215284D01*
X220434943Y-138966894D01*
X220895278Y-138507363D01*
X221144716Y-137906648D01*
X221145284Y-137256205D01*
X220896894Y-136655057D01*
X220437363Y-136194722D01*
X219836648Y-135945284D01*
X219186205Y-135944716D01*
X218585057Y-136193106D01*
X218124722Y-136652637D01*
X217875284Y-137253352D01*
X217874716Y-137903795D01*
X155555385Y-137903795D01*
X155615000Y-137604093D01*
X155615000Y-137545907D01*
X155501961Y-136977622D01*
X155180054Y-136495853D01*
X154918229Y-136320907D01*
X162505000Y-136320907D01*
X162505000Y-136379093D01*
X162618039Y-136947378D01*
X162939946Y-137429147D01*
X163421715Y-137751054D01*
X163990000Y-137864093D01*
X164558285Y-137751054D01*
X165040054Y-137429147D01*
X165260000Y-137099974D01*
X165479946Y-137429147D01*
X165961715Y-137751054D01*
X166530000Y-137864093D01*
X167098285Y-137751054D01*
X167580054Y-137429147D01*
X167800000Y-137099974D01*
X168019946Y-137429147D01*
X168501715Y-137751054D01*
X169070000Y-137864093D01*
X169638285Y-137751054D01*
X170120054Y-137429147D01*
X170340000Y-137099974D01*
X170559946Y-137429147D01*
X171041715Y-137751054D01*
X171610000Y-137864093D01*
X172178285Y-137751054D01*
X172660054Y-137429147D01*
X172687850Y-137387548D01*
X172696838Y-137435317D01*
X172835910Y-137651441D01*
X173048110Y-137796431D01*
X173300000Y-137847440D01*
X175000000Y-137847440D01*
X175235317Y-137803162D01*
X175451441Y-137664090D01*
X175596431Y-137451890D01*
X175647440Y-137200000D01*
X175647440Y-135500000D01*
X175603162Y-135264683D01*
X175532565Y-135154971D01*
X178394821Y-135154971D01*
X178552058Y-135535515D01*
X178842954Y-135826919D01*
X179223223Y-135984820D01*
X179634971Y-135985179D01*
X179877493Y-135884971D01*
X189324821Y-135884971D01*
X189482058Y-136265515D01*
X189772954Y-136556919D01*
X190153223Y-136714820D01*
X190564971Y-136715179D01*
X190945515Y-136557942D01*
X191236919Y-136267046D01*
X191394820Y-135886777D01*
X191395179Y-135475029D01*
X191357402Y-135383599D01*
X215234699Y-135383599D01*
X215498281Y-136021515D01*
X215985918Y-136510004D01*
X216623373Y-136774699D01*
X217313599Y-136775301D01*
X217951515Y-136511719D01*
X218440004Y-136024082D01*
X218704699Y-135386627D01*
X218704701Y-135383599D01*
X220314699Y-135383599D01*
X220578281Y-136021515D01*
X221065918Y-136510004D01*
X221703373Y-136774699D01*
X222393599Y-136775301D01*
X223031515Y-136511719D01*
X223520004Y-136024082D01*
X223784699Y-135386627D01*
X223785301Y-134696401D01*
X223521719Y-134058485D01*
X223034082Y-133569996D01*
X222396627Y-133305301D01*
X221706401Y-133304699D01*
X221068485Y-133568281D01*
X220579996Y-134055918D01*
X220315301Y-134693373D01*
X220314699Y-135383599D01*
X218704701Y-135383599D01*
X218705301Y-134696401D01*
X218441719Y-134058485D01*
X217954082Y-133569996D01*
X217316627Y-133305301D01*
X216626401Y-133304699D01*
X215988485Y-133568281D01*
X215499996Y-134055918D01*
X215235301Y-134693373D01*
X215234699Y-135383599D01*
X191357402Y-135383599D01*
X191237942Y-135094485D01*
X190947046Y-134803081D01*
X190566777Y-134645180D01*
X190155029Y-134644821D01*
X189774485Y-134802058D01*
X189483081Y-135092954D01*
X189325180Y-135473223D01*
X189324821Y-135884971D01*
X179877493Y-135884971D01*
X180015515Y-135827942D01*
X180306919Y-135537046D01*
X180464820Y-135156777D01*
X180465179Y-134745029D01*
X180307942Y-134364485D01*
X180017046Y-134073081D01*
X179636777Y-133915180D01*
X179225029Y-133914821D01*
X178844485Y-134072058D01*
X178553081Y-134362954D01*
X178395180Y-134743223D01*
X178394821Y-135154971D01*
X175532565Y-135154971D01*
X175464090Y-135048559D01*
X175251890Y-134903569D01*
X175000000Y-134852560D01*
X173300000Y-134852560D01*
X173064683Y-134896838D01*
X172848559Y-135035910D01*
X172703569Y-135248110D01*
X172689914Y-135315541D01*
X172660054Y-135270853D01*
X172178285Y-134948946D01*
X171610000Y-134835907D01*
X171041715Y-134948946D01*
X170559946Y-135270853D01*
X170340000Y-135600026D01*
X170120054Y-135270853D01*
X169638285Y-134948946D01*
X169070000Y-134835907D01*
X168501715Y-134948946D01*
X168019946Y-135270853D01*
X167800000Y-135600026D01*
X167580054Y-135270853D01*
X167098285Y-134948946D01*
X166530000Y-134835907D01*
X165961715Y-134948946D01*
X165479946Y-135270853D01*
X165260000Y-135600026D01*
X165040054Y-135270853D01*
X164558285Y-134948946D01*
X163990000Y-134835907D01*
X163421715Y-134948946D01*
X162939946Y-135270853D01*
X162618039Y-135752622D01*
X162505000Y-136320907D01*
X154918229Y-136320907D01*
X154894422Y-136305000D01*
X155180054Y-136114147D01*
X155501961Y-135632378D01*
X155615000Y-135064093D01*
X155615000Y-135005907D01*
X155501961Y-134437622D01*
X155204108Y-133991851D01*
X162469699Y-133991851D01*
X162626936Y-134372395D01*
X162917832Y-134663799D01*
X163298101Y-134821700D01*
X163709849Y-134822059D01*
X164090393Y-134664822D01*
X164381797Y-134373926D01*
X164539698Y-133993657D01*
X164540057Y-133581909D01*
X164382820Y-133201365D01*
X164091924Y-132909961D01*
X163711655Y-132752060D01*
X163299907Y-132751701D01*
X162919363Y-132908938D01*
X162627959Y-133199834D01*
X162470058Y-133580103D01*
X162469699Y-133991851D01*
X155204108Y-133991851D01*
X155180054Y-133955853D01*
X154698285Y-133633946D01*
X154130000Y-133520907D01*
X153561715Y-133633946D01*
X153079946Y-133955853D01*
X152860000Y-134285026D01*
X152640054Y-133955853D01*
X152158285Y-133633946D01*
X151590000Y-133520907D01*
X151021715Y-133633946D01*
X150539946Y-133955853D01*
X150320000Y-134285026D01*
X150100054Y-133955853D01*
X149618285Y-133633946D01*
X149050000Y-133520907D01*
X148481715Y-133633946D01*
X147999946Y-133955853D01*
X147780000Y-134285026D01*
X147560054Y-133955853D01*
X147078285Y-133633946D01*
X146510000Y-133520907D01*
X145941715Y-133633946D01*
X145459946Y-133955853D01*
X145240000Y-134285026D01*
X145020054Y-133955853D01*
X144538285Y-133633946D01*
X143970000Y-133520907D01*
X143401715Y-133633946D01*
X142919946Y-133955853D01*
X142700000Y-134285026D01*
X142480054Y-133955853D01*
X141998285Y-133633946D01*
X141430000Y-133520907D01*
X140861715Y-133633946D01*
X140379946Y-133955853D01*
X140160000Y-134285026D01*
X139940054Y-133955853D01*
X139458285Y-133633946D01*
X138890000Y-133520907D01*
X138321715Y-133633946D01*
X137839946Y-133955853D01*
X137620000Y-134285026D01*
X137400054Y-133955853D01*
X136918285Y-133633946D01*
X136350000Y-133520907D01*
X135781715Y-133633946D01*
X135299946Y-133955853D01*
X134978039Y-134437622D01*
X134865000Y-135005907D01*
X134865000Y-135064093D01*
X134978039Y-135632378D01*
X135299946Y-136114147D01*
X135301179Y-136114971D01*
X135264683Y-136121838D01*
X135048559Y-136260910D01*
X134903569Y-136473110D01*
X134852560Y-136725000D01*
X129667000Y-136725000D01*
X129667000Y-131184971D01*
X174484821Y-131184971D01*
X174642058Y-131565515D01*
X174932954Y-131856919D01*
X175313223Y-132014820D01*
X175724971Y-132015179D01*
X176105515Y-131857942D01*
X176396919Y-131567046D01*
X176554820Y-131186777D01*
X176555179Y-130775029D01*
X176397942Y-130394485D01*
X176107046Y-130103081D01*
X175726777Y-129945180D01*
X175315029Y-129944821D01*
X174934485Y-130102058D01*
X174643081Y-130392954D01*
X174485180Y-130773223D01*
X174484821Y-131184971D01*
X129667000Y-131184971D01*
X129667000Y-127764971D01*
X155664821Y-127764971D01*
X155822058Y-128145515D01*
X156112954Y-128436919D01*
X156493223Y-128594820D01*
X156904971Y-128595179D01*
X157285515Y-128437942D01*
X157576919Y-128147046D01*
X157734820Y-127766777D01*
X157735179Y-127355029D01*
X157660781Y-127174971D01*
X180364821Y-127174971D01*
X180522058Y-127555515D01*
X180812954Y-127846919D01*
X181193223Y-128004820D01*
X181604971Y-128005179D01*
X181985515Y-127847942D01*
X182276919Y-127557046D01*
X182434820Y-127176777D01*
X182435179Y-126765029D01*
X182277942Y-126384485D01*
X181987046Y-126093081D01*
X181606777Y-125935180D01*
X181195029Y-125934821D01*
X180814485Y-126092058D01*
X180523081Y-126382954D01*
X180365180Y-126763223D01*
X180364821Y-127174971D01*
X157660781Y-127174971D01*
X157577942Y-126974485D01*
X157532589Y-126929053D01*
X157763223Y-127024820D01*
X158174971Y-127025179D01*
X158555515Y-126867942D01*
X158846919Y-126577046D01*
X158997265Y-126214971D01*
X178104821Y-126214971D01*
X178262058Y-126595515D01*
X178552954Y-126886919D01*
X178933223Y-127044820D01*
X179344971Y-127045179D01*
X179725515Y-126887942D01*
X180016919Y-126597046D01*
X180174820Y-126216777D01*
X180175179Y-125805029D01*
X180017942Y-125424485D01*
X179727046Y-125133081D01*
X179346777Y-124975180D01*
X178935029Y-124974821D01*
X178554485Y-125132058D01*
X178263081Y-125422954D01*
X178105180Y-125803223D01*
X178104821Y-126214971D01*
X158997265Y-126214971D01*
X159004820Y-126196777D01*
X159005179Y-125785029D01*
X158917586Y-125573036D01*
X159120534Y-125776339D01*
X159500803Y-125934240D01*
X159912551Y-125934599D01*
X160293095Y-125777362D01*
X160584499Y-125486466D01*
X160742400Y-125106197D01*
X160742759Y-124694449D01*
X160585522Y-124313905D01*
X160332930Y-124060872D01*
X160426919Y-123967046D01*
X160584820Y-123586777D01*
X160585179Y-123175029D01*
X160427942Y-122794485D01*
X160137046Y-122503081D01*
X159756777Y-122345180D01*
X159345029Y-122344821D01*
X158964485Y-122502058D01*
X158673081Y-122792954D01*
X158515180Y-123173223D01*
X158514821Y-123584971D01*
X158672058Y-123965515D01*
X158924650Y-124218548D01*
X158830661Y-124312374D01*
X158672760Y-124692643D01*
X158672401Y-125104391D01*
X158759994Y-125316384D01*
X158557046Y-125113081D01*
X158176777Y-124955180D01*
X157765029Y-124954821D01*
X157384485Y-125112058D01*
X157093081Y-125402954D01*
X156935180Y-125783223D01*
X156934821Y-126194971D01*
X157092058Y-126575515D01*
X157137411Y-126620947D01*
X156906777Y-126525180D01*
X156495029Y-126524821D01*
X156114485Y-126682058D01*
X155823081Y-126972954D01*
X155665180Y-127353223D01*
X155664821Y-127764971D01*
X129667000Y-127764971D01*
X129667000Y-124544971D01*
X151804821Y-124544971D01*
X151962058Y-124925515D01*
X152252954Y-125216919D01*
X152633223Y-125374820D01*
X153044971Y-125375179D01*
X153425515Y-125217942D01*
X153716919Y-124927046D01*
X153874820Y-124546777D01*
X153875179Y-124135029D01*
X153717942Y-123754485D01*
X153427046Y-123463081D01*
X153046777Y-123305180D01*
X152635029Y-123304821D01*
X152254485Y-123462058D01*
X151963081Y-123752954D01*
X151805180Y-124133223D01*
X151804821Y-124544971D01*
X129667000Y-124544971D01*
X129667000Y-123044971D01*
X153814821Y-123044971D01*
X153972058Y-123425515D01*
X154262954Y-123716919D01*
X154643223Y-123874820D01*
X155054971Y-123875179D01*
X155435515Y-123717942D01*
X155726919Y-123427046D01*
X155884820Y-123046777D01*
X155884990Y-122851573D01*
X156013223Y-122904820D01*
X156424971Y-122905179D01*
X156805515Y-122747942D01*
X157096919Y-122457046D01*
X157232057Y-122131597D01*
X157471428Y-122131806D01*
X157851972Y-121974569D01*
X157971778Y-121854971D01*
X163184821Y-121854971D01*
X163342058Y-122235515D01*
X163632954Y-122526919D01*
X164013223Y-122684820D01*
X164424971Y-122685179D01*
X164805515Y-122527942D01*
X165096919Y-122237046D01*
X165254820Y-121856777D01*
X165255179Y-121445029D01*
X165097942Y-121064485D01*
X164807046Y-120773081D01*
X164426777Y-120615180D01*
X164015029Y-120614821D01*
X163634485Y-120772058D01*
X163343081Y-121062954D01*
X163185180Y-121443223D01*
X163184821Y-121854971D01*
X157971778Y-121854971D01*
X158143376Y-121683673D01*
X158301277Y-121303404D01*
X158301636Y-120891656D01*
X158144399Y-120511112D01*
X157853503Y-120219708D01*
X157473234Y-120061807D01*
X157061486Y-120061448D01*
X156680942Y-120218685D01*
X156389538Y-120509581D01*
X156254400Y-120835030D01*
X156015029Y-120834821D01*
X155634485Y-120992058D01*
X155343081Y-121282954D01*
X155185180Y-121663223D01*
X155185010Y-121858427D01*
X155056777Y-121805180D01*
X154645029Y-121804821D01*
X154264485Y-121962058D01*
X153973081Y-122252954D01*
X153815180Y-122633223D01*
X153814821Y-123044971D01*
X129667000Y-123044971D01*
X129667000Y-119749994D01*
X162906403Y-119749994D01*
X163063640Y-120130538D01*
X163354536Y-120421942D01*
X163734805Y-120579843D01*
X164146553Y-120580202D01*
X164231818Y-120544971D01*
X169574821Y-120544971D01*
X169732058Y-120925515D01*
X169801288Y-120994866D01*
X169733081Y-121062954D01*
X169575180Y-121443223D01*
X169574821Y-121854971D01*
X169732058Y-122235515D01*
X170022954Y-122526919D01*
X170403223Y-122684820D01*
X170814971Y-122685179D01*
X171057493Y-122584971D01*
X179414821Y-122584971D01*
X179572058Y-122965515D01*
X179731192Y-123124927D01*
X179683081Y-123172954D01*
X179525180Y-123553223D01*
X179524821Y-123964971D01*
X179682058Y-124345515D01*
X179972954Y-124636919D01*
X180353223Y-124794820D01*
X180764971Y-124795179D01*
X181145515Y-124637942D01*
X181436919Y-124347046D01*
X181500065Y-124194971D01*
X183204821Y-124194971D01*
X183362058Y-124575515D01*
X183652954Y-124866919D01*
X184033223Y-125024820D01*
X184211562Y-125024975D01*
X183923081Y-125312954D01*
X183765180Y-125693223D01*
X183764821Y-126104971D01*
X183922058Y-126485515D01*
X184212954Y-126776919D01*
X184593223Y-126934820D01*
X185004971Y-126935179D01*
X185385515Y-126777942D01*
X185676919Y-126487046D01*
X185834820Y-126106777D01*
X185835101Y-125784857D01*
X186204971Y-125785179D01*
X186585515Y-125627942D01*
X186876919Y-125337046D01*
X187034820Y-124956777D01*
X187035179Y-124545029D01*
X186877942Y-124164485D01*
X186587046Y-123873081D01*
X186206777Y-123715180D01*
X185795029Y-123714821D01*
X185414485Y-123872058D01*
X185274982Y-124011318D01*
X185275179Y-123785029D01*
X185192518Y-123584971D01*
X188394821Y-123584971D01*
X188552058Y-123965515D01*
X188842954Y-124256919D01*
X189223223Y-124414820D01*
X189634971Y-124415179D01*
X190015515Y-124257942D01*
X190306919Y-123967046D01*
X190464820Y-123586777D01*
X190465179Y-123175029D01*
X190307942Y-122794485D01*
X190017046Y-122503081D01*
X189636777Y-122345180D01*
X189225029Y-122344821D01*
X188844485Y-122502058D01*
X188553081Y-122792954D01*
X188395180Y-123173223D01*
X188394821Y-123584971D01*
X185192518Y-123584971D01*
X185117942Y-123404485D01*
X184827046Y-123113081D01*
X184446777Y-122955180D01*
X184035029Y-122954821D01*
X183654485Y-123112058D01*
X183363081Y-123402954D01*
X183205180Y-123783223D01*
X183204821Y-124194971D01*
X181500065Y-124194971D01*
X181594820Y-123966777D01*
X181595179Y-123555029D01*
X181437942Y-123174485D01*
X181278808Y-123015073D01*
X181326919Y-122967046D01*
X181484820Y-122586777D01*
X181485179Y-122175029D01*
X181402518Y-121974971D01*
X182394821Y-121974971D01*
X182552058Y-122355515D01*
X182842954Y-122646919D01*
X183223223Y-122804820D01*
X183634971Y-122805179D01*
X184015515Y-122647942D01*
X184306919Y-122357046D01*
X184464820Y-121976777D01*
X184465179Y-121565029D01*
X184307942Y-121184485D01*
X184017046Y-120893081D01*
X183636777Y-120735180D01*
X183225029Y-120734821D01*
X182844485Y-120892058D01*
X182553081Y-121182954D01*
X182395180Y-121563223D01*
X182394821Y-121974971D01*
X181402518Y-121974971D01*
X181327942Y-121794485D01*
X181037046Y-121503081D01*
X180656777Y-121345180D01*
X180245029Y-121344821D01*
X179864485Y-121502058D01*
X179573081Y-121792954D01*
X179415180Y-122173223D01*
X179414821Y-122584971D01*
X171057493Y-122584971D01*
X171195515Y-122527942D01*
X171486919Y-122237046D01*
X171644820Y-121856777D01*
X171645179Y-121445029D01*
X171487942Y-121064485D01*
X171418712Y-120995134D01*
X171486919Y-120927046D01*
X171644820Y-120546777D01*
X171645179Y-120135029D01*
X171487942Y-119754485D01*
X171197046Y-119463081D01*
X170816777Y-119305180D01*
X170405029Y-119304821D01*
X170024485Y-119462058D01*
X169733081Y-119752954D01*
X169575180Y-120133223D01*
X169574821Y-120544971D01*
X164231818Y-120544971D01*
X164527097Y-120422965D01*
X164818501Y-120132069D01*
X164976402Y-119751800D01*
X164976761Y-119340052D01*
X164929211Y-119224971D01*
X179404821Y-119224971D01*
X179562058Y-119605515D01*
X179852954Y-119896919D01*
X180233223Y-120054820D01*
X180644971Y-120055179D01*
X181025515Y-119897942D01*
X181316919Y-119607046D01*
X181474820Y-119226777D01*
X181475179Y-118815029D01*
X181317942Y-118434485D01*
X181027046Y-118143081D01*
X180646777Y-117985180D01*
X180235029Y-117984821D01*
X179854485Y-118142058D01*
X179563081Y-118432954D01*
X179405180Y-118813223D01*
X179404821Y-119224971D01*
X164929211Y-119224971D01*
X164819524Y-118959508D01*
X164528628Y-118668104D01*
X164148359Y-118510203D01*
X163736611Y-118509844D01*
X163356067Y-118667081D01*
X163064663Y-118957977D01*
X162906762Y-119338246D01*
X162906403Y-119749994D01*
X129667000Y-119749994D01*
X129667000Y-117352927D01*
X184976637Y-117352927D01*
X185011678Y-117723239D01*
X185085975Y-117902607D01*
X185219347Y-117910977D01*
X185162858Y-117967466D01*
X185195392Y-118000000D01*
X185162858Y-118032534D01*
X185219347Y-118089023D01*
X185085975Y-118097393D01*
X184976637Y-118452927D01*
X185011678Y-118823239D01*
X185085975Y-119002607D01*
X185219347Y-119010977D01*
X185162858Y-119067466D01*
X185195392Y-119100000D01*
X185162858Y-119132534D01*
X185219347Y-119189023D01*
X185085975Y-119197393D01*
X184976637Y-119552927D01*
X185011678Y-119923239D01*
X185085975Y-120102607D01*
X185280576Y-120114819D01*
X185745395Y-119650000D01*
X185731253Y-119635858D01*
X185873013Y-119494097D01*
X185967999Y-119485109D01*
X186080903Y-119598013D01*
X186089891Y-119692999D01*
X185939143Y-119843748D01*
X185925000Y-119829605D01*
X185460181Y-120294424D01*
X185472393Y-120489025D01*
X185827927Y-120598363D01*
X186198239Y-120563322D01*
X186377607Y-120489025D01*
X186385977Y-120355653D01*
X186442466Y-120412142D01*
X186475000Y-120379608D01*
X186507534Y-120412142D01*
X186564023Y-120355653D01*
X186572393Y-120489025D01*
X186927927Y-120598363D01*
X187298239Y-120563322D01*
X187477607Y-120489025D01*
X187485977Y-120355653D01*
X187542466Y-120412142D01*
X187575000Y-120379608D01*
X187607534Y-120412142D01*
X187664023Y-120355653D01*
X187672393Y-120489025D01*
X188027927Y-120598363D01*
X188398239Y-120563322D01*
X188577607Y-120489025D01*
X188589819Y-120294424D01*
X188125000Y-119829605D01*
X188110858Y-119843748D01*
X187969097Y-119701987D01*
X187960109Y-119607001D01*
X188073013Y-119494097D01*
X188167999Y-119485109D01*
X188318748Y-119635858D01*
X188304605Y-119650000D01*
X188769424Y-120114819D01*
X188964025Y-120102607D01*
X189073363Y-119747073D01*
X189038322Y-119376761D01*
X188964025Y-119197393D01*
X188830653Y-119189023D01*
X188887142Y-119132534D01*
X188854608Y-119100000D01*
X188887142Y-119067466D01*
X188830653Y-119010977D01*
X188964025Y-119002607D01*
X189073363Y-118647073D01*
X189038322Y-118276761D01*
X188964025Y-118097393D01*
X188830653Y-118089023D01*
X188887142Y-118032534D01*
X188854608Y-118000000D01*
X188887142Y-117967466D01*
X188830653Y-117910977D01*
X188964025Y-117902607D01*
X189073363Y-117547073D01*
X189038322Y-117176761D01*
X188964025Y-116997393D01*
X188769424Y-116985181D01*
X188304605Y-117450000D01*
X188318748Y-117464143D01*
X188176987Y-117605903D01*
X188082001Y-117614891D01*
X187969097Y-117501987D01*
X187960109Y-117407001D01*
X188110858Y-117256253D01*
X188125000Y-117270395D01*
X188589819Y-116805576D01*
X188577607Y-116610975D01*
X188222073Y-116501637D01*
X187851761Y-116536678D01*
X187672393Y-116610975D01*
X187664023Y-116744347D01*
X187607534Y-116687858D01*
X187575000Y-116720392D01*
X187542466Y-116687858D01*
X187485977Y-116744347D01*
X187477607Y-116610975D01*
X187122073Y-116501637D01*
X186751761Y-116536678D01*
X186572393Y-116610975D01*
X186564023Y-116744347D01*
X186507534Y-116687858D01*
X186475000Y-116720392D01*
X186442466Y-116687858D01*
X186385977Y-116744347D01*
X186377607Y-116610975D01*
X186022073Y-116501637D01*
X185651761Y-116536678D01*
X185472393Y-116610975D01*
X185460181Y-116805576D01*
X185925000Y-117270395D01*
X185939143Y-117256253D01*
X186080903Y-117398013D01*
X186089891Y-117492999D01*
X185976987Y-117605903D01*
X185882001Y-117614891D01*
X185731253Y-117464143D01*
X185745395Y-117450000D01*
X185280576Y-116985181D01*
X185085975Y-116997393D01*
X184976637Y-117352927D01*
X129667000Y-117352927D01*
X129667000Y-115934971D01*
X181354821Y-115934971D01*
X181512058Y-116315515D01*
X181802954Y-116606919D01*
X182183223Y-116764820D01*
X182594971Y-116765179D01*
X182975515Y-116607942D01*
X183266919Y-116317046D01*
X183424820Y-115936777D01*
X183425179Y-115525029D01*
X183267942Y-115144485D01*
X182977046Y-114853081D01*
X182596777Y-114695180D01*
X182185029Y-114694821D01*
X181804485Y-114852058D01*
X181513081Y-115142954D01*
X181355180Y-115523223D01*
X181354821Y-115934971D01*
X129667000Y-115934971D01*
X129667000Y-115014188D01*
X149998814Y-115014188D01*
X150156051Y-115394732D01*
X150446947Y-115686136D01*
X150827216Y-115844037D01*
X151238964Y-115844396D01*
X151619508Y-115687159D01*
X151910912Y-115396263D01*
X152068813Y-115015994D01*
X152069172Y-114604246D01*
X151911935Y-114223702D01*
X151882736Y-114194452D01*
X152269967Y-114194790D01*
X152650511Y-114037553D01*
X152941915Y-113746657D01*
X153072025Y-113433316D01*
X156665969Y-113433316D01*
X156823206Y-113813860D01*
X157114102Y-114105264D01*
X157494371Y-114263165D01*
X157906119Y-114263524D01*
X158120434Y-114174971D01*
X192814821Y-114174971D01*
X192972058Y-114555515D01*
X193262954Y-114846919D01*
X193643223Y-115004820D01*
X194054971Y-115005179D01*
X194435515Y-114847942D01*
X194726919Y-114557046D01*
X194884820Y-114176777D01*
X194885179Y-113765029D01*
X194727942Y-113384485D01*
X194437046Y-113093081D01*
X194056777Y-112935180D01*
X193645029Y-112934821D01*
X193264485Y-113092058D01*
X192973081Y-113382954D01*
X192815180Y-113763223D01*
X192814821Y-114174971D01*
X158120434Y-114174971D01*
X158286663Y-114106287D01*
X158578067Y-113815391D01*
X158735968Y-113435122D01*
X158736327Y-113023374D01*
X158579090Y-112642830D01*
X158351629Y-112414971D01*
X189464821Y-112414971D01*
X189622058Y-112795515D01*
X189912954Y-113086919D01*
X190293223Y-113244820D01*
X190704971Y-113245179D01*
X191085515Y-113087942D01*
X191376919Y-112797046D01*
X191534820Y-112416777D01*
X191535179Y-112005029D01*
X191377942Y-111624485D01*
X191087046Y-111333081D01*
X190706777Y-111175180D01*
X190295029Y-111174821D01*
X189914485Y-111332058D01*
X189623081Y-111622954D01*
X189465180Y-112003223D01*
X189464821Y-112414971D01*
X158351629Y-112414971D01*
X158288194Y-112351426D01*
X157907925Y-112193525D01*
X157496177Y-112193166D01*
X157115633Y-112350403D01*
X156824229Y-112641299D01*
X156666328Y-113021568D01*
X156665969Y-113433316D01*
X153072025Y-113433316D01*
X153099816Y-113366388D01*
X153100175Y-112954640D01*
X152942938Y-112574096D01*
X152652042Y-112282692D01*
X152271773Y-112124791D01*
X151860025Y-112124432D01*
X151479481Y-112281669D01*
X151188077Y-112572565D01*
X151030176Y-112952834D01*
X151029817Y-113364582D01*
X151187054Y-113745126D01*
X151216253Y-113774376D01*
X150829022Y-113774038D01*
X150448478Y-113931275D01*
X150157074Y-114222171D01*
X149999173Y-114602440D01*
X149998814Y-115014188D01*
X129667000Y-115014188D01*
X129667000Y-111924971D01*
X130774821Y-111924971D01*
X130932058Y-112305515D01*
X131222954Y-112596919D01*
X131603223Y-112754820D01*
X132014971Y-112755179D01*
X132395515Y-112597942D01*
X132686919Y-112307046D01*
X132844820Y-111926777D01*
X132844926Y-111804971D01*
X148474821Y-111804971D01*
X148632058Y-112185515D01*
X148922954Y-112476919D01*
X149303223Y-112634820D01*
X149714971Y-112635179D01*
X150095515Y-112477942D01*
X150386919Y-112187046D01*
X150544820Y-111806777D01*
X150545179Y-111395029D01*
X150387942Y-111014485D01*
X150097046Y-110723081D01*
X149716777Y-110565180D01*
X149305029Y-110564821D01*
X148924485Y-110722058D01*
X148633081Y-111012954D01*
X148475180Y-111393223D01*
X148474821Y-111804971D01*
X132844926Y-111804971D01*
X132845179Y-111515029D01*
X132687942Y-111134485D01*
X132397046Y-110843081D01*
X132016777Y-110685180D01*
X131605029Y-110684821D01*
X131224485Y-110842058D01*
X130933081Y-111132954D01*
X130775180Y-111513223D01*
X130774821Y-111924971D01*
X129667000Y-111924971D01*
X129667000Y-110594971D01*
X145484821Y-110594971D01*
X145642058Y-110975515D01*
X145932954Y-111266919D01*
X146313223Y-111424820D01*
X146724971Y-111425179D01*
X147105515Y-111267942D01*
X147396919Y-110977046D01*
X147554820Y-110596777D01*
X147555179Y-110185029D01*
X147397942Y-109804485D01*
X147107046Y-109513081D01*
X146726777Y-109355180D01*
X146315029Y-109354821D01*
X145934485Y-109512058D01*
X145643081Y-109802954D01*
X145485180Y-110183223D01*
X145484821Y-110594971D01*
X129667000Y-110594971D01*
X129667000Y-106799445D01*
X147603139Y-106799445D01*
X147760376Y-107179989D01*
X148051272Y-107471393D01*
X148431541Y-107629294D01*
X148843289Y-107629653D01*
X149223833Y-107472416D01*
X149515237Y-107181520D01*
X149648389Y-106860853D01*
X149873840Y-107086697D01*
X150254109Y-107244598D01*
X150665857Y-107244957D01*
X151046401Y-107087720D01*
X151337805Y-106796824D01*
X151464020Y-106492863D01*
X152592703Y-106492863D01*
X152749940Y-106873407D01*
X153040836Y-107164811D01*
X153421105Y-107322712D01*
X153832853Y-107323071D01*
X154092847Y-107215644D01*
X154092783Y-107288830D01*
X154250020Y-107669374D01*
X154540916Y-107960778D01*
X154921185Y-108118679D01*
X155332933Y-108119038D01*
X155713477Y-107961801D01*
X156004881Y-107670905D01*
X156162782Y-107290636D01*
X156163141Y-106878888D01*
X156005904Y-106498344D01*
X155862781Y-106354971D01*
X185034821Y-106354971D01*
X185192058Y-106735515D01*
X185482954Y-107026919D01*
X185863223Y-107184820D01*
X186041248Y-107184975D01*
X185933081Y-107292954D01*
X185775180Y-107673223D01*
X185774821Y-108084971D01*
X185932058Y-108465515D01*
X186222954Y-108756919D01*
X186603223Y-108914820D01*
X187014971Y-108915179D01*
X187395515Y-108757942D01*
X187686919Y-108467046D01*
X187844820Y-108086777D01*
X187845179Y-107675029D01*
X187687942Y-107294485D01*
X187397046Y-107003081D01*
X187016777Y-106845180D01*
X186838752Y-106845025D01*
X186946919Y-106737046D01*
X187104820Y-106356777D01*
X187105179Y-105945029D01*
X186947942Y-105564485D01*
X186657046Y-105273081D01*
X186276777Y-105115180D01*
X185865029Y-105114821D01*
X185484485Y-105272058D01*
X185193081Y-105562954D01*
X185035180Y-105943223D01*
X185034821Y-106354971D01*
X155862781Y-106354971D01*
X155715008Y-106206940D01*
X155334739Y-106049039D01*
X154922991Y-106048680D01*
X154662997Y-106156107D01*
X154663061Y-106082921D01*
X154505824Y-105702377D01*
X154214928Y-105410973D01*
X153834659Y-105253072D01*
X153422911Y-105252713D01*
X153042367Y-105409950D01*
X152750963Y-105700846D01*
X152593062Y-106081115D01*
X152592703Y-106492863D01*
X151464020Y-106492863D01*
X151491587Y-106426474D01*
X151594971Y-106426564D01*
X151975515Y-106269327D01*
X152266919Y-105978431D01*
X152424820Y-105598162D01*
X152425179Y-105186414D01*
X152267942Y-104805870D01*
X151977046Y-104514466D01*
X151596777Y-104356565D01*
X151185029Y-104356206D01*
X150804485Y-104513443D01*
X150513081Y-104804339D01*
X150359299Y-105174689D01*
X150255915Y-105174599D01*
X149875371Y-105331836D01*
X149583967Y-105622732D01*
X149450815Y-105943399D01*
X149225364Y-105717555D01*
X148845095Y-105559654D01*
X148433347Y-105559295D01*
X148052803Y-105716532D01*
X147761399Y-106007428D01*
X147603498Y-106387697D01*
X147603139Y-106799445D01*
X129667000Y-106799445D01*
X129667000Y-104282572D01*
X145334409Y-104282572D01*
X145491646Y-104663116D01*
X145782542Y-104954520D01*
X146162811Y-105112421D01*
X146574559Y-105112780D01*
X146955103Y-104955543D01*
X147246507Y-104664647D01*
X147404408Y-104284378D01*
X147404767Y-103872630D01*
X147247530Y-103492086D01*
X146956634Y-103200682D01*
X146576365Y-103042781D01*
X146164617Y-103042422D01*
X145784073Y-103199659D01*
X145492669Y-103490555D01*
X145334768Y-103870824D01*
X145334409Y-104282572D01*
X129667000Y-104282572D01*
X129667000Y-102274971D01*
X145964821Y-102274971D01*
X146122058Y-102655515D01*
X146412954Y-102946919D01*
X146793223Y-103104820D01*
X147204971Y-103105179D01*
X147585515Y-102947942D01*
X147876919Y-102657046D01*
X148034820Y-102276777D01*
X148035179Y-101865029D01*
X147877942Y-101484485D01*
X147688759Y-101294971D01*
X149364821Y-101294971D01*
X149522058Y-101675515D01*
X149812954Y-101966919D01*
X150193223Y-102124820D01*
X150218484Y-102124842D01*
X150029561Y-102313436D01*
X149871660Y-102693705D01*
X149871301Y-103105453D01*
X150028538Y-103485997D01*
X150319434Y-103777401D01*
X150699703Y-103935302D01*
X151111451Y-103935661D01*
X151491995Y-103778424D01*
X151783399Y-103487528D01*
X151878768Y-103257851D01*
X154504261Y-103257851D01*
X154661498Y-103638395D01*
X154952394Y-103929799D01*
X155332663Y-104087700D01*
X155624634Y-104087955D01*
X155624401Y-104355129D01*
X155781638Y-104735673D01*
X156072534Y-105027077D01*
X156452803Y-105184978D01*
X156864551Y-105185337D01*
X157245095Y-105028100D01*
X157536499Y-104737204D01*
X157694400Y-104356935D01*
X157694759Y-103945187D01*
X157537522Y-103564643D01*
X157246626Y-103273239D01*
X156866357Y-103115338D01*
X156574386Y-103115083D01*
X156574619Y-102847909D01*
X156417382Y-102467365D01*
X156126486Y-102175961D01*
X155746217Y-102018060D01*
X155334469Y-102017701D01*
X154953925Y-102174938D01*
X154662521Y-102465834D01*
X154504620Y-102846103D01*
X154504261Y-103257851D01*
X151878768Y-103257851D01*
X151941300Y-103107259D01*
X151941659Y-102695511D01*
X151889693Y-102569743D01*
X152193223Y-102695779D01*
X152604971Y-102696138D01*
X152985515Y-102538901D01*
X153276919Y-102248005D01*
X153434820Y-101867736D01*
X153435179Y-101455988D01*
X153277942Y-101075444D01*
X152987046Y-100784040D01*
X152606777Y-100626139D01*
X152195029Y-100625780D01*
X151814485Y-100783017D01*
X151523081Y-101073913D01*
X151434829Y-101286448D01*
X151435179Y-100885029D01*
X151277942Y-100504485D01*
X150987046Y-100213081D01*
X150606777Y-100055180D01*
X150195029Y-100054821D01*
X149814485Y-100212058D01*
X149523081Y-100502954D01*
X149365180Y-100883223D01*
X149364821Y-101294971D01*
X147688759Y-101294971D01*
X147587046Y-101193081D01*
X147206777Y-101035180D01*
X146795029Y-101034821D01*
X146414485Y-101192058D01*
X146123081Y-101482954D01*
X145965180Y-101863223D01*
X145964821Y-102274971D01*
X129667000Y-102274971D01*
X129667000Y-99280211D01*
X151109551Y-99280211D01*
X151266788Y-99660755D01*
X151557684Y-99952159D01*
X151937953Y-100110060D01*
X152349701Y-100110419D01*
X152730245Y-99953182D01*
X152983904Y-99699965D01*
X152945180Y-99793223D01*
X152944821Y-100204971D01*
X153102058Y-100585515D01*
X153392954Y-100876919D01*
X153773223Y-101034820D01*
X154184971Y-101035179D01*
X154565515Y-100877942D01*
X154856919Y-100587046D01*
X155014820Y-100206777D01*
X155015179Y-99795029D01*
X155015156Y-99794971D01*
X155844821Y-99794971D01*
X156002058Y-100175515D01*
X156292954Y-100466919D01*
X156673223Y-100624820D01*
X157084971Y-100625179D01*
X157465515Y-100467942D01*
X157748644Y-100185306D01*
X160124131Y-100185306D01*
X160281368Y-100565850D01*
X160572264Y-100857254D01*
X160952533Y-101015155D01*
X161364281Y-101015514D01*
X161744825Y-100858277D01*
X162036229Y-100567381D01*
X162194130Y-100187112D01*
X162194489Y-99775364D01*
X162037252Y-99394820D01*
X161746356Y-99103416D01*
X161366087Y-98945515D01*
X160954339Y-98945156D01*
X160573795Y-99102393D01*
X160282391Y-99393289D01*
X160124490Y-99773558D01*
X160124131Y-100185306D01*
X157748644Y-100185306D01*
X157756919Y-100177046D01*
X157914820Y-99796777D01*
X157915179Y-99385029D01*
X157757942Y-99004485D01*
X157467046Y-98713081D01*
X157086777Y-98555180D01*
X156675029Y-98554821D01*
X156294485Y-98712058D01*
X156003081Y-99002954D01*
X155845180Y-99383223D01*
X155844821Y-99794971D01*
X155015156Y-99794971D01*
X154857942Y-99414485D01*
X154567046Y-99123081D01*
X154186777Y-98965180D01*
X153775029Y-98964821D01*
X153394485Y-99122058D01*
X153140826Y-99375275D01*
X153179550Y-99282017D01*
X153179909Y-98870269D01*
X153022672Y-98489725D01*
X152731776Y-98198321D01*
X152351507Y-98040420D01*
X151939759Y-98040061D01*
X151559215Y-98197298D01*
X151267811Y-98488194D01*
X151109910Y-98868463D01*
X151109551Y-99280211D01*
X129667000Y-99280211D01*
X129667000Y-94844971D01*
X133354821Y-94844971D01*
X133512058Y-95225515D01*
X133802954Y-95516919D01*
X134183223Y-95674820D01*
X134594971Y-95675179D01*
X134605173Y-95670964D01*
X134604821Y-96074971D01*
X134762058Y-96455515D01*
X135052954Y-96746919D01*
X135433223Y-96904820D01*
X135844971Y-96905179D01*
X136225515Y-96747942D01*
X136516919Y-96457046D01*
X136646478Y-96145032D01*
X136814971Y-96145179D01*
X137195515Y-95987942D01*
X137468962Y-95714971D01*
X140674821Y-95714971D01*
X140832058Y-96095515D01*
X141122954Y-96386919D01*
X141503223Y-96544820D01*
X141914971Y-96545179D01*
X142295515Y-96387942D01*
X142586919Y-96097046D01*
X142701403Y-95821337D01*
X151943542Y-95821337D01*
X152100779Y-96201881D01*
X152391675Y-96493285D01*
X152771944Y-96651186D01*
X153183692Y-96651545D01*
X153564236Y-96494308D01*
X153855640Y-96203412D01*
X154013541Y-95823143D01*
X154013818Y-95505025D01*
X156438662Y-95505025D01*
X156595899Y-95885569D01*
X156886795Y-96176973D01*
X157267064Y-96334874D01*
X157678812Y-96335233D01*
X158059356Y-96177996D01*
X158230359Y-96007291D01*
X158117969Y-96277957D01*
X158117610Y-96689705D01*
X158274847Y-97070249D01*
X158565743Y-97361653D01*
X158946012Y-97519554D01*
X159357760Y-97519913D01*
X159738304Y-97362676D01*
X160029708Y-97071780D01*
X160187609Y-96691511D01*
X160187968Y-96279763D01*
X160030731Y-95899219D01*
X159739835Y-95607815D01*
X159359566Y-95449914D01*
X158947818Y-95449555D01*
X158567274Y-95606792D01*
X158396271Y-95777497D01*
X158508661Y-95506831D01*
X158508898Y-95234082D01*
X159745547Y-95234082D01*
X159902784Y-95614626D01*
X160193680Y-95906030D01*
X160573949Y-96063931D01*
X160985697Y-96064290D01*
X161330336Y-95921889D01*
X161210691Y-96210027D01*
X161210332Y-96621775D01*
X161367569Y-97002319D01*
X161658465Y-97293723D01*
X162038734Y-97451624D01*
X162450482Y-97451983D01*
X162831026Y-97294746D01*
X163122430Y-97003850D01*
X163280331Y-96623581D01*
X163280690Y-96211833D01*
X163199349Y-96014971D01*
X165624821Y-96014971D01*
X165782058Y-96395515D01*
X166072954Y-96686919D01*
X166453223Y-96844820D01*
X166864971Y-96845179D01*
X167245515Y-96687942D01*
X167536919Y-96397046D01*
X167694820Y-96016777D01*
X167695179Y-95605029D01*
X167537942Y-95224485D01*
X167247046Y-94933081D01*
X166866777Y-94775180D01*
X166455029Y-94774821D01*
X166074485Y-94932058D01*
X165783081Y-95222954D01*
X165625180Y-95603223D01*
X165624821Y-96014971D01*
X163199349Y-96014971D01*
X163123453Y-95831289D01*
X162832557Y-95539885D01*
X162452288Y-95381984D01*
X162040540Y-95381625D01*
X161695901Y-95524026D01*
X161815546Y-95235888D01*
X161815905Y-94824140D01*
X161658668Y-94443596D01*
X161367772Y-94152192D01*
X160987503Y-93994291D01*
X160575755Y-93993932D01*
X160195211Y-94151169D01*
X159903807Y-94442065D01*
X159745906Y-94822334D01*
X159745547Y-95234082D01*
X158508898Y-95234082D01*
X158509020Y-95095083D01*
X158351783Y-94714539D01*
X158060887Y-94423135D01*
X157680618Y-94265234D01*
X157268870Y-94264875D01*
X156888326Y-94422112D01*
X156596922Y-94713008D01*
X156439021Y-95093277D01*
X156438662Y-95505025D01*
X154013818Y-95505025D01*
X154013900Y-95411395D01*
X153856663Y-95030851D01*
X153565767Y-94739447D01*
X153185498Y-94581546D01*
X152773750Y-94581187D01*
X152393206Y-94738424D01*
X152101802Y-95029320D01*
X151943901Y-95409589D01*
X151943542Y-95821337D01*
X142701403Y-95821337D01*
X142744820Y-95716777D01*
X142745179Y-95305029D01*
X142587942Y-94924485D01*
X142297046Y-94633081D01*
X141916777Y-94475180D01*
X141505029Y-94474821D01*
X141124485Y-94632058D01*
X140833081Y-94922954D01*
X140675180Y-95303223D01*
X140674821Y-95714971D01*
X137468962Y-95714971D01*
X137486919Y-95697046D01*
X137644820Y-95316777D01*
X137645013Y-95095109D01*
X137724971Y-95095179D01*
X138105515Y-94937942D01*
X138396919Y-94647046D01*
X138554820Y-94266777D01*
X138555179Y-93855029D01*
X138530311Y-93794844D01*
X138914971Y-93795179D01*
X139295515Y-93637942D01*
X139586919Y-93347046D01*
X139744820Y-92966777D01*
X139745062Y-92688623D01*
X146620060Y-92688623D01*
X146777297Y-93069167D01*
X147068193Y-93360571D01*
X147448462Y-93518472D01*
X147860210Y-93518831D01*
X148240754Y-93361594D01*
X148532158Y-93070698D01*
X148540395Y-93050860D01*
X151475311Y-93050860D01*
X151632548Y-93431404D01*
X151923444Y-93722808D01*
X152303713Y-93880709D01*
X152715461Y-93881068D01*
X153096005Y-93723831D01*
X153387409Y-93432935D01*
X153545310Y-93052666D01*
X153545669Y-92640918D01*
X153388432Y-92260374D01*
X153097536Y-91968970D01*
X152717267Y-91811069D01*
X152305519Y-91810710D01*
X151924975Y-91967947D01*
X151633571Y-92258843D01*
X151475670Y-92639112D01*
X151475311Y-93050860D01*
X148540395Y-93050860D01*
X148690059Y-92690429D01*
X148690418Y-92278681D01*
X148533181Y-91898137D01*
X148242285Y-91606733D01*
X147862016Y-91448832D01*
X147450268Y-91448473D01*
X147069724Y-91605710D01*
X146778320Y-91896606D01*
X146620419Y-92276875D01*
X146620060Y-92688623D01*
X139745062Y-92688623D01*
X139745179Y-92555029D01*
X139587942Y-92174485D01*
X139297046Y-91883081D01*
X138916777Y-91725180D01*
X138694987Y-91724987D01*
X138695179Y-91505029D01*
X138537942Y-91124485D01*
X138502998Y-91089479D01*
X142854062Y-91089479D01*
X143011299Y-91470023D01*
X143302195Y-91761427D01*
X143682464Y-91919328D01*
X144094212Y-91919687D01*
X144474756Y-91762450D01*
X144766160Y-91471554D01*
X144924061Y-91091285D01*
X144924284Y-90834971D01*
X145434821Y-90834971D01*
X145592058Y-91215515D01*
X145882954Y-91506919D01*
X146263223Y-91664820D01*
X146674971Y-91665179D01*
X147055515Y-91507942D01*
X147346919Y-91217046D01*
X147428809Y-91019830D01*
X152768967Y-91019830D01*
X152926204Y-91400374D01*
X153217100Y-91691778D01*
X153597369Y-91849679D01*
X154009117Y-91850038D01*
X154389661Y-91692801D01*
X154681065Y-91401905D01*
X154774984Y-91175722D01*
X159222548Y-91175722D01*
X159379785Y-91556266D01*
X159670681Y-91847670D01*
X160050950Y-92005571D01*
X160462698Y-92005930D01*
X160843242Y-91848693D01*
X161134646Y-91557797D01*
X161292547Y-91177528D01*
X161292906Y-90765780D01*
X161135669Y-90385236D01*
X160844773Y-90093832D01*
X160464504Y-89935931D01*
X160052756Y-89935572D01*
X159672212Y-90092809D01*
X159380808Y-90383705D01*
X159222907Y-90763974D01*
X159222548Y-91175722D01*
X154774984Y-91175722D01*
X154838966Y-91021636D01*
X154839325Y-90609888D01*
X154682088Y-90229344D01*
X154391192Y-89937940D01*
X154010923Y-89780039D01*
X153599175Y-89779680D01*
X153218631Y-89936917D01*
X152927227Y-90227813D01*
X152769326Y-90608082D01*
X152768967Y-91019830D01*
X147428809Y-91019830D01*
X147454824Y-90957180D01*
X147473223Y-90964820D01*
X147884971Y-90965179D01*
X148265515Y-90807942D01*
X148556919Y-90517046D01*
X148714820Y-90136777D01*
X148714883Y-90064909D01*
X149024971Y-90065179D01*
X149405515Y-89907942D01*
X149696919Y-89617046D01*
X149854820Y-89236777D01*
X149855179Y-88825029D01*
X149697942Y-88444485D01*
X149522520Y-88268756D01*
X157324946Y-88268756D01*
X157482183Y-88649300D01*
X157773079Y-88940704D01*
X158153348Y-89098605D01*
X158565096Y-89098964D01*
X158945640Y-88941727D01*
X159237044Y-88650831D01*
X159256558Y-88603836D01*
X159258661Y-88608926D01*
X159549557Y-88900330D01*
X159929826Y-89058231D01*
X160341574Y-89058590D01*
X160722118Y-88901353D01*
X161013522Y-88610457D01*
X161171423Y-88230188D01*
X161171782Y-87818440D01*
X161014545Y-87437896D01*
X160723649Y-87146492D01*
X160343380Y-86988591D01*
X159931632Y-86988232D01*
X159551088Y-87145469D01*
X159259684Y-87436365D01*
X159240170Y-87483360D01*
X159238067Y-87478270D01*
X158947171Y-87186866D01*
X158566902Y-87028965D01*
X158155154Y-87028606D01*
X157774610Y-87185843D01*
X157483206Y-87476739D01*
X157325305Y-87857008D01*
X157324946Y-88268756D01*
X149522520Y-88268756D01*
X149407046Y-88153081D01*
X149026777Y-87995180D01*
X148615029Y-87994821D01*
X148234485Y-88152058D01*
X147943081Y-88442954D01*
X147785180Y-88823223D01*
X147785117Y-88895091D01*
X147475029Y-88894821D01*
X147094485Y-89052058D01*
X146803081Y-89342954D01*
X146695176Y-89602820D01*
X146676777Y-89595180D01*
X146265029Y-89594821D01*
X145884485Y-89752058D01*
X145593081Y-90042954D01*
X145435180Y-90423223D01*
X145434821Y-90834971D01*
X144924284Y-90834971D01*
X144924420Y-90679537D01*
X144767183Y-90298993D01*
X144476287Y-90007589D01*
X144096018Y-89849688D01*
X143684270Y-89849329D01*
X143303726Y-90006566D01*
X143012322Y-90297462D01*
X142854421Y-90677731D01*
X142854062Y-91089479D01*
X138502998Y-91089479D01*
X138247046Y-90833081D01*
X137866777Y-90675180D01*
X137455029Y-90674821D01*
X137074485Y-90832058D01*
X136783081Y-91122954D01*
X136625180Y-91503223D01*
X136624881Y-91845916D01*
X136526777Y-91805180D01*
X136115029Y-91804821D01*
X135734485Y-91962058D01*
X135443081Y-92252954D01*
X135285180Y-92633223D01*
X135285030Y-92804961D01*
X135125029Y-92804821D01*
X134744485Y-92962058D01*
X134453081Y-93252954D01*
X134306929Y-93604927D01*
X134185029Y-93604821D01*
X133804485Y-93762058D01*
X133513081Y-94052954D01*
X133355180Y-94433223D01*
X133354821Y-94844971D01*
X129667000Y-94844971D01*
X129667000Y-94030712D01*
X129773223Y-94074820D01*
X130184971Y-94075179D01*
X130565515Y-93917942D01*
X130856919Y-93627046D01*
X131014820Y-93246777D01*
X131015179Y-92835029D01*
X130857942Y-92454485D01*
X130567046Y-92163081D01*
X130186777Y-92005180D01*
X129775029Y-92004821D01*
X129667000Y-92049458D01*
X129667000Y-91174971D01*
X132354821Y-91174971D01*
X132512058Y-91555515D01*
X132802954Y-91846919D01*
X133183223Y-92004820D01*
X133594971Y-92005179D01*
X133975515Y-91847942D01*
X134266919Y-91557046D01*
X134424820Y-91176777D01*
X134425179Y-90765029D01*
X134267942Y-90384485D01*
X133977046Y-90093081D01*
X133596777Y-89935180D01*
X133185029Y-89934821D01*
X132804485Y-90092058D01*
X132513081Y-90382954D01*
X132355180Y-90763223D01*
X132354821Y-91174971D01*
X129667000Y-91174971D01*
X129667000Y-88554971D01*
X140594821Y-88554971D01*
X140752058Y-88935515D01*
X141042954Y-89226919D01*
X141423223Y-89384820D01*
X141834971Y-89385179D01*
X142215515Y-89227942D01*
X142506919Y-88937046D01*
X142664820Y-88556777D01*
X142665179Y-88145029D01*
X142507942Y-87764485D01*
X142217046Y-87473081D01*
X141836777Y-87315180D01*
X141425029Y-87314821D01*
X141044485Y-87472058D01*
X140753081Y-87762954D01*
X140595180Y-88143223D01*
X140594821Y-88554971D01*
X129667000Y-88554971D01*
X129667000Y-87134971D01*
X146994821Y-87134971D01*
X147152058Y-87515515D01*
X147442954Y-87806919D01*
X147823223Y-87964820D01*
X148234971Y-87965179D01*
X148615515Y-87807942D01*
X148906919Y-87517046D01*
X149064820Y-87136777D01*
X149065179Y-86725029D01*
X148907942Y-86344485D01*
X148617046Y-86053081D01*
X148236777Y-85895180D01*
X147825029Y-85894821D01*
X147444485Y-86052058D01*
X147153081Y-86342954D01*
X146995180Y-86723223D01*
X146994821Y-87134971D01*
X129667000Y-87134971D01*
X129667000Y-74596491D01*
X211837141Y-74596491D01*
X211994378Y-74977035D01*
X212285274Y-75268439D01*
X212665543Y-75426340D01*
X213077291Y-75426699D01*
X213457835Y-75269462D01*
X213749239Y-74978566D01*
X213907140Y-74598297D01*
X213907499Y-74186549D01*
X213750262Y-73806005D01*
X213459366Y-73514601D01*
X213079097Y-73356700D01*
X212667349Y-73356341D01*
X212286805Y-73513578D01*
X211995401Y-73804474D01*
X211837500Y-74184743D01*
X211837141Y-74596491D01*
X129667000Y-74596491D01*
X129667000Y-71354971D01*
X211844821Y-71354971D01*
X212002058Y-71735515D01*
X212292954Y-72026919D01*
X212673223Y-72184820D01*
X213084971Y-72185179D01*
X213465515Y-72027942D01*
X213756919Y-71737046D01*
X213914820Y-71356777D01*
X213915179Y-70945029D01*
X213757942Y-70564485D01*
X213467046Y-70273081D01*
X213086777Y-70115180D01*
X212675029Y-70114821D01*
X212294485Y-70272058D01*
X212003081Y-70562954D01*
X211845180Y-70943223D01*
X211844821Y-71354971D01*
X129667000Y-71354971D01*
X129667000Y-70140136D01*
X144811242Y-70140136D01*
X144968479Y-70520680D01*
X145259375Y-70812084D01*
X145639644Y-70969985D01*
X146051392Y-70970344D01*
X146431936Y-70813107D01*
X146723340Y-70522211D01*
X146881241Y-70141942D01*
X146881600Y-69730194D01*
X146724363Y-69349650D01*
X146433467Y-69058246D01*
X146053198Y-68900345D01*
X145641450Y-68899986D01*
X145260906Y-69057223D01*
X144969502Y-69348119D01*
X144811601Y-69728388D01*
X144811242Y-70140136D01*
X129667000Y-70140136D01*
X129667000Y-63864971D01*
X145394821Y-63864971D01*
X145552058Y-64245515D01*
X145842954Y-64536919D01*
X146223223Y-64694820D01*
X146634971Y-64695179D01*
X146998503Y-64544971D01*
X150964821Y-64544971D01*
X151122058Y-64925515D01*
X151134419Y-64937897D01*
X150995180Y-65273223D01*
X150994821Y-65684971D01*
X151152058Y-66065515D01*
X151442954Y-66356919D01*
X151823223Y-66514820D01*
X152234971Y-66515179D01*
X152615515Y-66357942D01*
X152906919Y-66067046D01*
X153064820Y-65686777D01*
X153064882Y-65614971D01*
X153214821Y-65614971D01*
X153372058Y-65995515D01*
X153662954Y-66286919D01*
X154043223Y-66444820D01*
X154454971Y-66445179D01*
X154835515Y-66287942D01*
X155126919Y-65997046D01*
X155284820Y-65616777D01*
X155285020Y-65386400D01*
X217138960Y-65386400D01*
X217138960Y-67113600D01*
X217183238Y-67348917D01*
X217322310Y-67565041D01*
X217534510Y-67710031D01*
X217578345Y-67718908D01*
X217265474Y-68187152D01*
X217151400Y-68760641D01*
X217151400Y-68819359D01*
X217265474Y-69392848D01*
X217590330Y-69879029D01*
X217861172Y-70060000D01*
X217590330Y-70240971D01*
X217265474Y-70727152D01*
X217151400Y-71300641D01*
X217151400Y-71359359D01*
X217265474Y-71932848D01*
X217590330Y-72419029D01*
X218076511Y-72743885D01*
X218650000Y-72857959D01*
X219223489Y-72743885D01*
X219709670Y-72419029D01*
X219925664Y-72095772D01*
X219983179Y-72218490D01*
X220415053Y-72612688D01*
X220830974Y-72784958D01*
X221063000Y-72663817D01*
X221063000Y-71457000D01*
X221317000Y-71457000D01*
X221317000Y-72663817D01*
X221549026Y-72784958D01*
X221964947Y-72612688D01*
X222396821Y-72218490D01*
X222644968Y-71689027D01*
X222524469Y-71457000D01*
X221317000Y-71457000D01*
X221063000Y-71457000D01*
X221043000Y-71457000D01*
X221043000Y-71203000D01*
X221063000Y-71203000D01*
X221063000Y-71183000D01*
X221317000Y-71183000D01*
X221317000Y-71203000D01*
X222524469Y-71203000D01*
X222644968Y-70970973D01*
X222396821Y-70441510D01*
X221978839Y-70059992D01*
X222249670Y-69879029D01*
X222574526Y-69392848D01*
X222688600Y-68819359D01*
X222688600Y-68760641D01*
X222574526Y-68187152D01*
X222249670Y-67700971D01*
X221978828Y-67520000D01*
X222249670Y-67339029D01*
X222574526Y-66852848D01*
X222688600Y-66279359D01*
X222688600Y-66220641D01*
X222574526Y-65647152D01*
X222249670Y-65160971D01*
X221763489Y-64836115D01*
X221190000Y-64722041D01*
X220616511Y-64836115D01*
X220130330Y-65160971D01*
X220121195Y-65174642D01*
X220116762Y-65151083D01*
X219977690Y-64934959D01*
X219765490Y-64789969D01*
X219513600Y-64738960D01*
X217786400Y-64738960D01*
X217551083Y-64783238D01*
X217334959Y-64922310D01*
X217189969Y-65134510D01*
X217138960Y-65386400D01*
X155285020Y-65386400D01*
X155285092Y-65304848D01*
X155664971Y-65305179D01*
X156045515Y-65147942D01*
X156336919Y-64857046D01*
X156494820Y-64476777D01*
X156495179Y-64065029D01*
X156420781Y-63884971D01*
X219324821Y-63884971D01*
X219482058Y-64265515D01*
X219772954Y-64556919D01*
X220153223Y-64714820D01*
X220564971Y-64715179D01*
X220945515Y-64557942D01*
X221236919Y-64267046D01*
X221394820Y-63886777D01*
X221395179Y-63475029D01*
X221237942Y-63094485D01*
X220947046Y-62803081D01*
X220566777Y-62645180D01*
X220155029Y-62644821D01*
X219774485Y-62802058D01*
X219483081Y-63092954D01*
X219325180Y-63473223D01*
X219324821Y-63884971D01*
X156420781Y-63884971D01*
X156337942Y-63684485D01*
X156047046Y-63393081D01*
X155666777Y-63235180D01*
X155255029Y-63234821D01*
X154874485Y-63392058D01*
X154583081Y-63682954D01*
X154425180Y-64063223D01*
X154424908Y-64375152D01*
X154045029Y-64374821D01*
X153664485Y-64532058D01*
X153373081Y-64822954D01*
X153215180Y-65203223D01*
X153214821Y-65614971D01*
X153064882Y-65614971D01*
X153065179Y-65275029D01*
X152907942Y-64894485D01*
X152895581Y-64882103D01*
X153034820Y-64546777D01*
X153035179Y-64135029D01*
X152877942Y-63754485D01*
X152587046Y-63463081D01*
X152206777Y-63305180D01*
X151795029Y-63304821D01*
X151414485Y-63462058D01*
X151123081Y-63752954D01*
X150965180Y-64133223D01*
X150964821Y-64544971D01*
X146998503Y-64544971D01*
X147015515Y-64537942D01*
X147306919Y-64247046D01*
X147464820Y-63866777D01*
X147465179Y-63455029D01*
X147307942Y-63074485D01*
X147017046Y-62783081D01*
X146636777Y-62625180D01*
X146225029Y-62624821D01*
X145844485Y-62782058D01*
X145553081Y-63072954D01*
X145395180Y-63453223D01*
X145394821Y-63864971D01*
X129667000Y-63864971D01*
X129667000Y-57384971D01*
X162564821Y-57384971D01*
X162722058Y-57765515D01*
X163012954Y-58056919D01*
X163393223Y-58214820D01*
X163804971Y-58215179D01*
X164185515Y-58057942D01*
X164476919Y-57767046D01*
X164598198Y-57474971D01*
X173144821Y-57474971D01*
X173302058Y-57855515D01*
X173592954Y-58146919D01*
X173973223Y-58304820D01*
X174384971Y-58305179D01*
X174765515Y-58147942D01*
X175056919Y-57857046D01*
X175214820Y-57476777D01*
X175215179Y-57065029D01*
X175057942Y-56684485D01*
X174767046Y-56393081D01*
X174386777Y-56235180D01*
X173975029Y-56234821D01*
X173594485Y-56392058D01*
X173303081Y-56682954D01*
X173145180Y-57063223D01*
X173144821Y-57474971D01*
X164598198Y-57474971D01*
X164634820Y-57386777D01*
X164635179Y-56975029D01*
X164477942Y-56594485D01*
X164187046Y-56303081D01*
X163806777Y-56145180D01*
X163395029Y-56144821D01*
X163014485Y-56302058D01*
X162723081Y-56592954D01*
X162565180Y-56973223D01*
X162564821Y-57384971D01*
X129667000Y-57384971D01*
X129667000Y-56044971D01*
X170144821Y-56044971D01*
X170302058Y-56425515D01*
X170592954Y-56716919D01*
X170973223Y-56874820D01*
X171384971Y-56875179D01*
X171765515Y-56717942D01*
X172056919Y-56427046D01*
X172174046Y-56144971D01*
X196784821Y-56144971D01*
X196942058Y-56525515D01*
X197232954Y-56816919D01*
X197613223Y-56974820D01*
X198024971Y-56975179D01*
X198405515Y-56817942D01*
X198696919Y-56527046D01*
X198854820Y-56146777D01*
X198855179Y-55735029D01*
X198697942Y-55354485D01*
X198407046Y-55063081D01*
X198026777Y-54905180D01*
X197615029Y-54904821D01*
X197234485Y-55062058D01*
X196943081Y-55352954D01*
X196785180Y-55733223D01*
X196784821Y-56144971D01*
X172174046Y-56144971D01*
X172214820Y-56046777D01*
X172215179Y-55635029D01*
X172057942Y-55254485D01*
X172055313Y-55251851D01*
X173119921Y-55251851D01*
X173277158Y-55632395D01*
X173568054Y-55923799D01*
X173948323Y-56081700D01*
X174360071Y-56082059D01*
X174740615Y-55924822D01*
X175032019Y-55633926D01*
X175189920Y-55253657D01*
X175190279Y-54841909D01*
X175033042Y-54461365D01*
X174742146Y-54169961D01*
X174361877Y-54012060D01*
X173950129Y-54011701D01*
X173569585Y-54168938D01*
X173278181Y-54459834D01*
X173120280Y-54840103D01*
X173119921Y-55251851D01*
X172055313Y-55251851D01*
X171767046Y-54963081D01*
X171386777Y-54805180D01*
X170975029Y-54804821D01*
X170594485Y-54962058D01*
X170303081Y-55252954D01*
X170145180Y-55633223D01*
X170144821Y-56044971D01*
X129667000Y-56044971D01*
X129667000Y-53865000D01*
X164410907Y-53865000D01*
X164523946Y-54433285D01*
X164845853Y-54915054D01*
X165327622Y-55236961D01*
X165895907Y-55350000D01*
X165954093Y-55350000D01*
X166522378Y-55236961D01*
X167004147Y-54915054D01*
X167195000Y-54629422D01*
X167385853Y-54915054D01*
X167867622Y-55236961D01*
X168435907Y-55350000D01*
X168494093Y-55350000D01*
X169062378Y-55236961D01*
X169544147Y-54915054D01*
X169866054Y-54433285D01*
X169979093Y-53865000D01*
X169866054Y-53296715D01*
X169544147Y-52814946D01*
X169214974Y-52595000D01*
X169544147Y-52375054D01*
X169604338Y-52284971D01*
X172664821Y-52284971D01*
X172822058Y-52665515D01*
X173112954Y-52956919D01*
X173493223Y-53114820D01*
X173904971Y-53115179D01*
X174285515Y-52957942D01*
X174576919Y-52667046D01*
X174734820Y-52286777D01*
X174735179Y-51875029D01*
X174695914Y-51780000D01*
X196572560Y-51780000D01*
X196572560Y-53480000D01*
X196616838Y-53715317D01*
X196755910Y-53931441D01*
X196968110Y-54076431D01*
X197220000Y-54127440D01*
X198920000Y-54127440D01*
X199155317Y-54083162D01*
X199371441Y-53944090D01*
X199516431Y-53731890D01*
X199538301Y-53623893D01*
X199843076Y-53901645D01*
X200253110Y-54071476D01*
X200483000Y-53950155D01*
X200483000Y-52757000D01*
X200737000Y-52757000D01*
X200737000Y-53950155D01*
X200966890Y-54071476D01*
X201376924Y-53901645D01*
X201805183Y-53511358D01*
X202051486Y-52986892D01*
X201930819Y-52757000D01*
X200737000Y-52757000D01*
X200483000Y-52757000D01*
X200463000Y-52757000D01*
X200463000Y-52503000D01*
X200483000Y-52503000D01*
X200483000Y-51309845D01*
X200737000Y-51309845D01*
X200737000Y-52503000D01*
X201930819Y-52503000D01*
X202051486Y-52273108D01*
X201805183Y-51748642D01*
X201376924Y-51358355D01*
X200966890Y-51188524D01*
X200737000Y-51309845D01*
X200483000Y-51309845D01*
X200253110Y-51188524D01*
X199843076Y-51358355D01*
X199540063Y-51634501D01*
X199523162Y-51544683D01*
X199384090Y-51328559D01*
X199171890Y-51183569D01*
X198920000Y-51132560D01*
X197220000Y-51132560D01*
X196984683Y-51176838D01*
X196768559Y-51315910D01*
X196623569Y-51528110D01*
X196572560Y-51780000D01*
X174695914Y-51780000D01*
X174577942Y-51494485D01*
X174287046Y-51203081D01*
X173906777Y-51045180D01*
X173495029Y-51044821D01*
X173114485Y-51202058D01*
X172823081Y-51492954D01*
X172665180Y-51873223D01*
X172664821Y-52284971D01*
X169604338Y-52284971D01*
X169866054Y-51893285D01*
X169979093Y-51325000D01*
X169866054Y-50756715D01*
X169544147Y-50274946D01*
X169062378Y-49953039D01*
X168494093Y-49840000D01*
X168435907Y-49840000D01*
X167867622Y-49953039D01*
X167385853Y-50274946D01*
X167385029Y-50276179D01*
X167378162Y-50239683D01*
X167239090Y-50023559D01*
X167026890Y-49878569D01*
X166775000Y-49827560D01*
X165075000Y-49827560D01*
X164839683Y-49871838D01*
X164623559Y-50010910D01*
X164478569Y-50223110D01*
X164427560Y-50475000D01*
X164427560Y-52175000D01*
X164471838Y-52410317D01*
X164610910Y-52626441D01*
X164823110Y-52771431D01*
X164890541Y-52785086D01*
X164845853Y-52814946D01*
X164523946Y-53296715D01*
X164410907Y-53865000D01*
X129667000Y-53865000D01*
X129667000Y-52635750D01*
X133915000Y-52635750D01*
X133915000Y-53326309D01*
X134011673Y-53559698D01*
X134190301Y-53738327D01*
X134423690Y-53835000D01*
X135114250Y-53835000D01*
X135273000Y-53676250D01*
X135273000Y-52477000D01*
X134073750Y-52477000D01*
X133915000Y-52635750D01*
X129667000Y-52635750D01*
X129667000Y-51373691D01*
X133915000Y-51373691D01*
X133915000Y-52064250D01*
X134073750Y-52223000D01*
X135273000Y-52223000D01*
X135273000Y-51023750D01*
X135527000Y-51023750D01*
X135527000Y-52223000D01*
X135547000Y-52223000D01*
X135547000Y-52477000D01*
X135527000Y-52477000D01*
X135527000Y-53676250D01*
X135685750Y-53835000D01*
X136376310Y-53835000D01*
X136609699Y-53738327D01*
X136788327Y-53559698D01*
X136860597Y-53385223D01*
X136889946Y-53429147D01*
X137371715Y-53751054D01*
X137940000Y-53864093D01*
X138508285Y-53751054D01*
X138990054Y-53429147D01*
X139210000Y-53099974D01*
X139429946Y-53429147D01*
X139911715Y-53751054D01*
X140480000Y-53864093D01*
X141048285Y-53751054D01*
X141530054Y-53429147D01*
X141750000Y-53099974D01*
X141969946Y-53429147D01*
X142451715Y-53751054D01*
X143020000Y-53864093D01*
X143588285Y-53751054D01*
X144070054Y-53429147D01*
X144290000Y-53099974D01*
X144509946Y-53429147D01*
X144991715Y-53751054D01*
X145560000Y-53864093D01*
X146128285Y-53751054D01*
X146610054Y-53429147D01*
X146931961Y-52947378D01*
X147045000Y-52379093D01*
X147045000Y-52320907D01*
X146931961Y-51752622D01*
X146763165Y-51500000D01*
X151577560Y-51500000D01*
X151577560Y-53200000D01*
X151621838Y-53435317D01*
X151760910Y-53651441D01*
X151973110Y-53796431D01*
X152225000Y-53847440D01*
X153925000Y-53847440D01*
X154160317Y-53803162D01*
X154376441Y-53664090D01*
X154521431Y-53451890D01*
X154572440Y-53200000D01*
X154572440Y-51500000D01*
X154528162Y-51264683D01*
X154389090Y-51048559D01*
X154176890Y-50903569D01*
X153925000Y-50852560D01*
X152225000Y-50852560D01*
X151989683Y-50896838D01*
X151773559Y-51035910D01*
X151628569Y-51248110D01*
X151577560Y-51500000D01*
X146763165Y-51500000D01*
X146610054Y-51270853D01*
X146128285Y-50948946D01*
X145560000Y-50835907D01*
X144991715Y-50948946D01*
X144509946Y-51270853D01*
X144290000Y-51600026D01*
X144070054Y-51270853D01*
X143588285Y-50948946D01*
X143020000Y-50835907D01*
X142451715Y-50948946D01*
X141969946Y-51270853D01*
X141750000Y-51600026D01*
X141530054Y-51270853D01*
X141048285Y-50948946D01*
X140480000Y-50835907D01*
X139911715Y-50948946D01*
X139429946Y-51270853D01*
X139210000Y-51600026D01*
X138990054Y-51270853D01*
X138508285Y-50948946D01*
X137940000Y-50835907D01*
X137371715Y-50948946D01*
X136889946Y-51270853D01*
X136860597Y-51314777D01*
X136788327Y-51140302D01*
X136609699Y-50961673D01*
X136376310Y-50865000D01*
X135685750Y-50865000D01*
X135527000Y-51023750D01*
X135273000Y-51023750D01*
X135114250Y-50865000D01*
X134423690Y-50865000D01*
X134190301Y-50961673D01*
X134011673Y-51140302D01*
X133915000Y-51373691D01*
X129667000Y-51373691D01*
X129667000Y-47752000D01*
X225933000Y-47752000D01*
X225933000Y-144018000D01*
X225933000Y-144018000D01*
G37*
X225933000Y-144018000D02*
X129667000Y-144018000D01*
X129667000Y-141314971D01*
X156524821Y-141314971D01*
X156682058Y-141695515D01*
X156972954Y-141986919D01*
X157353223Y-142144820D01*
X157764971Y-142145179D01*
X158145515Y-141987942D01*
X158436919Y-141697046D01*
X158594820Y-141316777D01*
X158595179Y-140905029D01*
X158437942Y-140524485D01*
X158377163Y-140463599D01*
X215234699Y-140463599D01*
X215498281Y-141101515D01*
X215985918Y-141590004D01*
X216623373Y-141854699D01*
X217313599Y-141855301D01*
X217951515Y-141591719D01*
X218440004Y-141104082D01*
X218704699Y-140466627D01*
X218704701Y-140463599D01*
X220314699Y-140463599D01*
X220578281Y-141101515D01*
X221065918Y-141590004D01*
X221703373Y-141854699D01*
X222393599Y-141855301D01*
X223031515Y-141591719D01*
X223520004Y-141104082D01*
X223784699Y-140466627D01*
X223785301Y-139776401D01*
X223521719Y-139138485D01*
X223034082Y-138649996D01*
X222396627Y-138385301D01*
X221706401Y-138384699D01*
X221068485Y-138648281D01*
X220579996Y-139135918D01*
X220315301Y-139773373D01*
X220314699Y-140463599D01*
X218704701Y-140463599D01*
X218705301Y-139776401D01*
X218441719Y-139138485D01*
X217954082Y-138649996D01*
X217316627Y-138385301D01*
X216626401Y-138384699D01*
X215988485Y-138648281D01*
X215499996Y-139135918D01*
X215235301Y-139773373D01*
X215234699Y-140463599D01*
X158377163Y-140463599D01*
X158147046Y-140233081D01*
X157766777Y-140075180D01*
X157355029Y-140074821D01*
X156974485Y-140232058D01*
X156683081Y-140522954D01*
X156525180Y-140903223D01*
X156524821Y-141314971D01*
X129667000Y-141314971D01*
X129667000Y-136725000D01*
X134852560Y-136725000D01*
X134852560Y-138425000D01*
X134896838Y-138660317D01*
X135035910Y-138876441D01*
X135248110Y-139021431D01*
X135500000Y-139072440D01*
X137200000Y-139072440D01*
X137435317Y-139028162D01*
X137651441Y-138889090D01*
X137796431Y-138676890D01*
X137810086Y-138609459D01*
X137839946Y-138654147D01*
X138321715Y-138976054D01*
X138890000Y-139089093D01*
X139458285Y-138976054D01*
X139940054Y-138654147D01*
X140160000Y-138324974D01*
X140379946Y-138654147D01*
X140861715Y-138976054D01*
X141430000Y-139089093D01*
X141998285Y-138976054D01*
X142480054Y-138654147D01*
X142700000Y-138324974D01*
X142919946Y-138654147D01*
X143401715Y-138976054D01*
X143970000Y-139089093D01*
X144538285Y-138976054D01*
X145020054Y-138654147D01*
X145240000Y-138324974D01*
X145459946Y-138654147D01*
X145941715Y-138976054D01*
X146510000Y-139089093D01*
X147078285Y-138976054D01*
X147560054Y-138654147D01*
X147780000Y-138324974D01*
X147999946Y-138654147D01*
X148481715Y-138976054D01*
X149050000Y-139089093D01*
X149618285Y-138976054D01*
X150100054Y-138654147D01*
X150320000Y-138324974D01*
X150539946Y-138654147D01*
X151021715Y-138976054D01*
X151590000Y-139089093D01*
X152158285Y-138976054D01*
X152640054Y-138654147D01*
X152860000Y-138324974D01*
X153079946Y-138654147D01*
X153561715Y-138976054D01*
X154130000Y-139089093D01*
X154698285Y-138976054D01*
X155180054Y-138654147D01*
X155501961Y-138172378D01*
X155555385Y-137903795D01*
X217874716Y-137903795D01*
X218123106Y-138504943D01*
X218582637Y-138965278D01*
X219183352Y-139214716D01*
X219833795Y-139215284D01*
X220434943Y-138966894D01*
X220895278Y-138507363D01*
X221144716Y-137906648D01*
X221145284Y-137256205D01*
X220896894Y-136655057D01*
X220437363Y-136194722D01*
X219836648Y-135945284D01*
X219186205Y-135944716D01*
X218585057Y-136193106D01*
X218124722Y-136652637D01*
X217875284Y-137253352D01*
X217874716Y-137903795D01*
X155555385Y-137903795D01*
X155615000Y-137604093D01*
X155615000Y-137545907D01*
X155501961Y-136977622D01*
X155180054Y-136495853D01*
X154918229Y-136320907D01*
X162505000Y-136320907D01*
X162505000Y-136379093D01*
X162618039Y-136947378D01*
X162939946Y-137429147D01*
X163421715Y-137751054D01*
X163990000Y-137864093D01*
X164558285Y-137751054D01*
X165040054Y-137429147D01*
X165260000Y-137099974D01*
X165479946Y-137429147D01*
X165961715Y-137751054D01*
X166530000Y-137864093D01*
X167098285Y-137751054D01*
X167580054Y-137429147D01*
X167800000Y-137099974D01*
X168019946Y-137429147D01*
X168501715Y-137751054D01*
X169070000Y-137864093D01*
X169638285Y-137751054D01*
X170120054Y-137429147D01*
X170340000Y-137099974D01*
X170559946Y-137429147D01*
X171041715Y-137751054D01*
X171610000Y-137864093D01*
X172178285Y-137751054D01*
X172660054Y-137429147D01*
X172687850Y-137387548D01*
X172696838Y-137435317D01*
X172835910Y-137651441D01*
X173048110Y-137796431D01*
X173300000Y-137847440D01*
X175000000Y-137847440D01*
X175235317Y-137803162D01*
X175451441Y-137664090D01*
X175596431Y-137451890D01*
X175647440Y-137200000D01*
X175647440Y-135500000D01*
X175603162Y-135264683D01*
X175532565Y-135154971D01*
X178394821Y-135154971D01*
X178552058Y-135535515D01*
X178842954Y-135826919D01*
X179223223Y-135984820D01*
X179634971Y-135985179D01*
X179877493Y-135884971D01*
X189324821Y-135884971D01*
X189482058Y-136265515D01*
X189772954Y-136556919D01*
X190153223Y-136714820D01*
X190564971Y-136715179D01*
X190945515Y-136557942D01*
X191236919Y-136267046D01*
X191394820Y-135886777D01*
X191395179Y-135475029D01*
X191357402Y-135383599D01*
X215234699Y-135383599D01*
X215498281Y-136021515D01*
X215985918Y-136510004D01*
X216623373Y-136774699D01*
X217313599Y-136775301D01*
X217951515Y-136511719D01*
X218440004Y-136024082D01*
X218704699Y-135386627D01*
X218704701Y-135383599D01*
X220314699Y-135383599D01*
X220578281Y-136021515D01*
X221065918Y-136510004D01*
X221703373Y-136774699D01*
X222393599Y-136775301D01*
X223031515Y-136511719D01*
X223520004Y-136024082D01*
X223784699Y-135386627D01*
X223785301Y-134696401D01*
X223521719Y-134058485D01*
X223034082Y-133569996D01*
X222396627Y-133305301D01*
X221706401Y-133304699D01*
X221068485Y-133568281D01*
X220579996Y-134055918D01*
X220315301Y-134693373D01*
X220314699Y-135383599D01*
X218704701Y-135383599D01*
X218705301Y-134696401D01*
X218441719Y-134058485D01*
X217954082Y-133569996D01*
X217316627Y-133305301D01*
X216626401Y-133304699D01*
X215988485Y-133568281D01*
X215499996Y-134055918D01*
X215235301Y-134693373D01*
X215234699Y-135383599D01*
X191357402Y-135383599D01*
X191237942Y-135094485D01*
X190947046Y-134803081D01*
X190566777Y-134645180D01*
X190155029Y-134644821D01*
X189774485Y-134802058D01*
X189483081Y-135092954D01*
X189325180Y-135473223D01*
X189324821Y-135884971D01*
X179877493Y-135884971D01*
X180015515Y-135827942D01*
X180306919Y-135537046D01*
X180464820Y-135156777D01*
X180465179Y-134745029D01*
X180307942Y-134364485D01*
X180017046Y-134073081D01*
X179636777Y-133915180D01*
X179225029Y-133914821D01*
X178844485Y-134072058D01*
X178553081Y-134362954D01*
X178395180Y-134743223D01*
X178394821Y-135154971D01*
X175532565Y-135154971D01*
X175464090Y-135048559D01*
X175251890Y-134903569D01*
X175000000Y-134852560D01*
X173300000Y-134852560D01*
X173064683Y-134896838D01*
X172848559Y-135035910D01*
X172703569Y-135248110D01*
X172689914Y-135315541D01*
X172660054Y-135270853D01*
X172178285Y-134948946D01*
X171610000Y-134835907D01*
X171041715Y-134948946D01*
X170559946Y-135270853D01*
X170340000Y-135600026D01*
X170120054Y-135270853D01*
X169638285Y-134948946D01*
X169070000Y-134835907D01*
X168501715Y-134948946D01*
X168019946Y-135270853D01*
X167800000Y-135600026D01*
X167580054Y-135270853D01*
X167098285Y-134948946D01*
X166530000Y-134835907D01*
X165961715Y-134948946D01*
X165479946Y-135270853D01*
X165260000Y-135600026D01*
X165040054Y-135270853D01*
X164558285Y-134948946D01*
X163990000Y-134835907D01*
X163421715Y-134948946D01*
X162939946Y-135270853D01*
X162618039Y-135752622D01*
X162505000Y-136320907D01*
X154918229Y-136320907D01*
X154894422Y-136305000D01*
X155180054Y-136114147D01*
X155501961Y-135632378D01*
X155615000Y-135064093D01*
X155615000Y-135005907D01*
X155501961Y-134437622D01*
X155204108Y-133991851D01*
X162469699Y-133991851D01*
X162626936Y-134372395D01*
X162917832Y-134663799D01*
X163298101Y-134821700D01*
X163709849Y-134822059D01*
X164090393Y-134664822D01*
X164381797Y-134373926D01*
X164539698Y-133993657D01*
X164540057Y-133581909D01*
X164382820Y-133201365D01*
X164091924Y-132909961D01*
X163711655Y-132752060D01*
X163299907Y-132751701D01*
X162919363Y-132908938D01*
X162627959Y-133199834D01*
X162470058Y-133580103D01*
X162469699Y-133991851D01*
X155204108Y-133991851D01*
X155180054Y-133955853D01*
X154698285Y-133633946D01*
X154130000Y-133520907D01*
X153561715Y-133633946D01*
X153079946Y-133955853D01*
X152860000Y-134285026D01*
X152640054Y-133955853D01*
X152158285Y-133633946D01*
X151590000Y-133520907D01*
X151021715Y-133633946D01*
X150539946Y-133955853D01*
X150320000Y-134285026D01*
X150100054Y-133955853D01*
X149618285Y-133633946D01*
X149050000Y-133520907D01*
X148481715Y-133633946D01*
X147999946Y-133955853D01*
X147780000Y-134285026D01*
X147560054Y-133955853D01*
X147078285Y-133633946D01*
X146510000Y-133520907D01*
X145941715Y-133633946D01*
X145459946Y-133955853D01*
X145240000Y-134285026D01*
X145020054Y-133955853D01*
X144538285Y-133633946D01*
X143970000Y-133520907D01*
X143401715Y-133633946D01*
X142919946Y-133955853D01*
X142700000Y-134285026D01*
X142480054Y-133955853D01*
X141998285Y-133633946D01*
X141430000Y-133520907D01*
X140861715Y-133633946D01*
X140379946Y-133955853D01*
X140160000Y-134285026D01*
X139940054Y-133955853D01*
X139458285Y-133633946D01*
X138890000Y-133520907D01*
X138321715Y-133633946D01*
X137839946Y-133955853D01*
X137620000Y-134285026D01*
X137400054Y-133955853D01*
X136918285Y-133633946D01*
X136350000Y-133520907D01*
X135781715Y-133633946D01*
X135299946Y-133955853D01*
X134978039Y-134437622D01*
X134865000Y-135005907D01*
X134865000Y-135064093D01*
X134978039Y-135632378D01*
X135299946Y-136114147D01*
X135301179Y-136114971D01*
X135264683Y-136121838D01*
X135048559Y-136260910D01*
X134903569Y-136473110D01*
X134852560Y-136725000D01*
X129667000Y-136725000D01*
X129667000Y-131184971D01*
X174484821Y-131184971D01*
X174642058Y-131565515D01*
X174932954Y-131856919D01*
X175313223Y-132014820D01*
X175724971Y-132015179D01*
X176105515Y-131857942D01*
X176396919Y-131567046D01*
X176554820Y-131186777D01*
X176555179Y-130775029D01*
X176397942Y-130394485D01*
X176107046Y-130103081D01*
X175726777Y-129945180D01*
X175315029Y-129944821D01*
X174934485Y-130102058D01*
X174643081Y-130392954D01*
X174485180Y-130773223D01*
X174484821Y-131184971D01*
X129667000Y-131184971D01*
X129667000Y-127764971D01*
X155664821Y-127764971D01*
X155822058Y-128145515D01*
X156112954Y-128436919D01*
X156493223Y-128594820D01*
X156904971Y-128595179D01*
X157285515Y-128437942D01*
X157576919Y-128147046D01*
X157734820Y-127766777D01*
X157735179Y-127355029D01*
X157660781Y-127174971D01*
X180364821Y-127174971D01*
X180522058Y-127555515D01*
X180812954Y-127846919D01*
X181193223Y-128004820D01*
X181604971Y-128005179D01*
X181985515Y-127847942D01*
X182276919Y-127557046D01*
X182434820Y-127176777D01*
X182435179Y-126765029D01*
X182277942Y-126384485D01*
X181987046Y-126093081D01*
X181606777Y-125935180D01*
X181195029Y-125934821D01*
X180814485Y-126092058D01*
X180523081Y-126382954D01*
X180365180Y-126763223D01*
X180364821Y-127174971D01*
X157660781Y-127174971D01*
X157577942Y-126974485D01*
X157532589Y-126929053D01*
X157763223Y-127024820D01*
X158174971Y-127025179D01*
X158555515Y-126867942D01*
X158846919Y-126577046D01*
X158997265Y-126214971D01*
X178104821Y-126214971D01*
X178262058Y-126595515D01*
X178552954Y-126886919D01*
X178933223Y-127044820D01*
X179344971Y-127045179D01*
X179725515Y-126887942D01*
X180016919Y-126597046D01*
X180174820Y-126216777D01*
X180175179Y-125805029D01*
X180017942Y-125424485D01*
X179727046Y-125133081D01*
X179346777Y-124975180D01*
X178935029Y-124974821D01*
X178554485Y-125132058D01*
X178263081Y-125422954D01*
X178105180Y-125803223D01*
X178104821Y-126214971D01*
X158997265Y-126214971D01*
X159004820Y-126196777D01*
X159005179Y-125785029D01*
X158917586Y-125573036D01*
X159120534Y-125776339D01*
X159500803Y-125934240D01*
X159912551Y-125934599D01*
X160293095Y-125777362D01*
X160584499Y-125486466D01*
X160742400Y-125106197D01*
X160742759Y-124694449D01*
X160585522Y-124313905D01*
X160332930Y-124060872D01*
X160426919Y-123967046D01*
X160584820Y-123586777D01*
X160585179Y-123175029D01*
X160427942Y-122794485D01*
X160137046Y-122503081D01*
X159756777Y-122345180D01*
X159345029Y-122344821D01*
X158964485Y-122502058D01*
X158673081Y-122792954D01*
X158515180Y-123173223D01*
X158514821Y-123584971D01*
X158672058Y-123965515D01*
X158924650Y-124218548D01*
X158830661Y-124312374D01*
X158672760Y-124692643D01*
X158672401Y-125104391D01*
X158759994Y-125316384D01*
X158557046Y-125113081D01*
X158176777Y-124955180D01*
X157765029Y-124954821D01*
X157384485Y-125112058D01*
X157093081Y-125402954D01*
X156935180Y-125783223D01*
X156934821Y-126194971D01*
X157092058Y-126575515D01*
X157137411Y-126620947D01*
X156906777Y-126525180D01*
X156495029Y-126524821D01*
X156114485Y-126682058D01*
X155823081Y-126972954D01*
X155665180Y-127353223D01*
X155664821Y-127764971D01*
X129667000Y-127764971D01*
X129667000Y-124544971D01*
X151804821Y-124544971D01*
X151962058Y-124925515D01*
X152252954Y-125216919D01*
X152633223Y-125374820D01*
X153044971Y-125375179D01*
X153425515Y-125217942D01*
X153716919Y-124927046D01*
X153874820Y-124546777D01*
X153875179Y-124135029D01*
X153717942Y-123754485D01*
X153427046Y-123463081D01*
X153046777Y-123305180D01*
X152635029Y-123304821D01*
X152254485Y-123462058D01*
X151963081Y-123752954D01*
X151805180Y-124133223D01*
X151804821Y-124544971D01*
X129667000Y-124544971D01*
X129667000Y-123044971D01*
X153814821Y-123044971D01*
X153972058Y-123425515D01*
X154262954Y-123716919D01*
X154643223Y-123874820D01*
X155054971Y-123875179D01*
X155435515Y-123717942D01*
X155726919Y-123427046D01*
X155884820Y-123046777D01*
X155884990Y-122851573D01*
X156013223Y-122904820D01*
X156424971Y-122905179D01*
X156805515Y-122747942D01*
X157096919Y-122457046D01*
X157232057Y-122131597D01*
X157471428Y-122131806D01*
X157851972Y-121974569D01*
X157971778Y-121854971D01*
X163184821Y-121854971D01*
X163342058Y-122235515D01*
X163632954Y-122526919D01*
X164013223Y-122684820D01*
X164424971Y-122685179D01*
X164805515Y-122527942D01*
X165096919Y-122237046D01*
X165254820Y-121856777D01*
X165255179Y-121445029D01*
X165097942Y-121064485D01*
X164807046Y-120773081D01*
X164426777Y-120615180D01*
X164015029Y-120614821D01*
X163634485Y-120772058D01*
X163343081Y-121062954D01*
X163185180Y-121443223D01*
X163184821Y-121854971D01*
X157971778Y-121854971D01*
X158143376Y-121683673D01*
X158301277Y-121303404D01*
X158301636Y-120891656D01*
X158144399Y-120511112D01*
X157853503Y-120219708D01*
X157473234Y-120061807D01*
X157061486Y-120061448D01*
X156680942Y-120218685D01*
X156389538Y-120509581D01*
X156254400Y-120835030D01*
X156015029Y-120834821D01*
X155634485Y-120992058D01*
X155343081Y-121282954D01*
X155185180Y-121663223D01*
X155185010Y-121858427D01*
X155056777Y-121805180D01*
X154645029Y-121804821D01*
X154264485Y-121962058D01*
X153973081Y-122252954D01*
X153815180Y-122633223D01*
X153814821Y-123044971D01*
X129667000Y-123044971D01*
X129667000Y-119749994D01*
X162906403Y-119749994D01*
X163063640Y-120130538D01*
X163354536Y-120421942D01*
X163734805Y-120579843D01*
X164146553Y-120580202D01*
X164231818Y-120544971D01*
X169574821Y-120544971D01*
X169732058Y-120925515D01*
X169801288Y-120994866D01*
X169733081Y-121062954D01*
X169575180Y-121443223D01*
X169574821Y-121854971D01*
X169732058Y-122235515D01*
X170022954Y-122526919D01*
X170403223Y-122684820D01*
X170814971Y-122685179D01*
X171057493Y-122584971D01*
X179414821Y-122584971D01*
X179572058Y-122965515D01*
X179731192Y-123124927D01*
X179683081Y-123172954D01*
X179525180Y-123553223D01*
X179524821Y-123964971D01*
X179682058Y-124345515D01*
X179972954Y-124636919D01*
X180353223Y-124794820D01*
X180764971Y-124795179D01*
X181145515Y-124637942D01*
X181436919Y-124347046D01*
X181500065Y-124194971D01*
X183204821Y-124194971D01*
X183362058Y-124575515D01*
X183652954Y-124866919D01*
X184033223Y-125024820D01*
X184211562Y-125024975D01*
X183923081Y-125312954D01*
X183765180Y-125693223D01*
X183764821Y-126104971D01*
X183922058Y-126485515D01*
X184212954Y-126776919D01*
X184593223Y-126934820D01*
X185004971Y-126935179D01*
X185385515Y-126777942D01*
X185676919Y-126487046D01*
X185834820Y-126106777D01*
X185835101Y-125784857D01*
X186204971Y-125785179D01*
X186585515Y-125627942D01*
X186876919Y-125337046D01*
X187034820Y-124956777D01*
X187035179Y-124545029D01*
X186877942Y-124164485D01*
X186587046Y-123873081D01*
X186206777Y-123715180D01*
X185795029Y-123714821D01*
X185414485Y-123872058D01*
X185274982Y-124011318D01*
X185275179Y-123785029D01*
X185192518Y-123584971D01*
X188394821Y-123584971D01*
X188552058Y-123965515D01*
X188842954Y-124256919D01*
X189223223Y-124414820D01*
X189634971Y-124415179D01*
X190015515Y-124257942D01*
X190306919Y-123967046D01*
X190464820Y-123586777D01*
X190465179Y-123175029D01*
X190307942Y-122794485D01*
X190017046Y-122503081D01*
X189636777Y-122345180D01*
X189225029Y-122344821D01*
X188844485Y-122502058D01*
X188553081Y-122792954D01*
X188395180Y-123173223D01*
X188394821Y-123584971D01*
X185192518Y-123584971D01*
X185117942Y-123404485D01*
X184827046Y-123113081D01*
X184446777Y-122955180D01*
X184035029Y-122954821D01*
X183654485Y-123112058D01*
X183363081Y-123402954D01*
X183205180Y-123783223D01*
X183204821Y-124194971D01*
X181500065Y-124194971D01*
X181594820Y-123966777D01*
X181595179Y-123555029D01*
X181437942Y-123174485D01*
X181278808Y-123015073D01*
X181326919Y-122967046D01*
X181484820Y-122586777D01*
X181485179Y-122175029D01*
X181402518Y-121974971D01*
X182394821Y-121974971D01*
X182552058Y-122355515D01*
X182842954Y-122646919D01*
X183223223Y-122804820D01*
X183634971Y-122805179D01*
X184015515Y-122647942D01*
X184306919Y-122357046D01*
X184464820Y-121976777D01*
X184465179Y-121565029D01*
X184307942Y-121184485D01*
X184017046Y-120893081D01*
X183636777Y-120735180D01*
X183225029Y-120734821D01*
X182844485Y-120892058D01*
X182553081Y-121182954D01*
X182395180Y-121563223D01*
X182394821Y-121974971D01*
X181402518Y-121974971D01*
X181327942Y-121794485D01*
X181037046Y-121503081D01*
X180656777Y-121345180D01*
X180245029Y-121344821D01*
X179864485Y-121502058D01*
X179573081Y-121792954D01*
X179415180Y-122173223D01*
X179414821Y-122584971D01*
X171057493Y-122584971D01*
X171195515Y-122527942D01*
X171486919Y-122237046D01*
X171644820Y-121856777D01*
X171645179Y-121445029D01*
X171487942Y-121064485D01*
X171418712Y-120995134D01*
X171486919Y-120927046D01*
X171644820Y-120546777D01*
X171645179Y-120135029D01*
X171487942Y-119754485D01*
X171197046Y-119463081D01*
X170816777Y-119305180D01*
X170405029Y-119304821D01*
X170024485Y-119462058D01*
X169733081Y-119752954D01*
X169575180Y-120133223D01*
X169574821Y-120544971D01*
X164231818Y-120544971D01*
X164527097Y-120422965D01*
X164818501Y-120132069D01*
X164976402Y-119751800D01*
X164976761Y-119340052D01*
X164929211Y-119224971D01*
X179404821Y-119224971D01*
X179562058Y-119605515D01*
X179852954Y-119896919D01*
X180233223Y-120054820D01*
X180644971Y-120055179D01*
X181025515Y-119897942D01*
X181316919Y-119607046D01*
X181474820Y-119226777D01*
X181475179Y-118815029D01*
X181317942Y-118434485D01*
X181027046Y-118143081D01*
X180646777Y-117985180D01*
X180235029Y-117984821D01*
X179854485Y-118142058D01*
X179563081Y-118432954D01*
X179405180Y-118813223D01*
X179404821Y-119224971D01*
X164929211Y-119224971D01*
X164819524Y-118959508D01*
X164528628Y-118668104D01*
X164148359Y-118510203D01*
X163736611Y-118509844D01*
X163356067Y-118667081D01*
X163064663Y-118957977D01*
X162906762Y-119338246D01*
X162906403Y-119749994D01*
X129667000Y-119749994D01*
X129667000Y-117352927D01*
X184976637Y-117352927D01*
X185011678Y-117723239D01*
X185085975Y-117902607D01*
X185219347Y-117910977D01*
X185162858Y-117967466D01*
X185195392Y-118000000D01*
X185162858Y-118032534D01*
X185219347Y-118089023D01*
X185085975Y-118097393D01*
X184976637Y-118452927D01*
X185011678Y-118823239D01*
X185085975Y-119002607D01*
X185219347Y-119010977D01*
X185162858Y-119067466D01*
X185195392Y-119100000D01*
X185162858Y-119132534D01*
X185219347Y-119189023D01*
X185085975Y-119197393D01*
X184976637Y-119552927D01*
X185011678Y-119923239D01*
X185085975Y-120102607D01*
X185280576Y-120114819D01*
X185745395Y-119650000D01*
X185731253Y-119635858D01*
X185873013Y-119494097D01*
X185967999Y-119485109D01*
X186080903Y-119598013D01*
X186089891Y-119692999D01*
X185939143Y-119843748D01*
X185925000Y-119829605D01*
X185460181Y-120294424D01*
X185472393Y-120489025D01*
X185827927Y-120598363D01*
X186198239Y-120563322D01*
X186377607Y-120489025D01*
X186385977Y-120355653D01*
X186442466Y-120412142D01*
X186475000Y-120379608D01*
X186507534Y-120412142D01*
X186564023Y-120355653D01*
X186572393Y-120489025D01*
X186927927Y-120598363D01*
X187298239Y-120563322D01*
X187477607Y-120489025D01*
X187485977Y-120355653D01*
X187542466Y-120412142D01*
X187575000Y-120379608D01*
X187607534Y-120412142D01*
X187664023Y-120355653D01*
X187672393Y-120489025D01*
X188027927Y-120598363D01*
X188398239Y-120563322D01*
X188577607Y-120489025D01*
X188589819Y-120294424D01*
X188125000Y-119829605D01*
X188110858Y-119843748D01*
X187969097Y-119701987D01*
X187960109Y-119607001D01*
X188073013Y-119494097D01*
X188167999Y-119485109D01*
X188318748Y-119635858D01*
X188304605Y-119650000D01*
X188769424Y-120114819D01*
X188964025Y-120102607D01*
X189073363Y-119747073D01*
X189038322Y-119376761D01*
X188964025Y-119197393D01*
X188830653Y-119189023D01*
X188887142Y-119132534D01*
X188854608Y-119100000D01*
X188887142Y-119067466D01*
X188830653Y-119010977D01*
X188964025Y-119002607D01*
X189073363Y-118647073D01*
X189038322Y-118276761D01*
X188964025Y-118097393D01*
X188830653Y-118089023D01*
X188887142Y-118032534D01*
X188854608Y-118000000D01*
X188887142Y-117967466D01*
X188830653Y-117910977D01*
X188964025Y-117902607D01*
X189073363Y-117547073D01*
X189038322Y-117176761D01*
X188964025Y-116997393D01*
X188769424Y-116985181D01*
X188304605Y-117450000D01*
X188318748Y-117464143D01*
X188176987Y-117605903D01*
X188082001Y-117614891D01*
X187969097Y-117501987D01*
X187960109Y-117407001D01*
X188110858Y-117256253D01*
X188125000Y-117270395D01*
X188589819Y-116805576D01*
X188577607Y-116610975D01*
X188222073Y-116501637D01*
X187851761Y-116536678D01*
X187672393Y-116610975D01*
X187664023Y-116744347D01*
X187607534Y-116687858D01*
X187575000Y-116720392D01*
X187542466Y-116687858D01*
X187485977Y-116744347D01*
X187477607Y-116610975D01*
X187122073Y-116501637D01*
X186751761Y-116536678D01*
X186572393Y-116610975D01*
X186564023Y-116744347D01*
X186507534Y-116687858D01*
X186475000Y-116720392D01*
X186442466Y-116687858D01*
X186385977Y-116744347D01*
X186377607Y-116610975D01*
X186022073Y-116501637D01*
X185651761Y-116536678D01*
X185472393Y-116610975D01*
X185460181Y-116805576D01*
X185925000Y-117270395D01*
X185939143Y-117256253D01*
X186080903Y-117398013D01*
X186089891Y-117492999D01*
X185976987Y-117605903D01*
X185882001Y-117614891D01*
X185731253Y-117464143D01*
X185745395Y-117450000D01*
X185280576Y-116985181D01*
X185085975Y-116997393D01*
X184976637Y-117352927D01*
X129667000Y-117352927D01*
X129667000Y-115934971D01*
X181354821Y-115934971D01*
X181512058Y-116315515D01*
X181802954Y-116606919D01*
X182183223Y-116764820D01*
X182594971Y-116765179D01*
X182975515Y-116607942D01*
X183266919Y-116317046D01*
X183424820Y-115936777D01*
X183425179Y-115525029D01*
X183267942Y-115144485D01*
X182977046Y-114853081D01*
X182596777Y-114695180D01*
X182185029Y-114694821D01*
X181804485Y-114852058D01*
X181513081Y-115142954D01*
X181355180Y-115523223D01*
X181354821Y-115934971D01*
X129667000Y-115934971D01*
X129667000Y-115014188D01*
X149998814Y-115014188D01*
X150156051Y-115394732D01*
X150446947Y-115686136D01*
X150827216Y-115844037D01*
X151238964Y-115844396D01*
X151619508Y-115687159D01*
X151910912Y-115396263D01*
X152068813Y-115015994D01*
X152069172Y-114604246D01*
X151911935Y-114223702D01*
X151882736Y-114194452D01*
X152269967Y-114194790D01*
X152650511Y-114037553D01*
X152941915Y-113746657D01*
X153072025Y-113433316D01*
X156665969Y-113433316D01*
X156823206Y-113813860D01*
X157114102Y-114105264D01*
X157494371Y-114263165D01*
X157906119Y-114263524D01*
X158120434Y-114174971D01*
X192814821Y-114174971D01*
X192972058Y-114555515D01*
X193262954Y-114846919D01*
X193643223Y-115004820D01*
X194054971Y-115005179D01*
X194435515Y-114847942D01*
X194726919Y-114557046D01*
X194884820Y-114176777D01*
X194885179Y-113765029D01*
X194727942Y-113384485D01*
X194437046Y-113093081D01*
X194056777Y-112935180D01*
X193645029Y-112934821D01*
X193264485Y-113092058D01*
X192973081Y-113382954D01*
X192815180Y-113763223D01*
X192814821Y-114174971D01*
X158120434Y-114174971D01*
X158286663Y-114106287D01*
X158578067Y-113815391D01*
X158735968Y-113435122D01*
X158736327Y-113023374D01*
X158579090Y-112642830D01*
X158351629Y-112414971D01*
X189464821Y-112414971D01*
X189622058Y-112795515D01*
X189912954Y-113086919D01*
X190293223Y-113244820D01*
X190704971Y-113245179D01*
X191085515Y-113087942D01*
X191376919Y-112797046D01*
X191534820Y-112416777D01*
X191535179Y-112005029D01*
X191377942Y-111624485D01*
X191087046Y-111333081D01*
X190706777Y-111175180D01*
X190295029Y-111174821D01*
X189914485Y-111332058D01*
X189623081Y-111622954D01*
X189465180Y-112003223D01*
X189464821Y-112414971D01*
X158351629Y-112414971D01*
X158288194Y-112351426D01*
X157907925Y-112193525D01*
X157496177Y-112193166D01*
X157115633Y-112350403D01*
X156824229Y-112641299D01*
X156666328Y-113021568D01*
X156665969Y-113433316D01*
X153072025Y-113433316D01*
X153099816Y-113366388D01*
X153100175Y-112954640D01*
X152942938Y-112574096D01*
X152652042Y-112282692D01*
X152271773Y-112124791D01*
X151860025Y-112124432D01*
X151479481Y-112281669D01*
X151188077Y-112572565D01*
X151030176Y-112952834D01*
X151029817Y-113364582D01*
X151187054Y-113745126D01*
X151216253Y-113774376D01*
X150829022Y-113774038D01*
X150448478Y-113931275D01*
X150157074Y-114222171D01*
X149999173Y-114602440D01*
X149998814Y-115014188D01*
X129667000Y-115014188D01*
X129667000Y-111924971D01*
X130774821Y-111924971D01*
X130932058Y-112305515D01*
X131222954Y-112596919D01*
X131603223Y-112754820D01*
X132014971Y-112755179D01*
X132395515Y-112597942D01*
X132686919Y-112307046D01*
X132844820Y-111926777D01*
X132844926Y-111804971D01*
X148474821Y-111804971D01*
X148632058Y-112185515D01*
X148922954Y-112476919D01*
X149303223Y-112634820D01*
X149714971Y-112635179D01*
X150095515Y-112477942D01*
X150386919Y-112187046D01*
X150544820Y-111806777D01*
X150545179Y-111395029D01*
X150387942Y-111014485D01*
X150097046Y-110723081D01*
X149716777Y-110565180D01*
X149305029Y-110564821D01*
X148924485Y-110722058D01*
X148633081Y-111012954D01*
X148475180Y-111393223D01*
X148474821Y-111804971D01*
X132844926Y-111804971D01*
X132845179Y-111515029D01*
X132687942Y-111134485D01*
X132397046Y-110843081D01*
X132016777Y-110685180D01*
X131605029Y-110684821D01*
X131224485Y-110842058D01*
X130933081Y-111132954D01*
X130775180Y-111513223D01*
X130774821Y-111924971D01*
X129667000Y-111924971D01*
X129667000Y-110594971D01*
X145484821Y-110594971D01*
X145642058Y-110975515D01*
X145932954Y-111266919D01*
X146313223Y-111424820D01*
X146724971Y-111425179D01*
X147105515Y-111267942D01*
X147396919Y-110977046D01*
X147554820Y-110596777D01*
X147555179Y-110185029D01*
X147397942Y-109804485D01*
X147107046Y-109513081D01*
X146726777Y-109355180D01*
X146315029Y-109354821D01*
X145934485Y-109512058D01*
X145643081Y-109802954D01*
X145485180Y-110183223D01*
X145484821Y-110594971D01*
X129667000Y-110594971D01*
X129667000Y-106799445D01*
X147603139Y-106799445D01*
X147760376Y-107179989D01*
X148051272Y-107471393D01*
X148431541Y-107629294D01*
X148843289Y-107629653D01*
X149223833Y-107472416D01*
X149515237Y-107181520D01*
X149648389Y-106860853D01*
X149873840Y-107086697D01*
X150254109Y-107244598D01*
X150665857Y-107244957D01*
X151046401Y-107087720D01*
X151337805Y-106796824D01*
X151464020Y-106492863D01*
X152592703Y-106492863D01*
X152749940Y-106873407D01*
X153040836Y-107164811D01*
X153421105Y-107322712D01*
X153832853Y-107323071D01*
X154092847Y-107215644D01*
X154092783Y-107288830D01*
X154250020Y-107669374D01*
X154540916Y-107960778D01*
X154921185Y-108118679D01*
X155332933Y-108119038D01*
X155713477Y-107961801D01*
X156004881Y-107670905D01*
X156162782Y-107290636D01*
X156163141Y-106878888D01*
X156005904Y-106498344D01*
X155862781Y-106354971D01*
X185034821Y-106354971D01*
X185192058Y-106735515D01*
X185482954Y-107026919D01*
X185863223Y-107184820D01*
X186041248Y-107184975D01*
X185933081Y-107292954D01*
X185775180Y-107673223D01*
X185774821Y-108084971D01*
X185932058Y-108465515D01*
X186222954Y-108756919D01*
X186603223Y-108914820D01*
X187014971Y-108915179D01*
X187395515Y-108757942D01*
X187686919Y-108467046D01*
X187844820Y-108086777D01*
X187845179Y-107675029D01*
X187687942Y-107294485D01*
X187397046Y-107003081D01*
X187016777Y-106845180D01*
X186838752Y-106845025D01*
X186946919Y-106737046D01*
X187104820Y-106356777D01*
X187105179Y-105945029D01*
X186947942Y-105564485D01*
X186657046Y-105273081D01*
X186276777Y-105115180D01*
X185865029Y-105114821D01*
X185484485Y-105272058D01*
X185193081Y-105562954D01*
X185035180Y-105943223D01*
X185034821Y-106354971D01*
X155862781Y-106354971D01*
X155715008Y-106206940D01*
X155334739Y-106049039D01*
X154922991Y-106048680D01*
X154662997Y-106156107D01*
X154663061Y-106082921D01*
X154505824Y-105702377D01*
X154214928Y-105410973D01*
X153834659Y-105253072D01*
X153422911Y-105252713D01*
X153042367Y-105409950D01*
X152750963Y-105700846D01*
X152593062Y-106081115D01*
X152592703Y-106492863D01*
X151464020Y-106492863D01*
X151491587Y-106426474D01*
X151594971Y-106426564D01*
X151975515Y-106269327D01*
X152266919Y-105978431D01*
X152424820Y-105598162D01*
X152425179Y-105186414D01*
X152267942Y-104805870D01*
X151977046Y-104514466D01*
X151596777Y-104356565D01*
X151185029Y-104356206D01*
X150804485Y-104513443D01*
X150513081Y-104804339D01*
X150359299Y-105174689D01*
X150255915Y-105174599D01*
X149875371Y-105331836D01*
X149583967Y-105622732D01*
X149450815Y-105943399D01*
X149225364Y-105717555D01*
X148845095Y-105559654D01*
X148433347Y-105559295D01*
X148052803Y-105716532D01*
X147761399Y-106007428D01*
X147603498Y-106387697D01*
X147603139Y-106799445D01*
X129667000Y-106799445D01*
X129667000Y-104282572D01*
X145334409Y-104282572D01*
X145491646Y-104663116D01*
X145782542Y-104954520D01*
X146162811Y-105112421D01*
X146574559Y-105112780D01*
X146955103Y-104955543D01*
X147246507Y-104664647D01*
X147404408Y-104284378D01*
X147404767Y-103872630D01*
X147247530Y-103492086D01*
X146956634Y-103200682D01*
X146576365Y-103042781D01*
X146164617Y-103042422D01*
X145784073Y-103199659D01*
X145492669Y-103490555D01*
X145334768Y-103870824D01*
X145334409Y-104282572D01*
X129667000Y-104282572D01*
X129667000Y-102274971D01*
X145964821Y-102274971D01*
X146122058Y-102655515D01*
X146412954Y-102946919D01*
X146793223Y-103104820D01*
X147204971Y-103105179D01*
X147585515Y-102947942D01*
X147876919Y-102657046D01*
X148034820Y-102276777D01*
X148035179Y-101865029D01*
X147877942Y-101484485D01*
X147688759Y-101294971D01*
X149364821Y-101294971D01*
X149522058Y-101675515D01*
X149812954Y-101966919D01*
X150193223Y-102124820D01*
X150218484Y-102124842D01*
X150029561Y-102313436D01*
X149871660Y-102693705D01*
X149871301Y-103105453D01*
X150028538Y-103485997D01*
X150319434Y-103777401D01*
X150699703Y-103935302D01*
X151111451Y-103935661D01*
X151491995Y-103778424D01*
X151783399Y-103487528D01*
X151878768Y-103257851D01*
X154504261Y-103257851D01*
X154661498Y-103638395D01*
X154952394Y-103929799D01*
X155332663Y-104087700D01*
X155624634Y-104087955D01*
X155624401Y-104355129D01*
X155781638Y-104735673D01*
X156072534Y-105027077D01*
X156452803Y-105184978D01*
X156864551Y-105185337D01*
X157245095Y-105028100D01*
X157536499Y-104737204D01*
X157694400Y-104356935D01*
X157694759Y-103945187D01*
X157537522Y-103564643D01*
X157246626Y-103273239D01*
X156866357Y-103115338D01*
X156574386Y-103115083D01*
X156574619Y-102847909D01*
X156417382Y-102467365D01*
X156126486Y-102175961D01*
X155746217Y-102018060D01*
X155334469Y-102017701D01*
X154953925Y-102174938D01*
X154662521Y-102465834D01*
X154504620Y-102846103D01*
X154504261Y-103257851D01*
X151878768Y-103257851D01*
X151941300Y-103107259D01*
X151941659Y-102695511D01*
X151889693Y-102569743D01*
X152193223Y-102695779D01*
X152604971Y-102696138D01*
X152985515Y-102538901D01*
X153276919Y-102248005D01*
X153434820Y-101867736D01*
X153435179Y-101455988D01*
X153277942Y-101075444D01*
X152987046Y-100784040D01*
X152606777Y-100626139D01*
X152195029Y-100625780D01*
X151814485Y-100783017D01*
X151523081Y-101073913D01*
X151434829Y-101286448D01*
X151435179Y-100885029D01*
X151277942Y-100504485D01*
X150987046Y-100213081D01*
X150606777Y-100055180D01*
X150195029Y-100054821D01*
X149814485Y-100212058D01*
X149523081Y-100502954D01*
X149365180Y-100883223D01*
X149364821Y-101294971D01*
X147688759Y-101294971D01*
X147587046Y-101193081D01*
X147206777Y-101035180D01*
X146795029Y-101034821D01*
X146414485Y-101192058D01*
X146123081Y-101482954D01*
X145965180Y-101863223D01*
X145964821Y-102274971D01*
X129667000Y-102274971D01*
X129667000Y-99280211D01*
X151109551Y-99280211D01*
X151266788Y-99660755D01*
X151557684Y-99952159D01*
X151937953Y-100110060D01*
X152349701Y-100110419D01*
X152730245Y-99953182D01*
X152983904Y-99699965D01*
X152945180Y-99793223D01*
X152944821Y-100204971D01*
X153102058Y-100585515D01*
X153392954Y-100876919D01*
X153773223Y-101034820D01*
X154184971Y-101035179D01*
X154565515Y-100877942D01*
X154856919Y-100587046D01*
X155014820Y-100206777D01*
X155015179Y-99795029D01*
X155015156Y-99794971D01*
X155844821Y-99794971D01*
X156002058Y-100175515D01*
X156292954Y-100466919D01*
X156673223Y-100624820D01*
X157084971Y-100625179D01*
X157465515Y-100467942D01*
X157748644Y-100185306D01*
X160124131Y-100185306D01*
X160281368Y-100565850D01*
X160572264Y-100857254D01*
X160952533Y-101015155D01*
X161364281Y-101015514D01*
X161744825Y-100858277D01*
X162036229Y-100567381D01*
X162194130Y-100187112D01*
X162194489Y-99775364D01*
X162037252Y-99394820D01*
X161746356Y-99103416D01*
X161366087Y-98945515D01*
X160954339Y-98945156D01*
X160573795Y-99102393D01*
X160282391Y-99393289D01*
X160124490Y-99773558D01*
X160124131Y-100185306D01*
X157748644Y-100185306D01*
X157756919Y-100177046D01*
X157914820Y-99796777D01*
X157915179Y-99385029D01*
X157757942Y-99004485D01*
X157467046Y-98713081D01*
X157086777Y-98555180D01*
X156675029Y-98554821D01*
X156294485Y-98712058D01*
X156003081Y-99002954D01*
X155845180Y-99383223D01*
X155844821Y-99794971D01*
X155015156Y-99794971D01*
X154857942Y-99414485D01*
X154567046Y-99123081D01*
X154186777Y-98965180D01*
X153775029Y-98964821D01*
X153394485Y-99122058D01*
X153140826Y-99375275D01*
X153179550Y-99282017D01*
X153179909Y-98870269D01*
X153022672Y-98489725D01*
X152731776Y-98198321D01*
X152351507Y-98040420D01*
X151939759Y-98040061D01*
X151559215Y-98197298D01*
X151267811Y-98488194D01*
X151109910Y-98868463D01*
X151109551Y-99280211D01*
X129667000Y-99280211D01*
X129667000Y-94844971D01*
X133354821Y-94844971D01*
X133512058Y-95225515D01*
X133802954Y-95516919D01*
X134183223Y-95674820D01*
X134594971Y-95675179D01*
X134605173Y-95670964D01*
X134604821Y-96074971D01*
X134762058Y-96455515D01*
X135052954Y-96746919D01*
X135433223Y-96904820D01*
X135844971Y-96905179D01*
X136225515Y-96747942D01*
X136516919Y-96457046D01*
X136646478Y-96145032D01*
X136814971Y-96145179D01*
X137195515Y-95987942D01*
X137468962Y-95714971D01*
X140674821Y-95714971D01*
X140832058Y-96095515D01*
X141122954Y-96386919D01*
X141503223Y-96544820D01*
X141914971Y-96545179D01*
X142295515Y-96387942D01*
X142586919Y-96097046D01*
X142701403Y-95821337D01*
X151943542Y-95821337D01*
X152100779Y-96201881D01*
X152391675Y-96493285D01*
X152771944Y-96651186D01*
X153183692Y-96651545D01*
X153564236Y-96494308D01*
X153855640Y-96203412D01*
X154013541Y-95823143D01*
X154013818Y-95505025D01*
X156438662Y-95505025D01*
X156595899Y-95885569D01*
X156886795Y-96176973D01*
X157267064Y-96334874D01*
X157678812Y-96335233D01*
X158059356Y-96177996D01*
X158230359Y-96007291D01*
X158117969Y-96277957D01*
X158117610Y-96689705D01*
X158274847Y-97070249D01*
X158565743Y-97361653D01*
X158946012Y-97519554D01*
X159357760Y-97519913D01*
X159738304Y-97362676D01*
X160029708Y-97071780D01*
X160187609Y-96691511D01*
X160187968Y-96279763D01*
X160030731Y-95899219D01*
X159739835Y-95607815D01*
X159359566Y-95449914D01*
X158947818Y-95449555D01*
X158567274Y-95606792D01*
X158396271Y-95777497D01*
X158508661Y-95506831D01*
X158508898Y-95234082D01*
X159745547Y-95234082D01*
X159902784Y-95614626D01*
X160193680Y-95906030D01*
X160573949Y-96063931D01*
X160985697Y-96064290D01*
X161330336Y-95921889D01*
X161210691Y-96210027D01*
X161210332Y-96621775D01*
X161367569Y-97002319D01*
X161658465Y-97293723D01*
X162038734Y-97451624D01*
X162450482Y-97451983D01*
X162831026Y-97294746D01*
X163122430Y-97003850D01*
X163280331Y-96623581D01*
X163280690Y-96211833D01*
X163199349Y-96014971D01*
X165624821Y-96014971D01*
X165782058Y-96395515D01*
X166072954Y-96686919D01*
X166453223Y-96844820D01*
X166864971Y-96845179D01*
X167245515Y-96687942D01*
X167536919Y-96397046D01*
X167694820Y-96016777D01*
X167695179Y-95605029D01*
X167537942Y-95224485D01*
X167247046Y-94933081D01*
X166866777Y-94775180D01*
X166455029Y-94774821D01*
X166074485Y-94932058D01*
X165783081Y-95222954D01*
X165625180Y-95603223D01*
X165624821Y-96014971D01*
X163199349Y-96014971D01*
X163123453Y-95831289D01*
X162832557Y-95539885D01*
X162452288Y-95381984D01*
X162040540Y-95381625D01*
X161695901Y-95524026D01*
X161815546Y-95235888D01*
X161815905Y-94824140D01*
X161658668Y-94443596D01*
X161367772Y-94152192D01*
X160987503Y-93994291D01*
X160575755Y-93993932D01*
X160195211Y-94151169D01*
X159903807Y-94442065D01*
X159745906Y-94822334D01*
X159745547Y-95234082D01*
X158508898Y-95234082D01*
X158509020Y-95095083D01*
X158351783Y-94714539D01*
X158060887Y-94423135D01*
X157680618Y-94265234D01*
X157268870Y-94264875D01*
X156888326Y-94422112D01*
X156596922Y-94713008D01*
X156439021Y-95093277D01*
X156438662Y-95505025D01*
X154013818Y-95505025D01*
X154013900Y-95411395D01*
X153856663Y-95030851D01*
X153565767Y-94739447D01*
X153185498Y-94581546D01*
X152773750Y-94581187D01*
X152393206Y-94738424D01*
X152101802Y-95029320D01*
X151943901Y-95409589D01*
X151943542Y-95821337D01*
X142701403Y-95821337D01*
X142744820Y-95716777D01*
X142745179Y-95305029D01*
X142587942Y-94924485D01*
X142297046Y-94633081D01*
X141916777Y-94475180D01*
X141505029Y-94474821D01*
X141124485Y-94632058D01*
X140833081Y-94922954D01*
X140675180Y-95303223D01*
X140674821Y-95714971D01*
X137468962Y-95714971D01*
X137486919Y-95697046D01*
X137644820Y-95316777D01*
X137645013Y-95095109D01*
X137724971Y-95095179D01*
X138105515Y-94937942D01*
X138396919Y-94647046D01*
X138554820Y-94266777D01*
X138555179Y-93855029D01*
X138530311Y-93794844D01*
X138914971Y-93795179D01*
X139295515Y-93637942D01*
X139586919Y-93347046D01*
X139744820Y-92966777D01*
X139745062Y-92688623D01*
X146620060Y-92688623D01*
X146777297Y-93069167D01*
X147068193Y-93360571D01*
X147448462Y-93518472D01*
X147860210Y-93518831D01*
X148240754Y-93361594D01*
X148532158Y-93070698D01*
X148540395Y-93050860D01*
X151475311Y-93050860D01*
X151632548Y-93431404D01*
X151923444Y-93722808D01*
X152303713Y-93880709D01*
X152715461Y-93881068D01*
X153096005Y-93723831D01*
X153387409Y-93432935D01*
X153545310Y-93052666D01*
X153545669Y-92640918D01*
X153388432Y-92260374D01*
X153097536Y-91968970D01*
X152717267Y-91811069D01*
X152305519Y-91810710D01*
X151924975Y-91967947D01*
X151633571Y-92258843D01*
X151475670Y-92639112D01*
X151475311Y-93050860D01*
X148540395Y-93050860D01*
X148690059Y-92690429D01*
X148690418Y-92278681D01*
X148533181Y-91898137D01*
X148242285Y-91606733D01*
X147862016Y-91448832D01*
X147450268Y-91448473D01*
X147069724Y-91605710D01*
X146778320Y-91896606D01*
X146620419Y-92276875D01*
X146620060Y-92688623D01*
X139745062Y-92688623D01*
X139745179Y-92555029D01*
X139587942Y-92174485D01*
X139297046Y-91883081D01*
X138916777Y-91725180D01*
X138694987Y-91724987D01*
X138695179Y-91505029D01*
X138537942Y-91124485D01*
X138502998Y-91089479D01*
X142854062Y-91089479D01*
X143011299Y-91470023D01*
X143302195Y-91761427D01*
X143682464Y-91919328D01*
X144094212Y-91919687D01*
X144474756Y-91762450D01*
X144766160Y-91471554D01*
X144924061Y-91091285D01*
X144924284Y-90834971D01*
X145434821Y-90834971D01*
X145592058Y-91215515D01*
X145882954Y-91506919D01*
X146263223Y-91664820D01*
X146674971Y-91665179D01*
X147055515Y-91507942D01*
X147346919Y-91217046D01*
X147428809Y-91019830D01*
X152768967Y-91019830D01*
X152926204Y-91400374D01*
X153217100Y-91691778D01*
X153597369Y-91849679D01*
X154009117Y-91850038D01*
X154389661Y-91692801D01*
X154681065Y-91401905D01*
X154774984Y-91175722D01*
X159222548Y-91175722D01*
X159379785Y-91556266D01*
X159670681Y-91847670D01*
X160050950Y-92005571D01*
X160462698Y-92005930D01*
X160843242Y-91848693D01*
X161134646Y-91557797D01*
X161292547Y-91177528D01*
X161292906Y-90765780D01*
X161135669Y-90385236D01*
X160844773Y-90093832D01*
X160464504Y-89935931D01*
X160052756Y-89935572D01*
X159672212Y-90092809D01*
X159380808Y-90383705D01*
X159222907Y-90763974D01*
X159222548Y-91175722D01*
X154774984Y-91175722D01*
X154838966Y-91021636D01*
X154839325Y-90609888D01*
X154682088Y-90229344D01*
X154391192Y-89937940D01*
X154010923Y-89780039D01*
X153599175Y-89779680D01*
X153218631Y-89936917D01*
X152927227Y-90227813D01*
X152769326Y-90608082D01*
X152768967Y-91019830D01*
X147428809Y-91019830D01*
X147454824Y-90957180D01*
X147473223Y-90964820D01*
X147884971Y-90965179D01*
X148265515Y-90807942D01*
X148556919Y-90517046D01*
X148714820Y-90136777D01*
X148714883Y-90064909D01*
X149024971Y-90065179D01*
X149405515Y-89907942D01*
X149696919Y-89617046D01*
X149854820Y-89236777D01*
X149855179Y-88825029D01*
X149697942Y-88444485D01*
X149522520Y-88268756D01*
X157324946Y-88268756D01*
X157482183Y-88649300D01*
X157773079Y-88940704D01*
X158153348Y-89098605D01*
X158565096Y-89098964D01*
X158945640Y-88941727D01*
X159237044Y-88650831D01*
X159256558Y-88603836D01*
X159258661Y-88608926D01*
X159549557Y-88900330D01*
X159929826Y-89058231D01*
X160341574Y-89058590D01*
X160722118Y-88901353D01*
X161013522Y-88610457D01*
X161171423Y-88230188D01*
X161171782Y-87818440D01*
X161014545Y-87437896D01*
X160723649Y-87146492D01*
X160343380Y-86988591D01*
X159931632Y-86988232D01*
X159551088Y-87145469D01*
X159259684Y-87436365D01*
X159240170Y-87483360D01*
X159238067Y-87478270D01*
X158947171Y-87186866D01*
X158566902Y-87028965D01*
X158155154Y-87028606D01*
X157774610Y-87185843D01*
X157483206Y-87476739D01*
X157325305Y-87857008D01*
X157324946Y-88268756D01*
X149522520Y-88268756D01*
X149407046Y-88153081D01*
X149026777Y-87995180D01*
X148615029Y-87994821D01*
X148234485Y-88152058D01*
X147943081Y-88442954D01*
X147785180Y-88823223D01*
X147785117Y-88895091D01*
X147475029Y-88894821D01*
X147094485Y-89052058D01*
X146803081Y-89342954D01*
X146695176Y-89602820D01*
X146676777Y-89595180D01*
X146265029Y-89594821D01*
X145884485Y-89752058D01*
X145593081Y-90042954D01*
X145435180Y-90423223D01*
X145434821Y-90834971D01*
X144924284Y-90834971D01*
X144924420Y-90679537D01*
X144767183Y-90298993D01*
X144476287Y-90007589D01*
X144096018Y-89849688D01*
X143684270Y-89849329D01*
X143303726Y-90006566D01*
X143012322Y-90297462D01*
X142854421Y-90677731D01*
X142854062Y-91089479D01*
X138502998Y-91089479D01*
X138247046Y-90833081D01*
X137866777Y-90675180D01*
X137455029Y-90674821D01*
X137074485Y-90832058D01*
X136783081Y-91122954D01*
X136625180Y-91503223D01*
X136624881Y-91845916D01*
X136526777Y-91805180D01*
X136115029Y-91804821D01*
X135734485Y-91962058D01*
X135443081Y-92252954D01*
X135285180Y-92633223D01*
X135285030Y-92804961D01*
X135125029Y-92804821D01*
X134744485Y-92962058D01*
X134453081Y-93252954D01*
X134306929Y-93604927D01*
X134185029Y-93604821D01*
X133804485Y-93762058D01*
X133513081Y-94052954D01*
X133355180Y-94433223D01*
X133354821Y-94844971D01*
X129667000Y-94844971D01*
X129667000Y-94030712D01*
X129773223Y-94074820D01*
X130184971Y-94075179D01*
X130565515Y-93917942D01*
X130856919Y-93627046D01*
X131014820Y-93246777D01*
X131015179Y-92835029D01*
X130857942Y-92454485D01*
X130567046Y-92163081D01*
X130186777Y-92005180D01*
X129775029Y-92004821D01*
X129667000Y-92049458D01*
X129667000Y-91174971D01*
X132354821Y-91174971D01*
X132512058Y-91555515D01*
X132802954Y-91846919D01*
X133183223Y-92004820D01*
X133594971Y-92005179D01*
X133975515Y-91847942D01*
X134266919Y-91557046D01*
X134424820Y-91176777D01*
X134425179Y-90765029D01*
X134267942Y-90384485D01*
X133977046Y-90093081D01*
X133596777Y-89935180D01*
X133185029Y-89934821D01*
X132804485Y-90092058D01*
X132513081Y-90382954D01*
X132355180Y-90763223D01*
X132354821Y-91174971D01*
X129667000Y-91174971D01*
X129667000Y-88554971D01*
X140594821Y-88554971D01*
X140752058Y-88935515D01*
X141042954Y-89226919D01*
X141423223Y-89384820D01*
X141834971Y-89385179D01*
X142215515Y-89227942D01*
X142506919Y-88937046D01*
X142664820Y-88556777D01*
X142665179Y-88145029D01*
X142507942Y-87764485D01*
X142217046Y-87473081D01*
X141836777Y-87315180D01*
X141425029Y-87314821D01*
X141044485Y-87472058D01*
X140753081Y-87762954D01*
X140595180Y-88143223D01*
X140594821Y-88554971D01*
X129667000Y-88554971D01*
X129667000Y-87134971D01*
X146994821Y-87134971D01*
X147152058Y-87515515D01*
X147442954Y-87806919D01*
X147823223Y-87964820D01*
X148234971Y-87965179D01*
X148615515Y-87807942D01*
X148906919Y-87517046D01*
X149064820Y-87136777D01*
X149065179Y-86725029D01*
X148907942Y-86344485D01*
X148617046Y-86053081D01*
X148236777Y-85895180D01*
X147825029Y-85894821D01*
X147444485Y-86052058D01*
X147153081Y-86342954D01*
X146995180Y-86723223D01*
X146994821Y-87134971D01*
X129667000Y-87134971D01*
X129667000Y-74596491D01*
X211837141Y-74596491D01*
X211994378Y-74977035D01*
X212285274Y-75268439D01*
X212665543Y-75426340D01*
X213077291Y-75426699D01*
X213457835Y-75269462D01*
X213749239Y-74978566D01*
X213907140Y-74598297D01*
X213907499Y-74186549D01*
X213750262Y-73806005D01*
X213459366Y-73514601D01*
X213079097Y-73356700D01*
X212667349Y-73356341D01*
X212286805Y-73513578D01*
X211995401Y-73804474D01*
X211837500Y-74184743D01*
X211837141Y-74596491D01*
X129667000Y-74596491D01*
X129667000Y-71354971D01*
X211844821Y-71354971D01*
X212002058Y-71735515D01*
X212292954Y-72026919D01*
X212673223Y-72184820D01*
X213084971Y-72185179D01*
X213465515Y-72027942D01*
X213756919Y-71737046D01*
X213914820Y-71356777D01*
X213915179Y-70945029D01*
X213757942Y-70564485D01*
X213467046Y-70273081D01*
X213086777Y-70115180D01*
X212675029Y-70114821D01*
X212294485Y-70272058D01*
X212003081Y-70562954D01*
X211845180Y-70943223D01*
X211844821Y-71354971D01*
X129667000Y-71354971D01*
X129667000Y-70140136D01*
X144811242Y-70140136D01*
X144968479Y-70520680D01*
X145259375Y-70812084D01*
X145639644Y-70969985D01*
X146051392Y-70970344D01*
X146431936Y-70813107D01*
X146723340Y-70522211D01*
X146881241Y-70141942D01*
X146881600Y-69730194D01*
X146724363Y-69349650D01*
X146433467Y-69058246D01*
X146053198Y-68900345D01*
X145641450Y-68899986D01*
X145260906Y-69057223D01*
X144969502Y-69348119D01*
X144811601Y-69728388D01*
X144811242Y-70140136D01*
X129667000Y-70140136D01*
X129667000Y-63864971D01*
X145394821Y-63864971D01*
X145552058Y-64245515D01*
X145842954Y-64536919D01*
X146223223Y-64694820D01*
X146634971Y-64695179D01*
X146998503Y-64544971D01*
X150964821Y-64544971D01*
X151122058Y-64925515D01*
X151134419Y-64937897D01*
X150995180Y-65273223D01*
X150994821Y-65684971D01*
X151152058Y-66065515D01*
X151442954Y-66356919D01*
X151823223Y-66514820D01*
X152234971Y-66515179D01*
X152615515Y-66357942D01*
X152906919Y-66067046D01*
X153064820Y-65686777D01*
X153064882Y-65614971D01*
X153214821Y-65614971D01*
X153372058Y-65995515D01*
X153662954Y-66286919D01*
X154043223Y-66444820D01*
X154454971Y-66445179D01*
X154835515Y-66287942D01*
X155126919Y-65997046D01*
X155284820Y-65616777D01*
X155285020Y-65386400D01*
X217138960Y-65386400D01*
X217138960Y-67113600D01*
X217183238Y-67348917D01*
X217322310Y-67565041D01*
X217534510Y-67710031D01*
X217578345Y-67718908D01*
X217265474Y-68187152D01*
X217151400Y-68760641D01*
X217151400Y-68819359D01*
X217265474Y-69392848D01*
X217590330Y-69879029D01*
X217861172Y-70060000D01*
X217590330Y-70240971D01*
X217265474Y-70727152D01*
X217151400Y-71300641D01*
X217151400Y-71359359D01*
X217265474Y-71932848D01*
X217590330Y-72419029D01*
X218076511Y-72743885D01*
X218650000Y-72857959D01*
X219223489Y-72743885D01*
X219709670Y-72419029D01*
X219925664Y-72095772D01*
X219983179Y-72218490D01*
X220415053Y-72612688D01*
X220830974Y-72784958D01*
X221063000Y-72663817D01*
X221063000Y-71457000D01*
X221317000Y-71457000D01*
X221317000Y-72663817D01*
X221549026Y-72784958D01*
X221964947Y-72612688D01*
X222396821Y-72218490D01*
X222644968Y-71689027D01*
X222524469Y-71457000D01*
X221317000Y-71457000D01*
X221063000Y-71457000D01*
X221043000Y-71457000D01*
X221043000Y-71203000D01*
X221063000Y-71203000D01*
X221063000Y-71183000D01*
X221317000Y-71183000D01*
X221317000Y-71203000D01*
X222524469Y-71203000D01*
X222644968Y-70970973D01*
X222396821Y-70441510D01*
X221978839Y-70059992D01*
X222249670Y-69879029D01*
X222574526Y-69392848D01*
X222688600Y-68819359D01*
X222688600Y-68760641D01*
X222574526Y-68187152D01*
X222249670Y-67700971D01*
X221978828Y-67520000D01*
X222249670Y-67339029D01*
X222574526Y-66852848D01*
X222688600Y-66279359D01*
X222688600Y-66220641D01*
X222574526Y-65647152D01*
X222249670Y-65160971D01*
X221763489Y-64836115D01*
X221190000Y-64722041D01*
X220616511Y-64836115D01*
X220130330Y-65160971D01*
X220121195Y-65174642D01*
X220116762Y-65151083D01*
X219977690Y-64934959D01*
X219765490Y-64789969D01*
X219513600Y-64738960D01*
X217786400Y-64738960D01*
X217551083Y-64783238D01*
X217334959Y-64922310D01*
X217189969Y-65134510D01*
X217138960Y-65386400D01*
X155285020Y-65386400D01*
X155285092Y-65304848D01*
X155664971Y-65305179D01*
X156045515Y-65147942D01*
X156336919Y-64857046D01*
X156494820Y-64476777D01*
X156495179Y-64065029D01*
X156420781Y-63884971D01*
X219324821Y-63884971D01*
X219482058Y-64265515D01*
X219772954Y-64556919D01*
X220153223Y-64714820D01*
X220564971Y-64715179D01*
X220945515Y-64557942D01*
X221236919Y-64267046D01*
X221394820Y-63886777D01*
X221395179Y-63475029D01*
X221237942Y-63094485D01*
X220947046Y-62803081D01*
X220566777Y-62645180D01*
X220155029Y-62644821D01*
X219774485Y-62802058D01*
X219483081Y-63092954D01*
X219325180Y-63473223D01*
X219324821Y-63884971D01*
X156420781Y-63884971D01*
X156337942Y-63684485D01*
X156047046Y-63393081D01*
X155666777Y-63235180D01*
X155255029Y-63234821D01*
X154874485Y-63392058D01*
X154583081Y-63682954D01*
X154425180Y-64063223D01*
X154424908Y-64375152D01*
X154045029Y-64374821D01*
X153664485Y-64532058D01*
X153373081Y-64822954D01*
X153215180Y-65203223D01*
X153214821Y-65614971D01*
X153064882Y-65614971D01*
X153065179Y-65275029D01*
X152907942Y-64894485D01*
X152895581Y-64882103D01*
X153034820Y-64546777D01*
X153035179Y-64135029D01*
X152877942Y-63754485D01*
X152587046Y-63463081D01*
X152206777Y-63305180D01*
X151795029Y-63304821D01*
X151414485Y-63462058D01*
X151123081Y-63752954D01*
X150965180Y-64133223D01*
X150964821Y-64544971D01*
X146998503Y-64544971D01*
X147015515Y-64537942D01*
X147306919Y-64247046D01*
X147464820Y-63866777D01*
X147465179Y-63455029D01*
X147307942Y-63074485D01*
X147017046Y-62783081D01*
X146636777Y-62625180D01*
X146225029Y-62624821D01*
X145844485Y-62782058D01*
X145553081Y-63072954D01*
X145395180Y-63453223D01*
X145394821Y-63864971D01*
X129667000Y-63864971D01*
X129667000Y-57384971D01*
X162564821Y-57384971D01*
X162722058Y-57765515D01*
X163012954Y-58056919D01*
X163393223Y-58214820D01*
X163804971Y-58215179D01*
X164185515Y-58057942D01*
X164476919Y-57767046D01*
X164598198Y-57474971D01*
X173144821Y-57474971D01*
X173302058Y-57855515D01*
X173592954Y-58146919D01*
X173973223Y-58304820D01*
X174384971Y-58305179D01*
X174765515Y-58147942D01*
X175056919Y-57857046D01*
X175214820Y-57476777D01*
X175215179Y-57065029D01*
X175057942Y-56684485D01*
X174767046Y-56393081D01*
X174386777Y-56235180D01*
X173975029Y-56234821D01*
X173594485Y-56392058D01*
X173303081Y-56682954D01*
X173145180Y-57063223D01*
X173144821Y-57474971D01*
X164598198Y-57474971D01*
X164634820Y-57386777D01*
X164635179Y-56975029D01*
X164477942Y-56594485D01*
X164187046Y-56303081D01*
X163806777Y-56145180D01*
X163395029Y-56144821D01*
X163014485Y-56302058D01*
X162723081Y-56592954D01*
X162565180Y-56973223D01*
X162564821Y-57384971D01*
X129667000Y-57384971D01*
X129667000Y-56044971D01*
X170144821Y-56044971D01*
X170302058Y-56425515D01*
X170592954Y-56716919D01*
X170973223Y-56874820D01*
X171384971Y-56875179D01*
X171765515Y-56717942D01*
X172056919Y-56427046D01*
X172174046Y-56144971D01*
X196784821Y-56144971D01*
X196942058Y-56525515D01*
X197232954Y-56816919D01*
X197613223Y-56974820D01*
X198024971Y-56975179D01*
X198405515Y-56817942D01*
X198696919Y-56527046D01*
X198854820Y-56146777D01*
X198855179Y-55735029D01*
X198697942Y-55354485D01*
X198407046Y-55063081D01*
X198026777Y-54905180D01*
X197615029Y-54904821D01*
X197234485Y-55062058D01*
X196943081Y-55352954D01*
X196785180Y-55733223D01*
X196784821Y-56144971D01*
X172174046Y-56144971D01*
X172214820Y-56046777D01*
X172215179Y-55635029D01*
X172057942Y-55254485D01*
X172055313Y-55251851D01*
X173119921Y-55251851D01*
X173277158Y-55632395D01*
X173568054Y-55923799D01*
X173948323Y-56081700D01*
X174360071Y-56082059D01*
X174740615Y-55924822D01*
X175032019Y-55633926D01*
X175189920Y-55253657D01*
X175190279Y-54841909D01*
X175033042Y-54461365D01*
X174742146Y-54169961D01*
X174361877Y-54012060D01*
X173950129Y-54011701D01*
X173569585Y-54168938D01*
X173278181Y-54459834D01*
X173120280Y-54840103D01*
X173119921Y-55251851D01*
X172055313Y-55251851D01*
X171767046Y-54963081D01*
X171386777Y-54805180D01*
X170975029Y-54804821D01*
X170594485Y-54962058D01*
X170303081Y-55252954D01*
X170145180Y-55633223D01*
X170144821Y-56044971D01*
X129667000Y-56044971D01*
X129667000Y-53865000D01*
X164410907Y-53865000D01*
X164523946Y-54433285D01*
X164845853Y-54915054D01*
X165327622Y-55236961D01*
X165895907Y-55350000D01*
X165954093Y-55350000D01*
X166522378Y-55236961D01*
X167004147Y-54915054D01*
X167195000Y-54629422D01*
X167385853Y-54915054D01*
X167867622Y-55236961D01*
X168435907Y-55350000D01*
X168494093Y-55350000D01*
X169062378Y-55236961D01*
X169544147Y-54915054D01*
X169866054Y-54433285D01*
X169979093Y-53865000D01*
X169866054Y-53296715D01*
X169544147Y-52814946D01*
X169214974Y-52595000D01*
X169544147Y-52375054D01*
X169604338Y-52284971D01*
X172664821Y-52284971D01*
X172822058Y-52665515D01*
X173112954Y-52956919D01*
X173493223Y-53114820D01*
X173904971Y-53115179D01*
X174285515Y-52957942D01*
X174576919Y-52667046D01*
X174734820Y-52286777D01*
X174735179Y-51875029D01*
X174695914Y-51780000D01*
X196572560Y-51780000D01*
X196572560Y-53480000D01*
X196616838Y-53715317D01*
X196755910Y-53931441D01*
X196968110Y-54076431D01*
X197220000Y-54127440D01*
X198920000Y-54127440D01*
X199155317Y-54083162D01*
X199371441Y-53944090D01*
X199516431Y-53731890D01*
X199538301Y-53623893D01*
X199843076Y-53901645D01*
X200253110Y-54071476D01*
X200483000Y-53950155D01*
X200483000Y-52757000D01*
X200737000Y-52757000D01*
X200737000Y-53950155D01*
X200966890Y-54071476D01*
X201376924Y-53901645D01*
X201805183Y-53511358D01*
X202051486Y-52986892D01*
X201930819Y-52757000D01*
X200737000Y-52757000D01*
X200483000Y-52757000D01*
X200463000Y-52757000D01*
X200463000Y-52503000D01*
X200483000Y-52503000D01*
X200483000Y-51309845D01*
X200737000Y-51309845D01*
X200737000Y-52503000D01*
X201930819Y-52503000D01*
X202051486Y-52273108D01*
X201805183Y-51748642D01*
X201376924Y-51358355D01*
X200966890Y-51188524D01*
X200737000Y-51309845D01*
X200483000Y-51309845D01*
X200253110Y-51188524D01*
X199843076Y-51358355D01*
X199540063Y-51634501D01*
X199523162Y-51544683D01*
X199384090Y-51328559D01*
X199171890Y-51183569D01*
X198920000Y-51132560D01*
X197220000Y-51132560D01*
X196984683Y-51176838D01*
X196768559Y-51315910D01*
X196623569Y-51528110D01*
X196572560Y-51780000D01*
X174695914Y-51780000D01*
X174577942Y-51494485D01*
X174287046Y-51203081D01*
X173906777Y-51045180D01*
X173495029Y-51044821D01*
X173114485Y-51202058D01*
X172823081Y-51492954D01*
X172665180Y-51873223D01*
X172664821Y-52284971D01*
X169604338Y-52284971D01*
X169866054Y-51893285D01*
X169979093Y-51325000D01*
X169866054Y-50756715D01*
X169544147Y-50274946D01*
X169062378Y-49953039D01*
X168494093Y-49840000D01*
X168435907Y-49840000D01*
X167867622Y-49953039D01*
X167385853Y-50274946D01*
X167385029Y-50276179D01*
X167378162Y-50239683D01*
X167239090Y-50023559D01*
X167026890Y-49878569D01*
X166775000Y-49827560D01*
X165075000Y-49827560D01*
X164839683Y-49871838D01*
X164623559Y-50010910D01*
X164478569Y-50223110D01*
X164427560Y-50475000D01*
X164427560Y-52175000D01*
X164471838Y-52410317D01*
X164610910Y-52626441D01*
X164823110Y-52771431D01*
X164890541Y-52785086D01*
X164845853Y-52814946D01*
X164523946Y-53296715D01*
X164410907Y-53865000D01*
X129667000Y-53865000D01*
X129667000Y-52635750D01*
X133915000Y-52635750D01*
X133915000Y-53326309D01*
X134011673Y-53559698D01*
X134190301Y-53738327D01*
X134423690Y-53835000D01*
X135114250Y-53835000D01*
X135273000Y-53676250D01*
X135273000Y-52477000D01*
X134073750Y-52477000D01*
X133915000Y-52635750D01*
X129667000Y-52635750D01*
X129667000Y-51373691D01*
X133915000Y-51373691D01*
X133915000Y-52064250D01*
X134073750Y-52223000D01*
X135273000Y-52223000D01*
X135273000Y-51023750D01*
X135527000Y-51023750D01*
X135527000Y-52223000D01*
X135547000Y-52223000D01*
X135547000Y-52477000D01*
X135527000Y-52477000D01*
X135527000Y-53676250D01*
X135685750Y-53835000D01*
X136376310Y-53835000D01*
X136609699Y-53738327D01*
X136788327Y-53559698D01*
X136860597Y-53385223D01*
X136889946Y-53429147D01*
X137371715Y-53751054D01*
X137940000Y-53864093D01*
X138508285Y-53751054D01*
X138990054Y-53429147D01*
X139210000Y-53099974D01*
X139429946Y-53429147D01*
X139911715Y-53751054D01*
X140480000Y-53864093D01*
X141048285Y-53751054D01*
X141530054Y-53429147D01*
X141750000Y-53099974D01*
X141969946Y-53429147D01*
X142451715Y-53751054D01*
X143020000Y-53864093D01*
X143588285Y-53751054D01*
X144070054Y-53429147D01*
X144290000Y-53099974D01*
X144509946Y-53429147D01*
X144991715Y-53751054D01*
X145560000Y-53864093D01*
X146128285Y-53751054D01*
X146610054Y-53429147D01*
X146931961Y-52947378D01*
X147045000Y-52379093D01*
X147045000Y-52320907D01*
X146931961Y-51752622D01*
X146763165Y-51500000D01*
X151577560Y-51500000D01*
X151577560Y-53200000D01*
X151621838Y-53435317D01*
X151760910Y-53651441D01*
X151973110Y-53796431D01*
X152225000Y-53847440D01*
X153925000Y-53847440D01*
X154160317Y-53803162D01*
X154376441Y-53664090D01*
X154521431Y-53451890D01*
X154572440Y-53200000D01*
X154572440Y-51500000D01*
X154528162Y-51264683D01*
X154389090Y-51048559D01*
X154176890Y-50903569D01*
X153925000Y-50852560D01*
X152225000Y-50852560D01*
X151989683Y-50896838D01*
X151773559Y-51035910D01*
X151628569Y-51248110D01*
X151577560Y-51500000D01*
X146763165Y-51500000D01*
X146610054Y-51270853D01*
X146128285Y-50948946D01*
X145560000Y-50835907D01*
X144991715Y-50948946D01*
X144509946Y-51270853D01*
X144290000Y-51600026D01*
X144070054Y-51270853D01*
X143588285Y-50948946D01*
X143020000Y-50835907D01*
X142451715Y-50948946D01*
X141969946Y-51270853D01*
X141750000Y-51600026D01*
X141530054Y-51270853D01*
X141048285Y-50948946D01*
X140480000Y-50835907D01*
X139911715Y-50948946D01*
X139429946Y-51270853D01*
X139210000Y-51600026D01*
X138990054Y-51270853D01*
X138508285Y-50948946D01*
X137940000Y-50835907D01*
X137371715Y-50948946D01*
X136889946Y-51270853D01*
X136860597Y-51314777D01*
X136788327Y-51140302D01*
X136609699Y-50961673D01*
X136376310Y-50865000D01*
X135685750Y-50865000D01*
X135527000Y-51023750D01*
X135273000Y-51023750D01*
X135114250Y-50865000D01*
X134423690Y-50865000D01*
X134190301Y-50961673D01*
X134011673Y-51140302D01*
X133915000Y-51373691D01*
X129667000Y-51373691D01*
X129667000Y-47752000D01*
X225933000Y-47752000D01*
X225933000Y-144018000D01*
G36*
X187180903Y-119598013D02*
X187189891Y-119692999D01*
X187039143Y-119843748D01*
X187025000Y-119829605D01*
X187010858Y-119843748D01*
X186869097Y-119701987D01*
X186860109Y-119607001D01*
X186973013Y-119494097D01*
X187067999Y-119485109D01*
X187180903Y-119598013D01*
X187180903Y-119598013D01*
G37*
X187180903Y-119598013D02*
X187189891Y-119692999D01*
X187039143Y-119843748D01*
X187025000Y-119829605D01*
X187010858Y-119843748D01*
X186869097Y-119701987D01*
X186860109Y-119607001D01*
X186973013Y-119494097D01*
X187067999Y-119485109D01*
X187180903Y-119598013D01*
G36*
X186080903Y-118498013D02*
X186089891Y-118592999D01*
X185976987Y-118705903D01*
X185882001Y-118714891D01*
X185731253Y-118564143D01*
X185745395Y-118550000D01*
X185731253Y-118535858D01*
X185873013Y-118394097D01*
X185967999Y-118385109D01*
X186080903Y-118498013D01*
X186080903Y-118498013D01*
G37*
X186080903Y-118498013D02*
X186089891Y-118592999D01*
X185976987Y-118705903D01*
X185882001Y-118714891D01*
X185731253Y-118564143D01*
X185745395Y-118550000D01*
X185731253Y-118535858D01*
X185873013Y-118394097D01*
X185967999Y-118385109D01*
X186080903Y-118498013D01*
G36*
X187180903Y-118498013D02*
X187189891Y-118592999D01*
X187076987Y-118705903D01*
X186982001Y-118714891D01*
X186869097Y-118601987D01*
X186860109Y-118507001D01*
X186973013Y-118394097D01*
X187067999Y-118385109D01*
X187180903Y-118498013D01*
X187180903Y-118498013D01*
G37*
X187180903Y-118498013D02*
X187189891Y-118592999D01*
X187076987Y-118705903D01*
X186982001Y-118714891D01*
X186869097Y-118601987D01*
X186860109Y-118507001D01*
X186973013Y-118394097D01*
X187067999Y-118385109D01*
X187180903Y-118498013D01*
G36*
X188318748Y-118535858D02*
X188304605Y-118550000D01*
X188318748Y-118564143D01*
X188176987Y-118705903D01*
X188082001Y-118714891D01*
X187969097Y-118601987D01*
X187960109Y-118507001D01*
X188073013Y-118394097D01*
X188167999Y-118385109D01*
X188318748Y-118535858D01*
X188318748Y-118535858D01*
G37*
X188318748Y-118535858D02*
X188304605Y-118550000D01*
X188318748Y-118564143D01*
X188176987Y-118705903D01*
X188082001Y-118714891D01*
X187969097Y-118601987D01*
X187960109Y-118507001D01*
X188073013Y-118394097D01*
X188167999Y-118385109D01*
X188318748Y-118535858D01*
G36*
X187180903Y-117398013D02*
X187189891Y-117492999D01*
X187076987Y-117605903D01*
X186982001Y-117614891D01*
X186869097Y-117501987D01*
X186860109Y-117407001D01*
X187010858Y-117256253D01*
X187025000Y-117270395D01*
X187039143Y-117256253D01*
X187180903Y-117398013D01*
X187180903Y-117398013D01*
G37*
X187180903Y-117398013D02*
X187189891Y-117492999D01*
X187076987Y-117605903D01*
X186982001Y-117614891D01*
X186869097Y-117501987D01*
X186860109Y-117407001D01*
X187010858Y-117256253D01*
X187025000Y-117270395D01*
X187039143Y-117256253D01*
X187180903Y-117398013D01*
M02*
